<mxfile host="Electron" modified="2023-06-05T07:56:02.170Z" agent="Mozilla/5.0 (X11; Linux x86_64) AppleWebKit/537.36 (KHTML, like Gecko) draw.io/21.2.8 Chrome/112.0.5615.165 Electron/24.2.0 Safari/537.36" etag="ZKgZSmiFV8KcawH7qRdi" version="21.2.8" type="device">
  <diagram name="Page-1" id="KF0UVJdqKHjVm5NpOeyh">
    <mxGraphModel dx="545" dy="337" grid="1" gridSize="10" guides="1" tooltips="1" connect="1" arrows="1" fold="1" page="1" pageScale="1" pageWidth="827" pageHeight="1169" math="0" shadow="0">
      <root>
        <mxCell id="0" />
        <mxCell id="1" parent="0" />
        <mxCell id="vVD12n-NJjttuo7cWdmi-1" value="" style="verticalLabelPosition=bottom;verticalAlign=top;html=1;shape=mxgraph.basic.acute_triangle;dx=0.5;" vertex="1" parent="1">
          <mxGeometry x="260" y="140" width="30" height="30" as="geometry" />
        </mxCell>
        <mxCell id="vVD12n-NJjttuo7cWdmi-2" value="" style="verticalLabelPosition=bottom;verticalAlign=top;html=1;shape=mxgraph.basic.acute_triangle;dx=0.5;" vertex="1" parent="1">
          <mxGeometry x="360" y="220" width="30" height="30" as="geometry" />
        </mxCell>
        <mxCell id="vVD12n-NJjttuo7cWdmi-3" value="" style="verticalLabelPosition=bottom;verticalAlign=top;html=1;shape=mxgraph.basic.acute_triangle;dx=0.5;" vertex="1" parent="1">
          <mxGeometry x="230" y="310" width="30" height="30" as="geometry" />
        </mxCell>
        <mxCell id="vVD12n-NJjttuo7cWdmi-4" value="" style="verticalLabelPosition=bottom;verticalAlign=top;html=1;shape=mxgraph.basic.acute_triangle;dx=0.5;" vertex="1" parent="1">
          <mxGeometry x="160" y="260" width="30" height="30" as="geometry" />
        </mxCell>
        <mxCell id="vVD12n-NJjttuo7cWdmi-5" value="" style="verticalLabelPosition=bottom;verticalAlign=top;html=1;shape=mxgraph.basic.acute_triangle;dx=0.5;" vertex="1" parent="1">
          <mxGeometry x="280" y="290" width="30" height="30" as="geometry" />
        </mxCell>
        <mxCell id="vVD12n-NJjttuo7cWdmi-6" value="" style="verticalLabelPosition=bottom;verticalAlign=top;html=1;shape=mxgraph.basic.acute_triangle;dx=0.5;" vertex="1" parent="1">
          <mxGeometry x="310" y="220" width="30" height="30" as="geometry" />
        </mxCell>
        <mxCell id="vVD12n-NJjttuo7cWdmi-7" value="" style="verticalLabelPosition=bottom;verticalAlign=top;html=1;shape=mxgraph.basic.acute_triangle;dx=0.5;" vertex="1" parent="1">
          <mxGeometry x="220" y="200" width="30" height="30" as="geometry" />
        </mxCell>
        <mxCell id="vVD12n-NJjttuo7cWdmi-8" value="" style="verticalLabelPosition=bottom;verticalAlign=top;html=1;shape=mxgraph.basic.acute_triangle;dx=0.5;" vertex="1" parent="1">
          <mxGeometry x="190" y="170" width="30" height="30" as="geometry" />
        </mxCell>
        <mxCell id="vVD12n-NJjttuo7cWdmi-9" value="" style="verticalLabelPosition=bottom;verticalAlign=top;html=1;shape=mxgraph.basic.acute_triangle;dx=0.5;" vertex="1" parent="1">
          <mxGeometry x="330" y="160" width="30" height="30" as="geometry" />
        </mxCell>
        <mxCell id="vVD12n-NJjttuo7cWdmi-10" value="" style="verticalLabelPosition=bottom;verticalAlign=top;html=1;shape=mxgraph.basic.acute_triangle;dx=0.5;" vertex="1" parent="1">
          <mxGeometry x="410" y="120" width="30" height="30" as="geometry" />
        </mxCell>
        <mxCell id="vVD12n-NJjttuo7cWdmi-11" value="" style="verticalLabelPosition=bottom;verticalAlign=top;html=1;shape=mxgraph.basic.acute_triangle;dx=0.5;" vertex="1" parent="1">
          <mxGeometry x="370" y="110" width="30" height="30" as="geometry" />
        </mxCell>
        <mxCell id="vVD12n-NJjttuo7cWdmi-12" value="" style="verticalLabelPosition=bottom;verticalAlign=top;html=1;shape=mxgraph.basic.acute_triangle;dx=0.45;" vertex="1" parent="1">
          <mxGeometry x="399" y="180" width="30" height="30" as="geometry" />
        </mxCell>
        <mxCell id="vVD12n-NJjttuo7cWdmi-13" value="" style="verticalLabelPosition=bottom;verticalAlign=top;html=1;shape=mxgraph.basic.acute_triangle;dx=0.45;" vertex="1" parent="1">
          <mxGeometry x="414" y="230" width="30" height="30" as="geometry" />
        </mxCell>
        <mxCell id="vVD12n-NJjttuo7cWdmi-14" value="" style="verticalLabelPosition=bottom;verticalAlign=top;html=1;shape=mxgraph.basic.acute_triangle;dx=0.45;" vertex="1" parent="1">
          <mxGeometry x="444" y="180" width="30" height="30" as="geometry" />
        </mxCell>
        <mxCell id="vVD12n-NJjttuo7cWdmi-16" value="average = ortalama = sum/count" style="text;html=1;strokeColor=none;fillColor=none;align=center;verticalAlign=middle;whiteSpace=wrap;rounded=0;" vertex="1" parent="1">
          <mxGeometry x="370" y="310" width="230" height="30" as="geometry" />
        </mxCell>
        <mxCell id="vVD12n-NJjttuo7cWdmi-17" value="ortalama = &lt;br&gt;&lt;span style=&quot;white-space: pre;&quot;&gt;	&lt;/span&gt;en ortada&lt;br&gt;en merkezde&lt;br&gt;en ....&lt;br&gt;&lt;br&gt;&quot;NORMAL&quot;" style="text;html=1;strokeColor=none;fillColor=none;align=center;verticalAlign=middle;whiteSpace=wrap;rounded=0;" vertex="1" parent="1">
          <mxGeometry x="370" y="340" width="230" height="100" as="geometry" />
        </mxCell>
        <mxCell id="vVD12n-NJjttuo7cWdmi-18" value="average age = 25&lt;br&gt;normal" style="text;html=1;strokeColor=none;fillColor=none;align=center;verticalAlign=middle;whiteSpace=wrap;rounded=0;" vertex="1" parent="1">
          <mxGeometry x="90" y="400" width="160" height="40" as="geometry" />
        </mxCell>
        <mxCell id="vVD12n-NJjttuo7cWdmi-19" value="a student age of 45" style="text;html=1;strokeColor=#b85450;fillColor=#f8cecc;align=center;verticalAlign=middle;whiteSpace=wrap;rounded=0;" vertex="1" parent="1">
          <mxGeometry x="250" y="470" width="60" height="30" as="geometry" />
        </mxCell>
        <mxCell id="vVD12n-NJjttuo7cWdmi-20" value="" style="ellipse;whiteSpace=wrap;html=1;aspect=fixed;fillColor=none;" vertex="1" parent="1">
          <mxGeometry x="150" y="20" width="370" height="370" as="geometry" />
        </mxCell>
        <mxCell id="vVD12n-NJjttuo7cWdmi-23" style="edgeStyle=orthogonalEdgeStyle;rounded=0;orthogonalLoop=1;jettySize=auto;html=1;entryX=0.5;entryY=1;entryDx=0;entryDy=0;" edge="1" parent="1" source="vVD12n-NJjttuo7cWdmi-21" target="vVD12n-NJjttuo7cWdmi-22">
          <mxGeometry relative="1" as="geometry" />
        </mxCell>
        <mxCell id="vVD12n-NJjttuo7cWdmi-21" value="" style="ellipse;whiteSpace=wrap;html=1;aspect=fixed;fillColor=#dae8fc;strokeColor=#6c8ebf;" vertex="1" parent="1">
          <mxGeometry x="330" y="200" width="10" height="10" as="geometry" />
        </mxCell>
        <mxCell id="vVD12n-NJjttuo7cWdmi-22" value="merkez&lt;br&gt;center&lt;br&gt;mean&lt;br&gt;normal" style="text;html=1;strokeColor=none;fillColor=none;align=center;verticalAlign=middle;whiteSpace=wrap;rounded=0;" vertex="1" parent="1">
          <mxGeometry x="100" y="50" width="60" height="80" as="geometry" />
        </mxCell>
        <mxCell id="vVD12n-NJjttuo7cWdmi-42" value="" style="verticalLabelPosition=bottom;verticalAlign=top;html=1;shape=mxgraph.basic.acute_triangle;dx=0.5;" vertex="1" parent="1">
          <mxGeometry x="180" y="720" width="30" height="30" as="geometry" />
        </mxCell>
        <mxCell id="vVD12n-NJjttuo7cWdmi-43" value="" style="verticalLabelPosition=bottom;verticalAlign=top;html=1;shape=mxgraph.basic.acute_triangle;dx=0.5;" vertex="1" parent="1">
          <mxGeometry x="409" y="960" width="30" height="30" as="geometry" />
        </mxCell>
        <mxCell id="vVD12n-NJjttuo7cWdmi-44" value="" style="verticalLabelPosition=bottom;verticalAlign=top;html=1;shape=mxgraph.basic.acute_triangle;dx=0.5;" vertex="1" parent="1">
          <mxGeometry x="150" y="990" width="30" height="30" as="geometry" />
        </mxCell>
        <mxCell id="vVD12n-NJjttuo7cWdmi-45" value="" style="verticalLabelPosition=bottom;verticalAlign=top;html=1;shape=mxgraph.basic.acute_triangle;dx=0.5;" vertex="1" parent="1">
          <mxGeometry x="90" y="920" width="30" height="30" as="geometry" />
        </mxCell>
        <mxCell id="vVD12n-NJjttuo7cWdmi-46" value="" style="verticalLabelPosition=bottom;verticalAlign=top;html=1;shape=mxgraph.basic.acute_triangle;dx=0.5;" vertex="1" parent="1">
          <mxGeometry x="245" y="980" width="30" height="30" as="geometry" />
        </mxCell>
        <mxCell id="vVD12n-NJjttuo7cWdmi-47" value="" style="verticalLabelPosition=bottom;verticalAlign=top;html=1;shape=mxgraph.basic.acute_triangle;dx=0.5;" vertex="1" parent="1">
          <mxGeometry x="330" y="970" width="30" height="30" as="geometry" />
        </mxCell>
        <mxCell id="vVD12n-NJjttuo7cWdmi-48" value="" style="verticalLabelPosition=bottom;verticalAlign=top;html=1;shape=mxgraph.basic.acute_triangle;dx=0.5;" vertex="1" parent="1">
          <mxGeometry x="185" y="850" width="30" height="30" as="geometry" />
        </mxCell>
        <mxCell id="vVD12n-NJjttuo7cWdmi-49" value="" style="verticalLabelPosition=bottom;verticalAlign=top;html=1;shape=mxgraph.basic.acute_triangle;dx=0.5;" vertex="1" parent="1">
          <mxGeometry x="110" y="810" width="30" height="30" as="geometry" />
        </mxCell>
        <mxCell id="vVD12n-NJjttuo7cWdmi-50" value="" style="verticalLabelPosition=bottom;verticalAlign=top;html=1;shape=mxgraph.basic.acute_triangle;dx=0.5;" vertex="1" parent="1">
          <mxGeometry x="295" y="810" width="30" height="30" as="geometry" />
        </mxCell>
        <mxCell id="vVD12n-NJjttuo7cWdmi-51" value="" style="verticalLabelPosition=bottom;verticalAlign=top;html=1;shape=mxgraph.basic.acute_triangle;dx=0.5;" vertex="1" parent="1">
          <mxGeometry x="384" y="720" width="30" height="30" as="geometry" />
        </mxCell>
        <mxCell id="vVD12n-NJjttuo7cWdmi-52" value="" style="verticalLabelPosition=bottom;verticalAlign=top;html=1;shape=mxgraph.basic.acute_triangle;dx=0.5;" vertex="1" parent="1">
          <mxGeometry x="360" y="720" width="30" height="30" as="geometry" />
        </mxCell>
        <mxCell id="vVD12n-NJjttuo7cWdmi-53" value="" style="verticalLabelPosition=bottom;verticalAlign=top;html=1;shape=mxgraph.basic.acute_triangle;dx=0.45;" vertex="1" parent="1">
          <mxGeometry x="364" y="830" width="30" height="30" as="geometry" />
        </mxCell>
        <mxCell id="vVD12n-NJjttuo7cWdmi-54" value="" style="verticalLabelPosition=bottom;verticalAlign=top;html=1;shape=mxgraph.basic.acute_triangle;dx=0.45;" vertex="1" parent="1">
          <mxGeometry x="480" y="870" width="30" height="30" as="geometry" />
        </mxCell>
        <mxCell id="vVD12n-NJjttuo7cWdmi-55" value="" style="verticalLabelPosition=bottom;verticalAlign=top;html=1;shape=mxgraph.basic.acute_triangle;dx=0.45;" vertex="1" parent="1">
          <mxGeometry x="444" y="770" width="30" height="30" as="geometry" />
        </mxCell>
        <mxCell id="vVD12n-NJjttuo7cWdmi-60" value="" style="ellipse;whiteSpace=wrap;html=1;aspect=fixed;fillColor=none;" vertex="1" parent="1">
          <mxGeometry x="72.5" y="662.5" width="445" height="445" as="geometry" />
        </mxCell>
        <mxCell id="vVD12n-NJjttuo7cWdmi-61" value="" style="ellipse;whiteSpace=wrap;html=1;aspect=fixed;fillColor=#dae8fc;strokeColor=#6c8ebf;" vertex="1" parent="1">
          <mxGeometry x="290" y="870" width="15" height="15" as="geometry" />
        </mxCell>
        <mxCell id="vVD12n-NJjttuo7cWdmi-62" value="" style="verticalLabelPosition=bottom;verticalAlign=top;html=1;shape=mxgraph.basic.acute_triangle;dx=0.5;" vertex="1" parent="1">
          <mxGeometry x="260" y="1407.5" width="30" height="30" as="geometry" />
        </mxCell>
        <mxCell id="vVD12n-NJjttuo7cWdmi-63" value="" style="verticalLabelPosition=bottom;verticalAlign=top;html=1;shape=mxgraph.basic.acute_triangle;dx=0.5;" vertex="1" parent="1">
          <mxGeometry x="399" y="1472.5" width="30" height="30" as="geometry" />
        </mxCell>
        <mxCell id="vVD12n-NJjttuo7cWdmi-64" value="" style="verticalLabelPosition=bottom;verticalAlign=top;html=1;shape=mxgraph.basic.acute_triangle;dx=0.5;" vertex="1" parent="1">
          <mxGeometry x="217.5" y="1502.5" width="30" height="30" as="geometry" />
        </mxCell>
        <mxCell id="vVD12n-NJjttuo7cWdmi-65" value="" style="verticalLabelPosition=bottom;verticalAlign=top;html=1;shape=mxgraph.basic.acute_triangle;dx=0.5;" vertex="1" parent="1">
          <mxGeometry x="252.5" y="1492.5" width="30" height="30" as="geometry" />
        </mxCell>
        <mxCell id="vVD12n-NJjttuo7cWdmi-66" value="" style="verticalLabelPosition=bottom;verticalAlign=top;html=1;shape=mxgraph.basic.acute_triangle;dx=0.5;" vertex="1" parent="1">
          <mxGeometry x="312.5" y="1492.5" width="30" height="30" as="geometry" />
        </mxCell>
        <mxCell id="vVD12n-NJjttuo7cWdmi-67" value="" style="verticalLabelPosition=bottom;verticalAlign=top;html=1;shape=mxgraph.basic.acute_triangle;dx=0.5;" vertex="1" parent="1">
          <mxGeometry x="282.5" y="1522.5" width="30" height="30" as="geometry" />
        </mxCell>
        <mxCell id="vVD12n-NJjttuo7cWdmi-68" value="" style="verticalLabelPosition=bottom;verticalAlign=top;html=1;shape=mxgraph.basic.acute_triangle;dx=0.5;" vertex="1" parent="1">
          <mxGeometry x="280" y="1457.5" width="30" height="30" as="geometry" />
        </mxCell>
        <mxCell id="vVD12n-NJjttuo7cWdmi-69" value="" style="verticalLabelPosition=bottom;verticalAlign=top;html=1;shape=mxgraph.basic.acute_triangle;dx=0.5;" vertex="1" parent="1">
          <mxGeometry x="230" y="1447.5" width="30" height="30" as="geometry" />
        </mxCell>
        <mxCell id="vVD12n-NJjttuo7cWdmi-70" value="" style="verticalLabelPosition=bottom;verticalAlign=top;html=1;shape=mxgraph.basic.acute_triangle;dx=0.5;" vertex="1" parent="1">
          <mxGeometry x="310" y="1417.5" width="30" height="30" as="geometry" />
        </mxCell>
        <mxCell id="vVD12n-NJjttuo7cWdmi-71" value="" style="verticalLabelPosition=bottom;verticalAlign=top;html=1;shape=mxgraph.basic.acute_triangle;dx=0.5;" vertex="1" parent="1">
          <mxGeometry x="295" y="1377.5" width="30" height="30" as="geometry" />
        </mxCell>
        <mxCell id="vVD12n-NJjttuo7cWdmi-72" value="" style="verticalLabelPosition=bottom;verticalAlign=top;html=1;shape=mxgraph.basic.acute_triangle;dx=0.5;" vertex="1" parent="1">
          <mxGeometry x="334" y="1387.5" width="30" height="30" as="geometry" />
        </mxCell>
        <mxCell id="vVD12n-NJjttuo7cWdmi-73" value="" style="verticalLabelPosition=bottom;verticalAlign=top;html=1;shape=mxgraph.basic.acute_triangle;dx=0.45;" vertex="1" parent="1">
          <mxGeometry x="340" y="1457.5" width="30" height="30" as="geometry" />
        </mxCell>
        <mxCell id="vVD12n-NJjttuo7cWdmi-74" value="" style="verticalLabelPosition=bottom;verticalAlign=top;html=1;shape=mxgraph.basic.acute_triangle;dx=0.45;" vertex="1" parent="1">
          <mxGeometry x="364" y="1497.5" width="30" height="30" as="geometry" />
        </mxCell>
        <mxCell id="vVD12n-NJjttuo7cWdmi-75" value="" style="verticalLabelPosition=bottom;verticalAlign=top;html=1;shape=mxgraph.basic.acute_triangle;dx=0.45;" vertex="1" parent="1">
          <mxGeometry x="375" y="1427.5" width="30" height="30" as="geometry" />
        </mxCell>
        <mxCell id="vVD12n-NJjttuo7cWdmi-81" value="" style="ellipse;whiteSpace=wrap;html=1;aspect=fixed;fillColor=none;" vertex="1" parent="1">
          <mxGeometry x="206.5" y="1360" width="232.5" height="232.5" as="geometry" />
        </mxCell>
        <mxCell id="vVD12n-NJjttuo7cWdmi-82" value="" style="ellipse;whiteSpace=wrap;html=1;aspect=fixed;fillColor=#dae8fc;strokeColor=#6c8ebf;" vertex="1" parent="1">
          <mxGeometry x="318.5" y="1464.5" width="13" height="13" as="geometry" />
        </mxCell>
        <mxCell id="vVD12n-NJjttuo7cWdmi-83" value="" style="endArrow=classic;html=1;rounded=0;exitX=1;exitY=1;exitDx=0;exitDy=0;entryX=0.8;entryY=0.889;entryDx=0;entryDy=0;entryPerimeter=0;" edge="1" parent="1" source="vVD12n-NJjttuo7cWdmi-82" target="vVD12n-NJjttuo7cWdmi-81">
          <mxGeometry width="50" height="50" relative="1" as="geometry">
            <mxPoint x="360" y="1650" as="sourcePoint" />
            <mxPoint x="410" y="1600" as="targetPoint" />
          </mxGeometry>
        </mxCell>
        <mxCell id="vVD12n-NJjttuo7cWdmi-84" value="" style="endArrow=classic;html=1;rounded=0;exitX=0;exitY=1;exitDx=0;exitDy=0;entryX=0.073;entryY=0.762;entryDx=0;entryDy=0;entryPerimeter=0;" edge="1" parent="1" source="vVD12n-NJjttuo7cWdmi-61" target="vVD12n-NJjttuo7cWdmi-60">
          <mxGeometry width="50" height="50" relative="1" as="geometry">
            <mxPoint x="50" y="1060" as="sourcePoint" />
            <mxPoint x="100" y="1010" as="targetPoint" />
          </mxGeometry>
        </mxCell>
        <mxCell id="vVD12n-NJjttuo7cWdmi-85" value="" style="endArrow=classic;html=1;rounded=0;exitX=1;exitY=1;exitDx=0;exitDy=0;entryX=1;entryY=0.5;entryDx=0;entryDy=0;" edge="1" parent="1" source="vVD12n-NJjttuo7cWdmi-21" target="vVD12n-NJjttuo7cWdmi-20">
          <mxGeometry width="50" height="50" relative="1" as="geometry">
            <mxPoint x="80" y="370" as="sourcePoint" />
            <mxPoint x="130" y="320" as="targetPoint" />
          </mxGeometry>
        </mxCell>
        <mxCell id="vVD12n-NJjttuo7cWdmi-86" value="someone" style="shape=umlActor;verticalLabelPosition=bottom;verticalAlign=top;html=1;outlineConnect=0;" vertex="1" parent="1">
          <mxGeometry x="120" y="1900" width="30" height="60" as="geometry" />
        </mxCell>
        <mxCell id="vVD12n-NJjttuo7cWdmi-87" value="me" style="shape=umlActor;verticalLabelPosition=bottom;verticalAlign=top;html=1;outlineConnect=0;" vertex="1" parent="1">
          <mxGeometry x="480" y="1900" width="30" height="60" as="geometry" />
        </mxCell>
        <mxCell id="vVD12n-NJjttuo7cWdmi-88" value="20 metre" style="endArrow=classic;startArrow=classic;html=1;rounded=0;exitX=1;exitY=0.3333333333333333;exitDx=0;exitDy=0;exitPerimeter=0;entryX=0;entryY=0.3333333333333333;entryDx=0;entryDy=0;entryPerimeter=0;fillColor=#f8cecc;strokeColor=#b85450;" edge="1" parent="1" source="vVD12n-NJjttuo7cWdmi-86" target="vVD12n-NJjttuo7cWdmi-87">
          <mxGeometry width="50" height="50" relative="1" as="geometry">
            <mxPoint x="200" y="1960" as="sourcePoint" />
            <mxPoint x="250" y="1910" as="targetPoint" />
          </mxGeometry>
        </mxCell>
        <mxCell id="vVD12n-NJjttuo7cWdmi-89" value="DATA1 = VERI1: someone ile benim aramda, 20 metre fark var&amp;nbsp;" style="text;html=1;strokeColor=none;fillColor=none;align=center;verticalAlign=middle;whiteSpace=wrap;rounded=0;" vertex="1" parent="1">
          <mxGeometry x="130" y="2010" width="370" height="30" as="geometry" />
        </mxCell>
        <mxCell id="vVD12n-NJjttuo7cWdmi-90" value="TEK BASINA, BIR ANLAMI, MANASI YOK!!! MEANINGLESS, USELES" style="text;html=1;strokeColor=none;fillColor=none;align=center;verticalAlign=middle;whiteSpace=wrap;rounded=0;" vertex="1" parent="1">
          <mxGeometry x="100" y="2040" width="464" height="30" as="geometry" />
        </mxCell>
        <mxCell id="vVD12n-NJjttuo7cWdmi-91" value="someone" style="shape=umlActor;verticalLabelPosition=bottom;verticalAlign=top;html=1;outlineConnect=0;" vertex="1" parent="1">
          <mxGeometry x="222.5" y="2120" width="30" height="60" as="geometry" />
        </mxCell>
        <mxCell id="vVD12n-NJjttuo7cWdmi-92" value="me" style="shape=umlActor;verticalLabelPosition=bottom;verticalAlign=top;html=1;outlineConnect=0;" vertex="1" parent="1">
          <mxGeometry x="470" y="2120" width="30" height="60" as="geometry" />
        </mxCell>
        <mxCell id="vVD12n-NJjttuo7cWdmi-93" value="10 metre" style="endArrow=classic;startArrow=classic;html=1;rounded=0;exitX=1;exitY=0.3333333333333333;exitDx=0;exitDy=0;exitPerimeter=0;entryX=0;entryY=0.3333333333333333;entryDx=0;entryDy=0;entryPerimeter=0;fillColor=#f8cecc;strokeColor=#b85450;" edge="1" source="vVD12n-NJjttuo7cWdmi-91" target="vVD12n-NJjttuo7cWdmi-92" parent="1">
          <mxGeometry width="50" height="50" relative="1" as="geometry">
            <mxPoint x="190" y="2180" as="sourcePoint" />
            <mxPoint x="240" y="2130" as="targetPoint" />
          </mxGeometry>
        </mxCell>
        <mxCell id="vVD12n-NJjttuo7cWdmi-94" value="DATA2 = VERI2: someone ile benim aramda, 10 metre fark var&amp;nbsp; (5 seconds later)" style="text;html=1;strokeColor=none;fillColor=none;align=center;verticalAlign=middle;whiteSpace=wrap;rounded=0;" vertex="1" parent="1">
          <mxGeometry x="120" y="2230" width="370" height="30" as="geometry" />
        </mxCell>
        <mxCell id="vVD12n-NJjttuo7cWdmi-96" value="INFORMATION = (daha once, aramizda 20 metre fark varken, 5 saniye sonra, 10 metre ye inmistir.) Demek ki, bu iki nefer birbirine &lt;b&gt;YAKLASIYOR&lt;/b&gt;" style="text;html=1;strokeColor=#b85450;fillColor=#f8cecc;align=center;verticalAlign=middle;whiteSpace=wrap;rounded=0;" vertex="1" parent="1">
          <mxGeometry x="132.5" y="2278" width="390" height="60" as="geometry" />
        </mxCell>
        <mxCell id="vVD12n-NJjttuo7cWdmi-97" value="" style="shape=image;verticalLabelPosition=bottom;labelBackgroundColor=default;verticalAlign=top;aspect=fixed;imageAspect=0;image=https://www.phpkb.com/kb/assets/knowledge-pyramid.png;clipPath=inset(21.33% 0% 0% 0.33%);" vertex="1" parent="1">
          <mxGeometry x="140" y="2370" width="401.5" height="151.0660535117057" as="geometry" />
        </mxCell>
        <mxCell id="vVD12n-NJjttuo7cWdmi-99" value="someone" style="shape=umlActor;verticalLabelPosition=bottom;verticalAlign=top;html=1;outlineConnect=0;" vertex="1" parent="1">
          <mxGeometry x="265" y="2540" width="30" height="60" as="geometry" />
        </mxCell>
        <mxCell id="vVD12n-NJjttuo7cWdmi-100" value="me" style="shape=umlActor;verticalLabelPosition=bottom;verticalAlign=top;html=1;outlineConnect=0;" vertex="1" parent="1">
          <mxGeometry x="470" y="2540" width="30" height="60" as="geometry" />
        </mxCell>
        <mxCell id="vVD12n-NJjttuo7cWdmi-101" value="10 metre" style="endArrow=classic;startArrow=classic;html=1;rounded=0;exitX=1;exitY=0.3333333333333333;exitDx=0;exitDy=0;exitPerimeter=0;entryX=0;entryY=0.3333333333333333;entryDx=0;entryDy=0;entryPerimeter=0;fillColor=#f8cecc;strokeColor=#b85450;" edge="1" source="vVD12n-NJjttuo7cWdmi-99" target="vVD12n-NJjttuo7cWdmi-100" parent="1">
          <mxGeometry width="50" height="50" relative="1" as="geometry">
            <mxPoint x="190" y="2600" as="sourcePoint" />
            <mxPoint x="240" y="2550" as="targetPoint" />
          </mxGeometry>
        </mxCell>
        <mxCell id="vVD12n-NJjttuo7cWdmi-102" value="DATA3 = VERI3: &quot;me&quot; sabit duruyor, constantly standing!" style="text;html=1;strokeColor=none;fillColor=none;align=center;verticalAlign=middle;whiteSpace=wrap;rounded=0;" vertex="1" parent="1">
          <mxGeometry x="120" y="2650" width="370" height="30" as="geometry" />
        </mxCell>
        <mxCell id="vVD12n-NJjttuo7cWdmi-103" value="INFORMATION: someone, &quot;me&quot; ye dogru yuruyor" style="text;html=1;strokeColor=#b85450;fillColor=#f8cecc;align=center;verticalAlign=middle;whiteSpace=wrap;rounded=0;" vertex="1" parent="1">
          <mxGeometry x="112.5" y="2680" width="370" height="30" as="geometry" />
        </mxCell>
        <mxCell id="vVD12n-NJjttuo7cWdmi-104" value="&lt;b&gt;DATA4&lt;/b&gt; = VERI4: bir neferin normal yurume (walking speed) hizi saniyede 1 metredir" style="text;html=1;strokeColor=none;fillColor=none;align=center;verticalAlign=middle;whiteSpace=wrap;rounded=0;" vertex="1" parent="1">
          <mxGeometry x="120" y="2750" width="370" height="30" as="geometry" />
        </mxCell>
        <mxCell id="vVD12n-NJjttuo7cWdmi-105" value="v = x/t&lt;br&gt;&lt;br&gt;v = (20-10)/5&lt;br&gt;&lt;br&gt;v = 2 metre/second" style="text;html=1;strokeColor=none;fillColor=none;align=center;verticalAlign=middle;whiteSpace=wrap;rounded=0;" vertex="1" parent="1">
          <mxGeometry x="130" y="2820" width="170" height="110" as="geometry" />
        </mxCell>
        <mxCell id="vVD12n-NJjttuo7cWdmi-106" value="INFORMATION = &quot;someone&quot; neferi, &quot;me&quot; ye dogru, &lt;b&gt;kosuyor&lt;/b&gt; (running)" style="text;html=1;strokeColor=#b85450;fillColor=#f8cecc;align=center;verticalAlign=middle;whiteSpace=wrap;rounded=0;" vertex="1" parent="1">
          <mxGeometry x="97.5" y="2940" width="400" height="30" as="geometry" />
        </mxCell>
        <mxCell id="vVD12n-NJjttuo7cWdmi-123" value="" style="shape=image;verticalLabelPosition=bottom;labelBackgroundColor=default;verticalAlign=top;aspect=fixed;imageAspect=0;image=data:image/png,iVBORw0KGgoAAAANSUhEUgAABEAAAAK3CAYAAACFuDrUAAAABHNCSVQICAgIfAhkiAAAIABJREFUeF7s3QuUpVV9IPqNoMirQwSCkEYTTexAHr7IFTI6GVTwXkXWZGQ0CbPG4NXAeGddfJFJMsJEcJyZhUpYd6IijI97BUQhsng4S5QYNaNgQCBg82we3U13F/2kqqu7qru6+37/0/0Vp6rOOXVO1zl1vsdvr9VL6vv2t7+9f/vrrNS//3vvA/ZkJSkECBAgQIAAAQIECBAgQIAAgQoLvKDCYzM0AgQIECBAgAABAgQIECBAgEBDQADEh0CAAAECBAgQIECAAAECBAhUXkAApPJTbIAECBAgQIAAAQIECBAgQICAAIhvgAABAgQIECBAgAABAgQIEKi8gABI5afYAAkQIECAAAECBAgQIECAAAEBEN8AAQIECBAgQIAAAQIECBAgUHkBAZDKT7EBEiBAgAABAgQIECBAgAABAgIgvgECBAgQIECAAAECBAgQIECg8gICIJWfYgMkQIAAAQIECBAgQIAAAQIEBEB8AwQIECBAgAABAgQIECBAgEDlBQRAKj/FBkiAAAECBAgQIECAAAECBAgIgPgGCBAgQIAAAQIECBAgQIAAgcoLCIBUfooNkAABAgQIECBAgAABAgQIEBAA8Q0QIECAAAECBAgQIECAAAEClRcQAKn8FBsgAQIECBAgQIAAAQIECBAgIADiGyBAgAABAgQIECBAgAABAgQqLyAAUvkpNkACBAgQIECAAAECBAgQIEBAAMQ3QIAAAQIECBAgQIAAAQIECFReQACk8lNsgAQIECBAgAABAgQIECBAgIAAiG+AAAECBAgQIECAAAECBAgQqLyAAEjlp9gACRAgQIAAAQIECBAgQIAAAQEQ3wABAgQIECBAgAABAgQIECBQeQEBkMpPsQESIECAAAECBAgQIECAAAECAiC+AQIECBAgQIAAAQIECBAgQKDyAgIglZ9iAyRAgAABAgQIECBAgAABAgQEQHwDBAgQIECAAAECBAgQIECAQOUFBEAqP8UGSIAAAQIECBAgQIAAAQIECAiA+AYIECBAgAABAgQIECBAgACBygsIgFR+ig2QAAECBAgQIECAAAECBAgQEADxDRAgQIAAAQIECBAgQIAAAQKVFxAAqfwUGyABAgQIECBAgAABAgQIECAgAOIbIECAAAECBAgQIECAAAECBCovIABS+Sk2QAIECBAgQIAAAQIECBAgQEAAxDdAgAABAgQIECBAgAABAgQIVF5AAKTyU2yABAgQIECAAAECBAgQIECAgACIb4AAAQIECBAgQIAAAQIECBCovIAASOWn2AAJECBAgAABAgQIECBAgAABARDfAAECBAgQIECAAAECBAgQIFB5AQGQyk+xARIgQIAAAQIECBAgQIAAAQICIL4BAgQIECBAgAABAgQIECBAoPICAiCVn2IDJECAAAECBAgQIECAAAECBARAfAMECBAgQIAAAQIECBAgQIBA5QUEQCo/xQZIgAABAgQIECBAgAABAgQICID4BggQIECAAAECBAgQIECAAIHKCwiAVH6KDZAAAQIECBAgQIAAAQIECBAQAPENECBAgAABAgQIECBAgAABApUXEACp/BQbIAECBAgQIECAAAECBAgQICAA4hsgQIAAAQIECBAgQIAAAQIEKi8gAFL5KTZAAgQIECBAgAABAgQIECBAQADEN0CAAAECBAgQIECAAAECBAhUXkAApPJTbIAECBAgQIAAAQIECBAgQICAAIhvgAABAgQIECBAgAABAgQIEKi8gABI5afYAAkQIECAAAECBAgQIECAAAEBEN8AAQIECBAgQIAAAQIECBAgUHkBAZDKT7EBEiBAgAABAgQIECBAgAABAgIgvgECBAgQIECAAAECBAgQIECg8gICIJWfYgMkQIAAAQIECBAgQIAAAQIEBEB8AwQIECBAgAABAgQIECBAgEDlBQRAKj/FBkiAAAECBAgQIECAAAECBAgIgPgGCBAgQIAAAQIECBAgQIAAgcoLCIBUfooNkAABAgQIECBAgAABAgQIEBAA8Q0QIECAAAECBAgQIECAAAEClRcQAKn8FBsgAQIECBAgQIAAAQIECBAgIADiGyBAgAABAgQIECBAgAABAgQqLyAAUvkpNkACBAgQIECAAAECBAgQIEBAAMQ3QIAAAQIECBAgQIAAAQIECFReQACk8lNsgAQIECBAgAABAgQIECBAgIAAiG+AAAECBAgQIECAAAECBAgQqLyAAEjlp9gACRAgQIAAAQIECBAgQIAAAQEQ3wABAgQIECBAgAABAgQIECBQeQEBkMpPsQESIECAAAECBAgQIECAAAECAiC+AQIECBAgQIAAAQIECBAgQKDyAgIglZ9iAyRAgAABAgQIECBAgAABAgQEQHwDBAgQIECAAAECBAgQIECAQOUFBEAqP8UGSIAAAQIECBAgQIAAAQIECAiA+AYIECBAgAABAgQIECBAgACBygscVPkRGiABAgQIEBiSwOjotnTXPY+l1Ws2ptGxbWnJEYemE5ctTaec/Kque7T8kdXTz56UPat0L9AP/zvvfjQ91DQHp5/26rT0+KO674SaMwSaPePGSctOaPyd6GSa/x3ohrKXv1vdtKcOAQIECFRL4IA9WanWkIyGAAECBAgMVyB+8b70099Mt3//vkbwYnaJX/YuOP+d6eyzTp19a/rnCJpc8YVb0w03/7hxLX6xu+7qj7at78bzAuF/xZVh95P99o9f1C+8+CuN4NXscvZZv5fN35kdf2mf/Uzdf/7SNXc0vudWfx/CppPpm97+ly3noZXpk/dd2eqyawQIECBAoCEgAOJDIECAAAECfRSIf63+o/d/ZsYvehHwiD+z/yU7MjquvPyDM36Rnh34yLsmANLdJIXxeR/+3IxfmHvxj7dE8CPmMC8xT5G90zx/0eZtX/94WrLk0O46VtNaEYw67yOfb5jmJSyXHv+Sxo9hmpcwvfjC96TIsmku3QZA4vkffftTM571AwECBAgQaBYQAPE9ECBAgACBPglE8OId7/nk9JKV953zlnTuH795xi/JswMc8cv1dVd9tFEnfhl8x3sune5N/KIYJf7VXABk/klaqH/+hvwX7viF+rJL/mTGkqXIYvjrL9zSqBq/rJ97zpvn71iNa8T3nAc5zjjtNZnXW2Z4RoDk9r+/P8sOuWU6aHXb9RdlS2O6W+513oc/38i0ir8rt13/cVk5Nf7WDJ0AAQLdCNgEtRsldQgQIECAQBcCeeZHIzsg+2UslknMzhDY+0v1e9OHsiUwUeKXwy9f+3eN/84zDeKXubj/o9v+c/aL3SFdvFmVEGj2j+VCvfpHG5GpkC97iWVKs/eUaLS5LzB1592PgO8gEIGiPPgR3/OVl/+7OZ7x9yOWgsV8xd+NKJHBE4GR+Uq0H8GPKNF2/vx8z7lPgAABAvUVEACp79wbOQECBAj0UeDGbL+J5l+c5/tlLH6Rjn0PosT+CPkvfPGL3P0/urzlL+997G7lmprtP18GQTv/PNMmsnfa7dGSt91uP4vK4e7HgOJ7jjmJku/v0amZPNsm6sTfoxtvubNT9cbfmcjGiRKZOLMDVR0fdpMAAQIEaisgAFLbqTdwAgQIEOinQL5Zafwi1+4X59nvi+UAUeIX6fwXPr/IzVbq7ud++cfbYg4uuvDdbV+cB7ryTJC2FWt8Iz/9KAjy73w+jnDPv//bv39v2+r5MrKoEJklliG1pXKDAAECBGYJCID4JAgQIECAQB8Emvc56La5yCTIM0WWP7Kq28fUayGwWP6x7CIPgJye7WmhtBbIlwdFkGi+bJzmFs447bWNH5s3TW2+H/bNmwxHoOTCi7/a9SkxrXvrKgECBAjURUAApC4zbZwECBAgMFCBfDnESctO6Ok9eQBk9ZoNPT2n8kyB3H/p8Uf3RNOLfxyrmy+7iEyFbjN9eupQRSqPjm1vjKSX4EfUb97zJg80zSaJ6xFYiT8R+Irsn9i49rvfv392VT8TIECAAIEZAgfxIECAAAECBPonkP/i19xi7IcwunXvL4RLDj9kzsao/Xu7lloJ9MM/gh8XXvyVRvPN+1W0ep9rzwu02yelObgx3345zZ5Rt/mUmMgUiXmJ9j6W/W9j42BHE/sECRAgQKCNgAyQNjAuEyBAgACBXgTy/SBaZXLEL2TxS1r8K/Wb3vEfZ6Tr50s3es0c6aVvdajbKZOjk3/+i3gn/1j2kgc/GscWN51YUgfb/Rljnsmxes2mlo/H6S2Nvw/Zny9fs/cUpKiYLwWLv0/tAiPNWSWRiRNHFUdp3kun5UtdJECAAIHaCwiA1P4TAECAAAEC/RA4Y99+EJEp0Kpc+dm9x3TGL2mNPQyyrJD41+v8X8hPOXlZq8dc61Ig9wv/VkeotvPPAyAntlm6FMGPfNlLI/hx1fPHtXbZtVpWy/dHie+71X4eccpOfhT0JZddP10nP9a2l6UzEQTpFACr5QQYNAECBAi0FBAAacniIgECBAgQ6E3gXWed2nggfuFr/hftvJXIQsgzB+KX7vM+8vl0afaLX5T45e30017d2wvVniEww//a5zMKuvVvtZ9Hc/AjfsmO4IflFd19eM1Bifw7n/1k81HE533486l5g9l37TsiOv6uxCankSnSKrCVt9lq6dns9/mZAAECBAgIgPgGCBAgQIBAHwSaj/CMf9FuFQSJQMeVl3+wsXlj/Kt4vvzlguwoT2VhAs3+8Yv0Qv2bgx9nZ7+MR/BK8KO3Ocq/6/jOI4jRqlx2yXsbG6VG4DDPtIm/J80BqdjkNAIhV1x5a6smZmRStcvkafmgiwQIECBQO4ED/yortRu1ARMgQIAAgQEIxDKM72Z7G8S/Rv/gxz9Pz2T7HzROq8g2Pj344Bc2/gX7rnseTfc+8ESjTpRYOvMfLviDtr358jV3NOru/aXw99rWcyOlbv1XPLU2rd842tZ/9rKX89/3vzd+AW/1p90+FeYjToA5IY1l3+69DzzZ2Nvjxmx5Un56S/xv/H2Iexs2js3Y++Nv/78/b9SLEv97VxYsDPuoGyVO+snv55ug5n9HPr1vPxD+BAgQIECglcABe7LS6oZrBAgQIECAQO8C8Yta7PGR7y3RTQuRXRAZDK1KpP5HW40lGFk9pbPAQv3jKNU//fDnOr+k6e6T913Zdd26VozMjggqdVtif5CLLnz3dPUIlLzjDz854+9UBJ4i6JHvoRMBkfj70cveId32Rz0CBAgQqI6AJTDVmUsjIUCAAIECCMQvZj/69qcaJ1O0yw7Igxn5JpCx/0EvAZMCDLOwXViof7tjWws74BJ0LPb6iKNr842CZ3c55iz+LkSdCGR8Kct6al7ClO+fE0uR8hJ/X57fQHhvcFDwY7asnwkQIEBgtoAMkNkifiZAgAABAn0UyJdNPJP9whb7Eyw97iX2kuij73xN8Z9PaHHvRzbH8kdXN5bGRDkx2/+jXaCwVc/y5+PvU5Q3NJ0A06q+awQIECBAoFlAAMT3QIAAAQIECBAgQIAAAQIECFRewBKYyk+xARIgQIAAAQIECBAgQIAAAQICIL4BAgQIECBAgAABAgQIECBAoPICAiCVn2IDJECAAAECBAgQIECAAAECBARAfAMECBAgQIAAAQIECBAgQIBA5QUEQCo/xQZIgAABAgQIECBAgAABAgQICID4BggQIECAAAECBAgQIECAAIHKCwiAVH6KDZAAAQIECBAgQIAAAQIECBAQAPENECBAgAABAgQIECBAgAABApUXEACp/BQbIAECBAgQIECAAAECBAgQICAA4hsgQIAAAQIECBAgQIAAAQIEKi8gAFL5KTZAAgQIECBAgAABAgQIECBAQADEN0CAAAECBAgQIECAAAECBAhUXkAApPJTbIAECBAgQIAAAQIECBAgQICAAIhvgAABAgQIECBAgAABAgQIEKi8gABI5afYAAkQIECAAAECBAgQIECAAAEBEN8AAQIECBAgQIAAAQIECBAgUHkBAZDKT7EBEiBAgAABAgQIECBAgAABAgIgvgECBAgQIECAAAECBAgQIECg8gICIJWfYgMkQIAAAQIECBAgQIAAAQIEBEB8AwQIECBAgAABAgQIECBAgEDlBQRAKj/FBkiAAAECBAgQIECAAAECBAgIgPgGCBAgQIAAAQIECBAgQIAAgcoLCIBUfooNkAABAgQIECBAgAABAgQIEBAA8Q0QIECAAAECBAgQIECAAAEClRcQAKn8FBsgAQIECBAgQIAAAQIECBAgIADiGyBAgAABAgQIECBAgAABAgQqL3BQ5UdYggGuXrMxxZ+8LD3+qBR/FAIECBCorsAVX7g1XXD+mdUdoJERIECAAAECBAomIABSgAmJ/yf4hpt/PN2TD53/Tv9PcQHmRRcIECBAoB4Cyx9ZnU5atrQegy3BKO+8+9F0ysmvKkFPdZEAAQIEyiZgCUzZZkx/CRAgQIAAgb4KPPTIqr62p7GFCdyVBUAUAgQIECAwCAEBkEGoapMAAQIECBAgQIAAAQIECBAolIAASKGmQ2cIECBAgAABAgQIECBAgACBQQgIgAxCVZsECBAgQIAAAQIECBAgQIBAoQQEQAo1HTpDgAABAgQIECBAgAABAgQIDEJAAGQQqtokQIAAAQIECBAgQIAAAQIECiUgAFKo6dAZAgQIECBAgAABAgQIECBAYBACAiCDUNUmAQIECBAgQIAAAQIECBAgUCgBAZBCTYfOECBAgAABAgQIECBAgAABAoMQEAAZhKo2CRAgQIAAAQIECBAgQIAAgUIJCIAUajp0hgABAgQIECBAgAABAgQIEBiEgADIIFS1SYAAAQIECBAgQIAAAQIECBRKQACkUNOhMwQIECBAgAABAgQIECBAgMAgBARABqGqTQIECBAgQIAAAQIECBAgQKBQAgIghZoOnSFAgAABAgQIECBAgAABAgQGISAAMghVbRIgQIAAAQIECBAgQIAAAQKFEjioUL3Z15nR0W3pu39/f1q9ZmPjyknLTkgnLlualh5/1IK6e+fdjzaeX3LEoVmbSxfUlocJECBAgAABAgQIECBAgACB8ggULgDypWvuSFd84dY0OrZtjuIF55+ZPnT+O+dc7+bCjTf/JH3s4q80ql52yZ8IgHSDpg4BAgQIECBAgAABAgQIEKiIQKGWwPz1F25Jl172jengR2R8nHLyq6apIzBy4cVf3S/6aDtKtHn2WafuVxseIkCAAAECBAgQIECAAAECBMopUJgMkFjuEgGOKBGkuO7qj04veYl7ERi5/fv3pRtu/nE647TXpNNPe3XX4pFVki+niewPhQABAgQIECBAgAABAgQIEKiXQGEyQPLgR/A3Bz/i5wiIXPaJ904HRL50zfe6nqUIfHw5C4BEiWyS5oySrhtRkQABAgQIECBAgAABAgQIECi1QGECIJHZEeXss36v5WanS5Ycmt53zlsbdWIz0+WPrO4KPtqV/dEVlUoECBAgQIAAAQIECBAgQKCyAoUIgOSns4RyLG9pV5qXvTz0yKp21aavNy+raRdYmbcRFQgQIECAAAECBAgQIECAAIHSCxRiD5Bn9h13G5q/3OGo2+ZjcJdnAZB3pc6bmTYvq4kTZPIS2SNxysz+HId7Q3aazI37slX6NfvdZrP0633aIUCAAAECBAgQIECAAAECdRMoRABkdGz7tPuSIw7pOAcRBInMjuZnWj0Qddotq7n0susby2hiP5DYb6SXEs80B2J6ebZd3dijJDZ4VQgQIECAAAECBAgQIECAAIHBCBQiANLL0OYLfORttcv+6OVdrepG8KPfAZAbs6wShQABAgQIECBAgAABAgQIEBicQCH2AJkv66N5+LF0JUqnIESn7I/BUWqZAAECBAgQIECAAAECBAgQKKpAITJATlx2wrTPXdnSlKVntd7bo3mvjJOanpmN25z9sXrNhnThxV+dUSU/FSbai3sRgLnownfPbsbPBAgQIECAQEUExnZPpY27ptKW+N+dk2l0KvvvPbsao7vm2afTlx55QTr2hQengw84IC056EXp1w4+NB39ohenX3vRIemXsv89NrumECBAgAABAuUWKEQA5KRlSxsbkkZ2R+zb8a42AZDmzUdPzJ5pV+68+5HpW3tPmHm0ZdX8fZFNIgDSkshFAgQIECBQSoFnd+1Ma6Ym0+rt42l19t+Te3bPO46RLDDSKDsm0oPbRmfUj+DIy7NAyBuPPCb91ouPEBCZV1MFAgQIECBQPIFCBECC5X3nvCX99RduaWxOmm9Q2swVWRv5RqHzbUQaR+l22isk2ongRwQ+Tjl5WSMDRCFAgAABAgTKLRABj8d3bE8rJrel0Szbo58lgiPx56fjzzWafVkWDHndYUems15ynGBIP6G1RYAAAQIEBihQmADIuX/85vSl7DSUCExcePFX0gXnvzOdvS8TJAIicS1funLZJX8yTRLPxJKXCIpc9on3piVLDp03m2P1+zc0giwRALnskvcOkFfTBAgQIECAwCAFJvfsST+bGE1PbBtPG/b0N+jRqd8rsyyRlTvWpZs2r2sEQ84+Zml6y+FHdXrEPQIECBAgQGDIAoUJgETg4tNZYONPP/y5RqAjAh7xZ3b5UBYYad4ANZbFRNAksjrOzbJIIhCiECBAgAABAtUWGN29K903MZaWb9/a1fKWQWpEMOSzzzyernnhqvTbhxyR/viYE2SFDBJc2wQIECBAYD8FCnEKTN730097dfrRtz+VYk+Q2SWCHl+8/INZZsiZM26dcdprGz8P4nja2X3wMwECBAgQIDBcgQh83LF1Y/rypmfSvdk+Hd3s7bFYPY4lMt8b3ZDet+LedPnaFWlkasdivdp7CBAgQIAAgS4ECpMBkvc1Ahm3XX9RIwsk/oyNbU+/nF1rFRSJZyIgEpumLjn8kMbyl27KdVd/tJtq6hAgQIAAAQIFEciXuuR7cBSkW227EYGQu7ZuTu98yfHpnKOOb1vPDQIECBAgQGDxBAoXAMmH3ktGR/OSmMWj8yYCBAgQIEBgMQTum9ya7ty6pVDZHt2MeyzLVrl2w6p0x3PPpnN+6QR7hHSDpg4BAgQIEBigQGEDIAMcs6YJECBAgACBEgg0lrtkmRQrs9NdylxiaUzsEfJPS7bYH6TME6nvBAgQIFB6AQGQ0k+hARAgQIAAgeoJlDXro9NMxLKYB7aPyQbphOQeAQIECBAYoIAAyABxNU2AAAECBAj0JlCVrI92o5YN0k7GdQIECBAgMHiBQp0CM/jhegMBAgQIECBQVIE12VKXG58bKf2Sl258IxvkL1Yud1JMN1jqECBAgACBPgkIgPQJUjMECBAgQIDA/gvEkpdvbhlJo7um9r+Rkj0Z2SAXPPlP6VvZuBUCBAgQIEBg8AKWwAze2BsIECBAgACBDgI/3LYl3btttEON6t6Kk2KuHnkqbdu1y3G51Z1mIyNAgACBgggIgBRkInSDAAECBAjUTWByz550w6a1acOe+mR9tJvjOC732R3b04ePe2W7Kq4TIECAAAECCxSwBGaBgB4nQIAAAQIEeheIzU6v3SL40SwX+4L8uyfvT+N7dvUO6gkCBAgQIEBgXgEBkHmJVCBAgAABAgT6KRDBj9jstE77fXTrt3LHRPrYUw/aHLVbMPUIECBAgEAPAgIgPWCpSoAAAQIECCxMQPBjfr8IgjghZn4nNQgQIECAQK8CAiC9iqlPgAABAgQI7JeA4Ef3bHFCjCBI915qEiBAgACBbgQEQLpRUocAAQIECBBYkIDgR+98EQT5q1UP2ROkdzpPECBAgACBlgICIC1ZXCRAgAABAgT6JSD4sf+S+Z4g+9+CJwkQIECAAIFcQADEt0CAAAECBAgMVOCWzTY8XQhwBEEuX7tiIU14lgABAgQIEMgEBEB8BgQIECBAgMDABH64bUvasGdqYO3XpeE4IveajWvqMlzjJECAAAECAxEQABkIq0YJECBAgACBn2x/Lt27bRREnwSu3bAqfWvLSJ9a0wwBAgQIEKifgABI/ebciAkQIECAwMAFlu8YTz8df27g76nbC64eeSo9tXOibsM2XgIECBAg0BcBAZC+MGqEAAECBAgQyAVi09Mfjm0GMiCBS1Y9nEamdgyodc0SIECAAIHqCgiAVHdujYwAAQIECCy6wOSePenG50bS5J7di/7uurwwjsf9rE1R6zLdxkmAAAECfRQQAOkjpqYIECBAgEDdBf5hfFMa3WXT00F/Bw9me6tc9ezTg36N9gkQIECAQKUEBEAqNZ0GQ4AAAQIEhidw3+TW9ODE+PA6ULM337R5XXrAJrM1m3XDJUCAAIGFCAiALETPswQIECBAgEBDIPb9uHPrFhqLLHD5uifS+J5di/xWryNAgAABAuUUEAAp57zpNQECBAgQKJSAfT+GMx2xH8inn3lsOC/3VgIECBAgUDIBAZCSTZjuEiBAgACBogn8ZPtz9v0Y4qTEccPf2jIyxB54NQECBAgQKIeAAEg55kkvCRAgQIBAIQVi6Uv8Aq4MV+D69ascjTvcKfB2AgQIECiBgABICSZJFwkQIECAQFEFYumLMnyBsSwQ5Wjc4c+DHhAgQIBAsQUEQIo9P3pHgAABAgQKK2DpS7GmJo7GjTlRCBAgQIAAgdYCAiCtXVwlQIAAAQIEOghY+tIBZ4i3rlj9mFNhhujv1QQIECBQbAEBkGLPj94RIECAAIFCCtwxuqGQ/ap7p2IpzLXrV9edwfgJECBAgEBLAQGQliwuEiBAgAABAu0Elu8YTyunJtvddn3IAjdtXpceyJbDKAQIECBAgMBMAQEQXwQBAgQIECDQtUAsfbnLqS9dew2r4uXrnrAUZlj43kuAAAEChRUQACns1OgYAQIECBAonsA/btuSRndNFa9jejRDYGTnZLppkxN6fBYECBAgQKBZQADE90CAAAECBAh0JbAmW/by4MR4V3VVGr7AtRtWpZFqxDC0AAAgAElEQVSpHcPviB4QIECAAIGCCAiAFGQidIMAAQIECBRd4DtjG4veRf2bJfDZtSuYECBAgAABAvsEBEB8CgQIECBAgMC8Aj/Z/pylL/MqFa/Cg9lmqHdsFbgq3szoEQECBAgMQ0AAZBjq3kmAAAECBEokEBuf/tTGpyWasZldvWrtkzZELe3s6TgBAgQI9FNAAKSfmtoiQIAAAQIVFIiNT5XyCoxlAaxr168u7wD0nAABAgQI9ElAAKRPkJohQIAAAQJVFFi+Y9zGpxWY2Js2r0sPZMthFAIECBAgUGcBAZA6z76xEyBAgACBeQTusvRlHqHy3P7axmfK01k9JUCAAAECAxAQABkAqiYJECBAgEAVBGx8WoVZfH4MsSHqt7aMVGtQRkOAAAECBHoQEADpAUtVAgQIECBQFwEbn1Zzpq9fv8qGqNWcWqMiQIAAgS4EBEC6QFKFAAECBAjUTcDGp9WccRuiVnNejYoAAQIEuhMQAOnOSS0CBAgQIFAbARufVnuqbYha7fk1OgIECBBoLyAA0t7GHQIECBAgUEsBG59Wf9ptiFr9OTZCAgQIEJgrIAAy18QVAgQIECBQWwEbn9Zj6mND1Du2bqzHYI2SAAECBAjsExAA8SkQIECAAAECDQEbn9brQ7hq7ZM2RK3XlBstAQIEai8gAFL7TwAAAQIECBDYK2Dj03p9CbEh6k2bHItbr1k3WgIECNRbQACk3vNv9AQIECBAoCGwZmoyPTgxTqNmAtduWJVGpnbUbNSGS4AAAQJ1FRAAqevMGzcBAgQIEGgS+M6Y/SDq+kF8du2Kug7duAkQIECgZgICIDWbcMMlQIAAAQKzBeLY29FdU7Mv+7kmArEh6gPZH4UAAQIECFRdQACk6jNsfAQIECBAoINAbHzq2NsOQDW5dfm6J2oyUsMkQIAAgToLCIDUefaNnQABAgRqLxAbn8r+qP1nkEZ2TqZrNq4BQYAAAQIEKi0gAFLp6TU4AgQIECDQXiCyP2x82t6nbndu2bTGsbh1m3TjJUCAQM0EBEBqNuGGS4AAAQIEcoEfjm6AQWBaII7FvXb9aiIECBAgQKCyAgIglZ1aAyNAgAABAu0FYuPTFdnRtwqBZoGbNq+zIapPggABAgQqKyAAUtmpNTACBAgQINBewMan7W3qfudrG5+pO4HxEyBAgEBFBQRAKjqxhkWAAAECBNoJ3De51can7XBcT47F9REQIECAQFUFBECqOrPGRYAAAQIEWgjExqf3bhttccclAs8LxLG443t2ISFAgAABApUSEACp1HQaDAECBAgQ6Czg2NvOPu7uFYhjcW/aNIKDAAECBAhUSkAApFLTaTAECBAgQKC9gGNv29u4M1fAsbhzTVwhQIAAgXILCICUe/70ngABAgQIdC0Q2R8KgW4FHIvbrZR6BAgQIFAWAQGQssyUfhIgQIAAgQUIxLG3D06ML6AFj9ZRII7FfWrnRB2HbswECBAgUEEBAZAKTqohESBAgACB2QKOvZ0t4uduBT6/7sluq6pHgAABAgQKLSAAUujp0TkCBAgQILBwgcj+GN01tfCGtFBLAcfi1nLaDZoAAQKVFBAAqeS0GhQBAgQIENgrEBufyv7wNSxU4HMjskAWauh5AgQIEBi+gADI8OdADwgQIECAwMAEfj65VfbHwHTr0/DKHRPpW1sci1ufGTdSAgQIVFNAAKSa82pUBAgQIEAgRfbHT8efI0GgLwLXr1+Vxvfs6ktbGiFAgAABAsMQEAAZhrp3EiBAgACBRRBw7O0iINfoFXEs7k2bZIHUaMoNlQABApUTEACp3JQaEAECBAgQSI3sD8fe+hL6LXDLpjVpZGpHv5vVHgECBAgQWBQBAZBFYfYSAgQIECCwuAJ3jG5Y3Bd6Wy0EIgvk2mwpjEKAAAECBMooIABSxlnTZwIECBAg0EEgjr1dOTXZoYZbBPZf4HtZcO2BbaP734AnCRAgQIDAkAQEQIYE77UECBAgQGBQAo69HZSsdnOBr218BgYBAgQIECidgABI6aZMhwkQIECAQHuByP4Y3TXVvoI7BPog8GCWASILpA+QmiBAgACBRRUQAFlUbi8jQIAAAQKDE4iNT2V/DM5XyzMFLl/3BBICBAgQIFAqAQGQUk2XzhIgQIAAgfYCP5/cKvujPY87fRYY2TmZvrXFsbh9ZtUcAQIECAxQQABkgLiaJkCAAAECiyUQ2R8/HX9usV7nPQQaAtdnJ8KM79lFgwABAgQIlEJAAKQU06STBAgQIECgs8A/btvSuYK7BAYgEMfi3rRJFsgAaDVJgAABAgMQEAAZAKomCRAgQIDAYgpE9seDE+OL+UrvIjAtcMumNbJAfA8ECBAgUAoBAZBSTJNOEiBAgACB9gKyP9rbuDN4gcgCuXb96sG/yBsIECBAgMACBQRAFgjocQIECBAgMEyBNVOTsj+GOQHe3RC4afO6NDK1gwYBAgQIECi0gABIoadH5wgQIECAQGeB74xt7FzBXQKLJPDZtSsW6U1eQ4AAAQIE9k9AAGT/3DxFgAABAgSGLrB8x7hjb4c+CzqQCzy4bTQ9kP1RCBAgQIBAUQUEQIo6M/pFgAABAgTmEbjLsbfzCLm92AJf2/jMYr/S+wgQIECAQNcCAiBdU6lIgAABAgSKIyD7ozhzoSfPC8gC8TUQIECAQJEFBECKPDv6RoAAAQIEWgjEsbeyP1rAuFQIgcvXPVGIfugEAQIECBCYLSAAMlvEzwQIECBAoOACP5/cau+Pgs9Rnbs3snMyfWvLSJ0JjJ0AAQIECiogAFLQidEtAgQIECDQSiCyP35q749WNK4VSOD69avS+J5dBeqRrhAgQIAAgZQEQHwFBAgQIECgRAL/uG1LiXqrq3UVGMsCdTdtkgVS1/k3bgIECBRV4KAiduzOux9NX77mjrT8kVWN7i09/qj0hpNflc4+6/ca/z1fGR3dli799Dfnq9a4f9KyE9K557y5q7oqESBAgACBYQpE9seDE+PD7IJ3E+ha4JZNa9K/fMmx6bADDuz6GRUJECBAgMAgBQoVAInAxYX/6avp9u/fN2PMq9dsTBEUufHmn6QrL/9gFrRY2tFkdOv2dMPNP+5YJ795ShZYEQDpikolAgQIEBiygOyPIU+A1/ckkGeBnHPU8T09pzIBAgQIEBiUQKECIJG1kQc/IjBxxmmvTUuOOKQR/IiARgRC/uj9n0m3Xf/xjpkgSw4/pJEt0q7EO0bHtjVun3LysnbVXCdAgAABAoURkP1RmKnQkR4EIgvkrb9wdDr2oBf18JSqBAgQIEBgMAKFCYDkQY4Y5vvOeUu66MJ3T4/4XWedmmVpvCW94z2XNgIXF178lXTd1R9tK7JkyaHpskve2/L+d79//3R2yIfOf2e64PwzW9ZzkQABAgQIFEngjtENReqOvhDoSiCyQK7NNkT98HGv7Kq+SgQIECBAYJAChdkENfb8iBJ7fFxw3tygRCx7iYBFlAiWxHKZXktkkHwsC55EiSCL4EevguoTIECAwDAElu8YTyunJofxau8ksGCB72XBuwe2jS64HQ0QIECAAIGFChQmAPL80pdlKTI4WpXYCDUv3/37+1tVaXstXz4TGSRnnPaaGRkmbR9ygwABAgQIFEDgLsfeFmAWdGEhAl/b+MxCHvcsAQIECBDoi0AhlsAsf2T19GAiONGuxL4gS444tLEMJk6IeVc6tV3VOdfP+/DnGnuIROm0P8icB2ddiMyT2GS1nyXfj6SfbWqLAAECBKohENkfo7umqjEYo6itwINZBkhkgfz2oUtqa2DgBAgQIDB8gUIEQJoDAEdkm552KrEpatTPgxmd6ub34vSY5iDLn2bBkMZSm2xJzdnZ/iK9lBtvuTN96Zrv9fLIvHVHx/obUJn3hSoQIECAQGkEZH+UZqp0dB6ByAL5bwIg8yi5TYAAAQKDFChEAOSZfZkZ3Qw0AiBResma+OUs2BHZI3HiSzwXy20igBKbqY5lwYdejsGNur3U72ZMF1781a6P7e2mPXUIECBAoBoCsj+qMY9GsVdAFogvgQABAgSGLVCIPUBiWUu3Jc+W6OWZCH7EqTGx6WmcLhP/HZuqRvnrL9zS7avVI0CAAAECiyYQx97K/lg0bi9aJAF7gSwStNcQIECAQEuBQgRAIkMjL/Nlg+QBkFjCsr8lnr3owvc0Ht+7n8jze5Dsb5ueI0CAAAEC/RT4+eRWe3/0E1RbhRCILJA7tu7dk60QHdIJAgQIEKiVQCECIEuPe0ljc9MosblpuxL7eORLX05cdkK7ao3rscQljsttV5oDKA91eGe7510nQIAAAQKDEojsj4cnxgfVvHYJDFXgmmfb//96Q+2YlxMgQIBA5QUKEQCJY2/zJSk3ZBuWxkkrrcqXr7lj+nIsa2lXrvjCrelNb//LdN6HP9+2reZNVJszUNq16ToBAgQIEFgsgX/ctkX2x2Jhe8+iC4zsnEzXbFyz6O/1QgIECBAgUIgASExDnMgSJTI8rrjy1jkzE9kfN9z848b1OMa2OYMjMj2aAxpv2BccaddWtHHFvr0/op1OwZQ5HXGBAAECBAgMUCCyPx6U/TFAYU0XQeCWTWvS+J5dReiKPhAgQIBAjQQKcQpMeEcQIgIbEeT4UpbpESe1vO+ct2ZLYw5pLIuJa1H2Hl975vQUXXrZN6bvxeame097mdnWnXc/kp3c8tbGsw81Ain/a/pY3HinQoAAAQIEiiIQ2R8KgaoLjGWBvps2jaRzjjq+6kM1PgIECBAokEBhAiBhctHH/nWDJoIgkdFxyWXXz6CKAMaVl39wRvZHc+ZHHGmbl+a2InskjrydXT6UZZ3EyTAKAQIECBAogoDsjyLMgj4slkBkgfzLlxybDjvgwMV6pfcQIECAQM0FChUAib1ALrvkvSmWsHw3ywDJN0SNLJAzTnttOveP35yiTnOJpTOx1OWkbFPU00979fStVm1FsCSCKFH33HPeYulLzT9+wydAgEDRBGR/FG1G9GeQArJABqmrbQIECBBoJVCoAEjewbPPOjVbDnNqq/7OuRabp8bSl3all7bateE6AQIECBAYtIDsj0ELa7+IArJAijgr+kSAAIHqChRmE9TqEhsZAQIECBCYX+CO0Q3zV1KDQMUEIgvk2vWrKzYqwyFAgACBogoIgBR1ZvSLAAECBGojsGZqMq3M/igE6ihw0+Z1aWRqRx2HbswECBAgsMgCAiCLDO51BAgQIEBgtsB3xjbOvuRnArUSuHb9qlqN12AJECBAYDgCAiDDcfdWAgQIECDQEFi+YzyN7pqiQaDWAt/LloA9sG201gYGT4AAAQKDFxAAGbyxNxAgQIAAgbYCd40/1/aeGwTqJPC1jc/UabjGSoAAAQJDEBAAGQK6VxIgQIAAgRCQ/eE7IPC8wINZBogsEF8EAQIECAxSQABkkLraJkCAAAECHQRkf3TAcauWArJAajntBk2AAIFFEzho0d7kRQQIECBAgMC0wHOx74e9P3wRBGYIRBbIYf5e+CoIECBAYEACMkAGBKtZAgQIECBAgACB3gVuzY7FHdttY+De5TxBgAABAvMJCIDMJ+Q+AQIECBDos8Dknj1pZNdkn1vVHIFqCIxnGSBf32BD1GrMplEQIECgWAICIMWaD70hQIAAgRoIPJQdfasQINBe4Lr1q2SBtOdxhwABAgT2U0AAZD/hPEaAAAECBPZHYHT3rjRqj4P9ofNMjQTGZIHUaLYNlQABAosnIACyeNbeRIAAAQIE0hM7t1MgQKALAVkgXSCpQoAAAQI9CQiA9MSlMgECBAgQ2H8B2R/7b+fJ+gnIAqnfnBsxAQIEBi0gADJoYe0TIECAAIF9ArI/fAoEehOQBdKbl9oECBAg0FlAAKSzj7sECBAgQKAvAiNTO+z90RdJjdRJQBZInWbbWAkQIDB4AQGQwRt7AwECBAgQSE9PTVAgQGA/BGSB7AeaRwgQIECgpYAASEsWFwkQIECAQP8EIvtjYvfu/jWoJQI1EpAFUqPJNlQCBAgMWEAAZMDAmidAgAABArI/fAMEFiYgC2Rhfp4mQIAAgb0CAiC+BAIECBAgMEAB2R8DxNV0bQRkgdRmqg2UAAECAxUQABkor8YJECBAoO4Csj/q/gUYf78EZIH0S1I7BAgQqK+AAEh9597ICRAgQGDAArI/Bgys+VoJyAKp1XQbLAECBAYiIAAyEFaNEiBAgACB5OQXHwGBPgt8cd2Tac3UZJ9b1RwBAgQI1EVAAKQuM22cBAgQILCoArI/FpXby2okcFUWBFEIECBAgMD+CAiA7I+aZwgQIECAwDwC9v6YB8htAvspcOumdbJA9tPOYwQIEKi7gABI3b8A4ydAgACBvgvI/ug7qQYJzBCQBeKDIECAAIH9ERAA2R81zxAgQIAAgQ4Csj864LhFoA8CskD6gKgJAgQI1FBAAKSGk27IBAgQIDA4Adkfg7PVMoFmAVkgvgcCBAgQ6FVAAKRXMfUJECBAgEAHAdkfHXDcItBHAVkgfcTUFAECBGoiIABSk4k2TAIECBAYvIDsj8EbewOBZgFZIL4HAgQIEOhFQACkFy11CRAgQIBABwHZHx1w3CIwAAFZIANA1SQBAgQqLCAAUuHJNTQCBAgQWDwB2R+LZ+1NBJoFZIH4HggQIECgWwEBkG6l1CNAgAABAh0EZH90wHGLwAAFZIEMEFfTBAgQqJiAAEjFJtRwCBAgQGDxBWR/LL65NxJoFpAF4nsgQIAAgW4EBEC6UVKHAAECBAh0EJD90QHHLQKLICALZBGQvYIAAQIVEBAAqcAkGgIBAgQIDE9A9sfw7L2ZQLOALBDfAwECBAjMJyAAMp+Q+wQIECBAoIOA7I8OOG4RWEQBWSCLiO1VBAgQKKmAAEhJJ063CRAgQGD4ArI/hj8HekCgWUAWiO+BAAECBDoJCIB00nGPAAECBAh0EJD90QHHLQJDEJAFMgR0ryRAgECJBARASjRZukqAAAECxRGQ/VGcudATAs0CskB8DwQIECDQTkAApJ2M6wQIECBAoIOA7I8OOG4RGKKALJAh4ns1AQIECi4gAFLwCdI9AgQIECiegOyP4s2JHhFoFpAF4nsgQIAAgVYCAiCtVFwjQIAAAQIdBGR/dMBxi0ABBGSBFGASdIEAAQIFFBAAKeCk6BIBAgQIFFdA9kdx50bPCDQLyALxPRAgQIDAbAEBkNkifiZAgAABAh0EZH90wHGLQIEEZIEUaDJ0hQABAgUREAApyEToBgECBAgUX0D2R/HnSA8JNAvctmkdEAIECBAgMC0gAOJjIECAAAECXQrI/ugSSjUCBRG4bv2qNLZ7qiC90Q0CBAgQGLaAAMiwZ8D7CRAgQKAUArI/SjFNOklghsDYrqn09Q3PUCFAgAABAg0BARAfAgECBAgQ6EJA9kcXSKoQKKCALJACToouESBAYEgCAiBDgvdaAgQIECiPgOyP8syVnhKYLSALZLaInwkQIFBfAQGQ+s69kRMgQIBAlwKyP7qEUo1AQQVkgRR0YnSLAAECiywgALLI4F5HgAABAuUSkP1RrvnSWwKtBGSBtFJxjQABAvUTEACp35wbMQECBAj0ICD7owcsVQkUWEAWSIEnR9cIECCwSAICIIsE7TUECBAgUD6B0d270sTu3eXruB4TIDBHQBbIHBIXCBAgUDsBAZDaTbkBEyBAgEC3Ak/s3N5tVfUIECiBgCyQEkySLhIgQGCAAgIgA8TVNAECBAiUVyCyP0Z3TZV3AHpOgMAcAVkgc0hcIECAQK0EBEBqNd0GS4AAAQLdCsj+6FZKPQLlEpAFUq750lsCBAj0U0AApJ+a2iJAgACBSgjI/qjENBoEgZYCskBasrhIgACBWggIgNRimg2SAAECBHoRkP3Ri5a6BMonIAukfHOmxwQIEOiHgABIPxS1QYAAAQKVEZD9UZmpNBACbQVkgbSlcYMAAQKVFhAAqfT0GhwBAgQI9Cqwemqi10fUJ0CghAKyQEo4abpMgACBBQoIgCwQ0OMECBAgUB2ByT170oapndUZkJEQINBWQBZIWxo3CBAgUFkBAZDKTq2BESBAgECvAk/t3N7rI+oTIFBiAVkgJZ48XSdAgMB+CAiA7AeaRwgQIECgegKR/TEytaN6AzMiAgTaCsgCaUvjBgECBCopIABSyWk1KAIECBDoVUD2R69i6hOohoAskGrMo1EQIECgGwEBkG6U1CFAgACBSgvI/qj09BocgY4CskA68rhJgACBSgkIgFRqOg2GAAECBPZHQPbH/qh5hkB1BGSBVGcujYQAAQKdBARAOum4R4AAAQKVF5D9UfkpNkAC8wrIApmXSAUCBAhUQkAApBLTaBAECBAgsL8Csj/2V85zBKolIAukWvNpNAQIEGglIADSSsU1AgQIEKiFgOyPWkyzQRLoSiCyQH4wurGruioRIECAQDkFBEDKOW96TYAAAQJ9EJD90QdETRCokMAX1z1ZodEYCgECBAjMFhAAmS3iZwIECBCohYDsj1pMs0ES6Elg7Y6JdOuWkZ6eUZkAAQIEyiMgAFKeudJTAgQIEOijgOyPPmJqikCFBGSBVGgyDYUAAQKzBARAfBIECBAgUDsB2R+1m3IDJtC1gCyQrqlUJECAQOkEBEBKN2U6TIAAAQILFZD9sVBBzxOotsBtm9dVe4BGR4AAgZoKCIDUdOINmwABAnUVkP1R15k3bgLdC9w9tjndM76l+wfUJECAAIFSCAiAlGKadJIAAQIE+iWwdmqyX01phwCBCgtc/ezTFR6doREgQKCeAgIg9Zx3oyZAgEAtBSL749ldO2o5doMmQKA3AVkgvXmpTYAAgTIICICUYZb0kQABAgT6IhDZHxO7d/elLY0QIFB9AVkg1Z9jIyRAoF4CAiD1mm+jJUCAQK0FZH/UevoNnkDPArJAeibzAAECBAotIABS6OnROQIECBDol8DI1A7ZH/3C1A6BGgnIAqnRZBsqAQKVFxAAqfwUGyABAgQIhMDTUxMgCBAg0LOALJCeyTxAgACBwgoIgBR2anSMAAECBPolIPujX5LaIVBPAVkg9Zx3oyZAoHoCAiDVm1MjIkCAAIFZArI/fBIECCxEQBbIQvQ8S4AAgeIICIAUZy70hAABAgQGICD7YwComiRQQwFZIDWcdEMmQKByAgIglZtSAyJAgACBZgHZH74HAgT6ISALpB+K2iBAgMBwBQRAhuvv7QQIECAwQAHZHwPE1TSBGgrcunldDUdtyAQIEKiOwEFFHMqNN/8k3XDzj9PqNRsb3Vt6/FHpXWf9Xjrl5Fc1/ruXsvyR1enGrK3bv39f47ElRxySTlr2sqy9UxvtKQQIECBQXQHZH9WdWyMjMAyBWzetSx946a+m4w86eBiv904CBAgQWKBAoQIgo6Pb0nkf+Xy68+5HZwwrAiFxLYIf11390a6DIF+65o506WXfmEMUQZEIsFxw/pnpQ+e/c859FwgQIECg/AKyP8o/h0ZAoIgC169fnT583CuL2DV9IkCAAIF5BAoVAGkOfkR2xhmnvbaRsRHBjzwj5I/e/5l029c/npYsObTj0CKLJA9+LDni0PS+c97SCJyMjm1PX7rme43skiu+cGt27eh0dpYNohAgQIBAtQTW7tpRrQEZDQEChRC4ZdPa9P5jX56OeEGh/t/oQtjoBAECBIouUJj/yx0BizzzI7IyIjsjL7Fc5Q1ZQOTCi7/SCFx8+dq/m3G/FfJff+GWxuVWWSOnn/bq9I73fDILhmxrLI8RAGkl6BoBAgTKKzC6e1ca3TVV3gHoOQEChRUYy/5vy9c3PJM+8EsvL2wfdYwAAQIEWgsUZhPUyPCIEgGL5uBH3u0IUpyd7QMSJZa2xHKZTiUyR6JckAVTZu8bEj/nQY/Zy206tekeAQIECJRD4Imd28vRUb0kQKCUAtetX5XGdguylnLydJoAgVoLFCIAEsGMPBDxvnPe2nZCIhMkSmRu3HXPY23rxY3brr8o/ejbn2qb3RHLYhQCBAgQqJ6A7I/qzakRESiaQJ4FUrR+6Q8BAgQIdBYoxBKY5Y+unu7licuWtu3xSa96/t7yR1alWMrSqczO/Gium2ecnNThfa3ajmBNLMHpZ1m9ZkM/m9MWAQIEai2wdmqy1uM3eAIEFkcgskD+8OhfthfI4nB7CwECBPoiUIgMkGf2HXcbI+qUmREbn+ZBjfyI3P1RiP1B8ufP7ZBxsj9te4YAAQIEhicwuWdPitNfFAIECAxaQBbIoIW1T4AAgf4LFCIDpHlY+d4d/R/q3hYj+BGnv0SJk2F63QA1gjCt9ihZSH9XX7wxe3zm0b8Lac+zBAgQqKvAU/b+qOvUGzeBoQjIAhkKu5cSIEBgvwUKkQHSS+/jGNv9Lc3Bjzhm96IL372/TXmOAAECBAomIPujYBOiOwRqICALpAaTbIgECFRKoBABkOZlLw898vx+ILOlY/+N2AA1Sqf9PWY/Fz83Bz/iNJnrrv5oq2quESBAgEBJBWR/lHTidJtAyQWcCFPyCdR9AgRqJVCIAMgbXv/r0+ixuWm70rxZ6knLTmhXbc71Cy/+6vSylwh+XHbJe+fUcYEAAQIEyisg+6O8c6fnBMouEFkgPxiN5cwKAQIECBRdoBABkNhXI5akRPnSNXe0Nbvx5p9M32sOmrR9ILsRwY/8xJcPnf9OwY9OWO4RIECgpAKyP0o6cbpNoCICX1z3ZEVGYhgECBCotkAhAiBB/K4sMyNKLHG59LJvzFG/IQt+5IGMyOKIoEmjfrYsJgIjs0+Fieuzgx/93rx0TiddIECAAIFFF5D9sejkXkiAwCyBtTsm0q1bRrgQIECAQMEFCnMKTJzGcuPNP0533v1oIwvkzrsfyU5o+WfZsbiHpNu/f1/jT5TY+6M5kHHpp785HRj50bc/Nb03yB994DNp+b79RKTG1kcAACAASURBVGKPkWjvzvc/0nI6LrrwPemkZUtb3nORAAECBIotsHZqstgd1DsCBGohcNvmdenMI4+txVgNkgABAmUVKEwAJACv/Oy/S+d95PONIEgELy657PoZrhH8iM1LmzdAXf7Iyuk6sYFq3ItskDz4ETcjqyTabFfyjVXb3XedAAECBIopENkfz+7aUczO6RUBArUSuHtsc7pnfEt6/WFH1mrcBkuAAIEyCRQqABLLWiLAEctdIhskX9YSQY1TTl6Wzv3jN08vfcmRL7vk3GzJzPWN+6ef9urG5SWHH5Jlj+xdUtPNZDSfQtNNfXUIECBAoBgCG7Pgx8Tu3cXojF4QIFB7gauffTq9/lcFQGr/IQAgQKCwAoUKgORKsRwm/nRTYunK7CNtI5DipJdu9NQhQIBAuQVWW/5S7gnUewIVE5AFUrEJNRwCBConUJhNUCsna0AECBAgMFCBkSnZHwMF1jgBAvslEFkgCgECBAgUU0AApJjzolcECBAgMI/A01MT89RwmwABAosvkGeBLP6bvZEAAQIE5hMQAJlPyH0CBAgQKJyA7I/CTYkOESDQJCALxOdAgACBYgoIgBRzXvSKAAECBDoIyP7ogOMWAQJDF4gskEcntg69HzpAgAABAjMFBEB8EQQIECBQKgHZH6WaLp0lUFuB6zasru3YDZwAAQJFFRAAKerM6BcBAgQItBSQ/dGSxUUCBAomcOumdWls91TBeqU7BAgQqLeAAEi959/oCRAgUCqB0d270sTu3aXqs84SIFBfga9veKa+gzdyAgQIFFBAAKSAk6JLBAgQINBa4Imd21vfcJUAAQIFFLhu/SpZIAWcF10iQKC+AgIg9Z17IydAgECpBCL7Y3SXdPJSTZrOEqi5wFj2f7NkgdT8IzB8AgQKJSAAUqjp0BkCBAgQaCewdmqy3S3XCRAgUFgBWSCFnRodI0CghgICIDWcdEMmQIBA2QQm9+xJcfqLQoAAgbIJyAIp24zpLwECVRYQAKny7BobAQIEKiLwlL0/KjKThkGgngKyQOo570ZNgEDxBARAijcnekSAAAECTQKyP3wOBAiUXUAWSNlnUP8JEKiKgABIVWbSOAgQIFBRAdkfFZ1YwyJQM4FbNq2t2YgNlwABAsUTEAAp3pzoEQECBAjsE5D94VMgQKAqAmt3TKRbt4xUZTjGQYAAgVIKCICUctp0mgABAvUQkP1Rj3k2SgJ1Efja+lV1GapxEiBAoJACAiCFnBadIkCAAAHZH74BAgSqJrBi+9Z0z/iWqg3LeAgQIFAaAQGQ0kyVjhIgQKBeArI/6jXfRkugLgJXP/t0XYZqnAQIECicgABI4aZEhwgQIEAgsj+e2z0FggABApUTuHtssyyQys2qAREgUBYBAZCyzJR+EiBAoEYCa6cm08Tu3TUasaESIFAnAVkgdZptYyVAoEgCAiBFmg19IUCAAIEU2R/P7tpBggABApUVkAVS2ak1MAIECi4gAFLwCdI9AgQI1E1A9kfdZtx4CdRTQBZIPefdqAkQGK6AAMhw/b2dAAECBJoEZH/4HAgQqIuALJC6zLRxEiBQJAEBkCLNhr4QIECg5gKyP2r+ARg+gZoJyAKp2YQbLgECQxcQABn6FOgAAQIECISA7A/fAQECdROQBVK3GTdeAgSGLSAAMuwZ8H4CBAgQaAjI/vAhECBQRwFZIHWcdWMmQGBYAgIgw5L3XgIECBCYFpD94WMgQKCuArJA6jrzxk2AwDAEBECGoe6dBAgQIDBDQPaHD4IAgToLyAKp8+wbOwECiykgALKY2t5FgAABAnMEIvtj5c6JOdddIECAQF0EZIHUZaaNkwCBYQsIgAx7BryfAAECNRd4auf2mgsYPgECBFKSBeIrIECAwOAFBEAGb+wNBAgQINBGILI/RqZ2tLnrMgECBOojIAukPnNtpAQIDE9AAGR49t5MgACB2gvI/qj9JwCAAIEmAVkgPgcCBAgMVkAAZLC+WidAgACBNgKyP9rAuEyAQG0FIgvkjq0bazt+AydAgMCgBQRABi2sfQIECBBoKSD7oyWLiwQI1FzgitWP1VzA8AkQIDA4AQGQwdlqmQABAgTaCMj+aAPjMgECtRdYu2Mi3bplpPYOAAgQIDAIAQGQQahqkwABAgQ6Csj+6MjjJgECNRf44ron09juqZorGD4BAgT6LyAA0n9TLRIgQIBAB4HR3buc/NLBxy0CBAhEFsjXNzwDggABAgT6LCAA0mdQzREgQIBAZ4GHd4x3ruAuAQIECKTr1q+SBeI7IECAQJ8FBED6DKo5AgQIEGgvMDK1I03s3t2+gjsECBAg0BAY2zUlC8S3QIAAgT4LCID0GVRzBAgQINBe4OmpifY33SFAgACBGQKyQHwQBAgQ6K+AAEh/PbVGgAABAm0EZH+0gXGZAAECbQQiC+Tqkafb3HWZAAECBHoVEADpVUx9AgQIEOhZYGrPniT7o2c2DxAgQCBdm+0FsmZqkgQBAgQI9EFAAKQPiJogQIAAgc4Cq7P/593eH52N3CVAgEA7gUtXPdzulusECBAg0IOAAEgPWKoSIECAQO8Ck1n2x1r/etk7nCcIECCwT+Dusc3pnvEtPAgQIEBggQICIAsE9DgBAgQIdBZ4auf2tDMLgigECBAgsP8CVz9rL5D91/MkAQIE9goIgPgSCBAgQGBgApH9EZufKgQIECCwMIHIArlj68aFNeJpAgQI1FxAAKTmH4DhEyBAYJACK3ZuG2Tz2iZAgECtBK5Y/Vga2z1VqzEbLAECBPopIADST01tESBAgMC0QGR+bJjaSYQAAQIE+iSwdsdE+vqGZ/rUmmYIECBQPwEBkPrNuRETIEBgUQQce7sozF5CgEDNBK7LjsWVBVKzSTdcAgT6JiAA0jdKDREgQIBALhDZH4699T0QIECg/wJju6bS1SM2RO2/rBYJEKiDgABIHWbZGAkQILCIArHxqeyPRQT3KgIEaidwbZYF8ujE1tqN24AJECCwUAEBkIUKep4AAQIEZgjEsbeyP3wUBAgQGKzA5WtXDPYFWidAgEAFBQRAKjiphkSAAIFhCTj2dljy3kuAQN0E4ljce8a31G3YxkuAAIEFCQiALIjPwwQIECDQLODYW98DAQIEFk/gE6seXryXeRMBAgQqICAAUoFJNAQCBAgUQcCxt0WYBX0gQKBOAnEs7lXP2hC1TnNurAQILExAAGRhfp4mQIAAgX0CNj71KRAgQGDxBRyLu/jm3kiAQHkFBEDKO3d6ToAAgcIIPLVzwsanhZkNHSFAoE4CcSzuZ9c8XqchGysBAgT2W0AAZL/pPEiAAAECIRAbn67MAiAKAQIECAxH4NZN62yIOhx6byVAoGQCAiAlmzDdJUCAQNEE4thbhQABAgSGK3C1vUCGOwHeToBAKQQEQEoxTTpJgACBYgrExqfxRyFAgACB4QrEsbhf37B6uJ3wdgIECBRcQACk4BOkewQIECiygI1Pizw7+kaAQN0EvjjyVBrbPVW3YRsvAQIEuhYQAOmaSkUCBAgQaBaw8anvgQABAsUSiA1Rrx5xLG6xZkVvCBAokoAASJFmQ18IECBQEgEbn5ZkonSTAIHaCVy7fpUNUWs36wZMgEC3AgIg3UqpR4AAAQLTAit2bqNBgAABAgUVuMyxuAWdGd0iQGDYAgIgw54B7ydAgEDJBGLT0w1TO0vWa90lQIBAfQRWbN9qQ9T6TLeREiDQg4AASA9YqhIgQKDuArH0xcandf8KjJ8AgTIIxIaoa6Ymy9BVfSRAgMCiCQiALBq1FxEgQKD8Ak/t3J4mdu8u/0CMgAABAhUXiA1Rr1j7RMVHaXgECBDoTUAApDcvtQkQIFBbgcj+iOUvCgECBAiUQ+DvNo/YELUcU6WXBAgskoAAyCJBew0BAgTKLnD/5FjZh6D/BAgQqJ3AJ1Y9nMZ2T9Vu3AZMgACBVgICIK1UXCNAgACBGQJP7Zyw9MU3QYAAgRIKrN0xka4eebqEPddlAgQI9F9AAKT/plokQIBApQRi6cvKLACiECBAgEA5Ba5dv8pSmHJOnV4TINBnAQGQPoNqjgABAlUTeGjHeNWGZDwECBConcDVz8oCqd2kGzABAnMEBEDmkLhAgAABArlAbHo6mp0koBAgQIBAuQXuHtucvr5hdbkHofcECBBYoIAAyAIBPU6AAIGqCsTSl6enLH2p6vwaFwEC9RP44shTac3UZP0GbsQECBDYJyAA4lMgQIAAgZYCT+3cbuPTljIuEiBAoJwCY1lG36XZqTAKAQIE6iogAFLXmTduAgQIdBCIpS/xRyFAgACBaglYClOt+TQaAgR6ExAA6c1LbQIECFRewNKXyk+xARIgUHMBS2Fq/gEYPoEaCwiA1HjyDZ0AAQKtBCx9aaXiGgECBKojYClMdebSSAgQ6E1AAKQ3L7UJECBQaQFLXyo9vQZHgACBaQFLYXwMBAjUUUAApI6zbswECBBoIWDpSwsUlwgQIFBhAUthKjy5hkaAQEsBAZCWLC4SIECgfgKWvtRvzo2YAIF6C1gKU+/5N3oCdRQQAKnjrBszAQIEZglY+uKTIECAQD0FLIWp57wbNYG6CgiA1HXmjZsAAQL7BCx98SkQIECg3gKWwtR7/o2eQJ0EBEDqNNvGSoAAgRYCK3ZuSxO7d7e44xIBAgQI1EHAUpg6zLIxEiAQAgIgvgMCBAjUWGDN1GTaMLWzxgKGToAAAQIhYCmM74AAgToICIDUYZaNkQABAi0EGktfdk60uOMSAQIECNRRwFKYOs66MROol4AASL3m22gJECAwLXD/5FjamQVBFAIECBAgEAKWwvgOCBCousBBZR3gjTf/JN1w84/T6jUb0+jY9rT0+JekU05els495y3Zfx/V9bC++/370+3fv69R/4Lzz+zp2a5foiIBAgQKJvBUlvlh34+CTYruECBAoAAC+VKYPzx6aQF6owsECBDor0DpAiCjo9vSeR/5fLrz7kdnSCx/ZFta/sjqRjDjyss/mE5a1vn/aMfzV3zhlhntvOusUwVA+vt9aY0AgQIKxJG3Ky19KeDM6BIBAgSKIfCZNY+n1x1+ZHrViw8vRof0ggABAn0SKF0A5NJPf3M6aHHKya9KZ5z22rTkiEMa1/KMkD96/2fSbdd/vGUwo1Xgo0+WmiFAgEDhBRx5W/gp0kECBAgUQuBjTz2YrnnVyemIF5Tu14VC+OkEAQLFFCjVHiB5kCMo35ctdbnu6o9mS17enCJz47JL3psFPS7KgiGHZktitqULL/5KS/FYOpNnj0QAJdpRCBAgUBcBR97WZaaNkwABAgsTWLtjIn3ymccW1oinCRAgUDCBUgVAvnzNHQ2+2OPjgvPOnEMZy17ygEYEOWK5zOwSQY/4E8GT+HPSshNmV/EzAQIEKikQ+3448raSU2tQBAgQGIjA320eSV/fsHogbWuUAAECwxAoVQAk36w0NjtdsuTQll6RDZKXG2+5c06duB+BjwiCKAQIEKiLQCx9se9HXWbbOAkQINA/AUfj9s9SSwQIDF+gNAGQ2OA0L2ec9pq2cpEdEstgoix/ZFXbem4QIECgLgJTWfAjjrxVCBAgQIBArwJxNO5Hnnyg18fUJ0CAQCEFSrOrUezrkZcjsk1PO5XYFDXqNz/TqX4v9/JTaHp5Zr66g+jnfO90nwCB+gisnpp05G19pttICRAg0HeBFdu3psvXrkgfPu6VfW9bgwQIEFhMgdIEQJ5Zs7Frl8gCWZ3VH1Rg4YLz39l1X7qpGHubNGe4dPOMOgQIEOhGwJG33SipQ4AAAQLzCVy7flX650uOSq8/7Mj5qrpPgACBwgqUJgCSL2vpRnJQgY94d+w90u/9Q+JkGoUAAQL9Foh9P57Yub3fzWqPAAECBGoqcGF2NO7Xlv1uOv6gg2sqYNgECJRdoDR7gJyYnfCSl/myQVav2dSo6oSXsn+e+k+AwEIEYt+PnVkQRCFAgAABAv0QiP1ALl31cD+a0gYBAgSGIlCaAEi3m5vGUpI8A+RER9wO5aPyUgIEhi8QR95O7N49/I7oAQECBAhUSuDusc3pqmefrtSYDIYAgfoIlCYAElNy0r4skBuyJSOxGWmrEvtp5KXfS1Vavc81AgQIFE3Avh9FmxH9IUCAQLUEvrjuyXTP+JZqDcpoCBCohUCpAiD55qOR4XHpp785Z4LuvPvRdMPNP25cP/us30uRNZKX2GfDRqNzyFwgQKBiAvb9qNiEGg4BAgQKKvCJbCnMmuyUMYUAAQJlEijNJqiBGhkd7zvnLelLWZZHBDruvPuR6UBHc/AjAh8XnH/m9Dxcetk3Gs9Eue7qj/Z9E9MyTbi+EiBQXYGpbL8P+35Ud36NjAABAkUSWLtjorEfyOd/9dVF6pa+ECBAoKNAqQIgMZKLLnx3Y0AR0Iijbv/6C7fMGGAEP668/IMzsj+iXl7GxpyIMAPMDwQIVEZgRXbii30/KjOdBkKAAIHCC8R+IJevXZE+fNwrC99XHSRAgEAIlC4AEp2OIEhscPrd79+XBUE2ZJuebm8EPE45eVk694/f3DiqtrlE/Vg2E/dPP21mlPqXs+diuUyUXo7anfECPxAgQGDIArHpaez9oRAgQIAAgcUUuHb9qvQ7RxyZ3nL480vPF/P93kWAAIFeBEoZAIkBnn3WqY0/3ZQIjsTSl1YlltXYLLWVjGsECJRFYHzPrrQyC4AoBAgQIEBgGAL/+emHsn+c/N10/EEHD+P13kmAAIGuBUq1CWrXo1KRAAECNRGITU9/Pjlek9EaJgECBAgUUWBs11T6yJMPpLHdU0Xsnj4RIEBgWkAAxMdAgACBEgs8tGPcvh8lnj9dJ0CAQFUEVmzfmj675vGqDMc4CBCoqIAASEUn1rAIEKi+QOz7MZr9q5tCgAABAgSKIHDrpnXp6xtWF6Er+kCAAIGWAgIgLVlcJECAQLEF1kxN2vej2FOkdwQIEKilwGeyLJB7xrfUcuwGTYBA8QUEQIo/R3pIgACBGQKx6enjOxzp7bMgQIAAgWIKfGLVwykC9QoBAgSKJiAAUrQZ0R8CBAh0ELDpaQcctwgQIECgEAJrd0zYFLUQM6ETBAjMFhAAmS3iZwIECBRUYCo78eX+yTGbnhZ0fnSLAAECBJ4XsCmqr4EAgSIKCIAUcVb0iQABAi0EHt25TfCjhYtLBAgQIFBMgdgU9apnny5m5/SKAIFaCgiA1HLaDZoAgbIJxIkvG6Z2lq3b+kuAAAECNRf44ron061bRmquYPgECBRFQACkKDOhHwQIEGgj4MSXNjAuEyBAgEApBD77zGPp0YmtpeirThIgUG0BAZBqz6/RESBQcgEnvpR8AnWfAAECBNLYrqn0sacedDKMb4EAgaELCIAMfQp0gAABAq0FnPjS2sVVAgQIECifgJNhyjdnekygigICIFWcVWMiQKD0AhH8cOJL6afRAAgQIECgScDJMD4HAgSGLSAAMuwZ8H4CBAjMEojjbh/aMe7EF18GAQIECFROwMkwlZtSAyJQKgEBkFJNl84SIFAHgRU7t6fRbL20QoAAAQIEqigQJ8N8fcPqKg7NmAgQKLiAAEjBJ0j3CBCol0AcdzsytaNegzZaAgQIEKidwGfWPO543NrNugETGL6AAMjw50APCBAg0BCI4MfK7I9CgAABAgTqIOB43DrMsjESKJaAAEix5kNvCBCoqcCaqUnBj5rOvWETIECgrgKOx63rzBs3geEJCIAMz96bCRAg0BB4dtfO9PiO7TQIECBAgEDtBOJ43PMfvzfFPwQoBAgQGLSAAMighbVPgACBDgLje3alFTu2dajhFgECBAgQqLZABEE+8uQDaWy3DcCrPdNGR2D4AgIgw58DPSBAoKYCk9lxtz+fHE87s/9VCBAgQIBAnQVWbN+a/uzpn9eZwNgJEFgEAQGQRUD2CgIECMwWiODH/ZNjaWL37tm3/EyAAAECBGopcPfY5vSJ1Q/XcuwGTYDA4ggIgCyOs7cQIEBgWkDww8dAgAABAgRaC9y6aV26fO2K1jddJUCAwAIFDlrg8x4nQIAAgR4EqhD82LZ1Iv3shz9P69duTocd/uL0sl8/Pv3G617RVuHhnz3R9l5+49Aj9rYzu+LKx9aklY+tTUe/9BfTy151fDo0e1+nEvW3jU10VbdTO1W8N7l1Mq34X4+k0ZEt6eDM8ZhfOzYt/Z2Xtx3q6n96uu29/MaSY38hLTn2yDn11q8YSesfH0lLjvuFdMwrXpq97+A5dZovRP3J8Ymu6nZsqEQ3d4/vSKN3r0w7nx1LBx72ovTiXzkqHXrSS9uOYNvydW3v5TdeEO28/CVz6k08vSlNPLUpveiYwxv3o16nEvWjf93U7dROXe7tfHgkTT29Je3ZtjMdcOgL0wtP/KV00Mt+seXwd20YT7s3bG15r/nigS/L5ilrq7nsztrftXJT2rV+WzrwmEPTC3/j2I7t5PUPOPRFbfvTsYEh3rx2/ap0+IEHpQ/8Uvv/GzXE7nk1AQIlFhAAKfHk6ToBAuUSmKrAspdrrrgl3X79P8yBP/q4X0x/8H+ent749tfPuBcBif/y76+cU3/2hXjuAx9/9/TlDVlw5Yuf+mZ65J7n/xUw3vHGt5+cveetsx9v/PyzHy5PV/z5VxvBks/87Z+3rFPHixH4uPP//WG6929/Omf4EcA45d/+83TS235nxr0Iftzwka/NqT/7win/9k2N5/OyfsW69IPPfS+tvv/54Em8I9pvrtfczvLv/FO6/bJb0tJXvzyd/Zl/M/sVlfx5/TfvTRu+/WDjF+bmcuDRh6Vj3vFb6SVv/80Z13eu35qe+sS357U48vd/PR3/wTdN14vnVv3ND9PEQzODJ8ec/dp0zL9+bcv24pkn/uymFH1Z9jfvaVnHxb0CEczYftVP5/jG3fBb8pdvafxvc5n80ZNp27cemJfwF/7yzekFTQGO7d95pPFc8zfT7h1549uu+Vma+NET6dA/+O3SBUBiDF9c92RjKIIg834uKhAg0IOAAEgPWKoSIEBgfwUi+PHgjvFS7/lx1Se/kf7h2/c0CF6cZRD84kv3/sv/2sfXpQhYxP1tY9vTGe954zRTZGP0WqKtCJrE/y57/SvTia95Rfbfmxrvvul/fLeRddL8jmg/slKuueLmxqv+4m/O6/WVla7/d5d+azqQNHveRkeeawQfIiPklf/sVQtyiMySWy6+Icswea4RzFj66pelrWu2pAe/90AWgPlR4x2v/Vf/24x3xDMRnIlyxp+duaD3l+XhdV+9K2369t6NHhvZAscc0ej6jizrIn6hjvtRmoMgEZTotTQCGX91W6PNF5/40nTorx7VyOrY8oPH0vob7m1kncwOtMQ74pkor/ird/T6ylrVD9fRT93R8I0Sc3nwy49KO9ePNa7l92cHQXbvq98L1kQWNBnPghlRDnn9CemAlx2Zdj+8vhF42fLx/5mO/OT/MSfQsuOe1Y3gRwRJDv2D3+rldYWqKwhSqOnQGQKVEBAAqcQ0GgQBAkUWyIMfo7vKe7xfBB/y4Edka5zzobOml6M0ByxuzAIUMwIgWWAiL5+//RPzLmGJut/K2og2Z2eFvC0LrFz03itSvOON7zh5Rlv5M/8yy0KJTBFlr0BkV+RZNBF8iCyMfDlKBB+uPe9/pIlsjr6bBUFe+c8+Os02uva56f/+0Pf+Y1ecP/3yDxvBj3jP73/w9OlnfuPtr25kk9yVBUFmB0DyZyKTpNVSmq5eXKJKW37w+HTwI7I1XvreN0wvR2kOWIx882cp7rdaqvLr//3dWdDk8HlHvTELssQv4fEL86/+2fPz8ZJ3/GYjw6PVOyIzJZ6JDJFu3jFvJypcYfu3HpwOfhz+gVPSi9/0q9Oj3Zbdi2yNsIzMjcPPed30vQP2Zf1EUOrwvzitK6Ht+zJGZr8nRYZH1n705fAPvGG6rVj6kgdMIgBT9hJBkCNecGD6w6OXln0o+k+AQAEEbIJagEnQBQIEqitQheBHzM4P/+fezI9YXhJLVZr34oiAw9vevTfrI36ZjmUveYnMjbzMt39HXm/Fo880/jMCHs0l9hqJjJB4R3O7ESyJZTnRt3bLY2Y0VKMflt/+T43RxjKUCEo078URAYc3ZIGHKGEa+3DkJfbj6LVsfGp945HXvut3Zzwa+4wc92svnfOOWGYT2SH5Mpxe31fG+pvv2pvSH/8qH0tVmgMcEXA49t17l5DFMofYhyMvO5oyQLoNTGx7cmPj8ePeM3NZWuzrEb98xzvGm/YViQBMIzMkluG0WR5TRvNB9DkCDJFdESWWlzQHP/Ze+62GcZSdWSZGc5lewnL0oTOut/thauXm6Syeue/57b3veOj5v7txIQ++RN9mL8Fp956iX//MmsfTrVtmjrPofdY/AgSKKSADpJjzolcECFRAoCrBj5iKf/N/n5liM9Ojj5u7wWLcj+BEXpqXvYzvywCJpRfdlp3jk42qhx5+yJxHXviLe39paH5HvseIpS9zuLKgx1uz/ThWts2uiI1Q89Ic9JjcN28RnOi2jGfLn6IcfNjceTvwsL2boDa/4/b/dkuj/tmfrce+HzHWpeeemsbf8HymQAOgqRzWtAlqBD3yX5Fjo9Rey+5tOxqPHJhtgDm7xHKN2SVf+nLC//X7s2/5eZZAbE4ae3RM3vNMOrgp82NGtZdlf3eyJSr5Epn8Xj4vqcUcdIKefq5TpexevC+yQsq+9KXVMD+x8qHG5TOP7Lz5a6tnXSNAgEAuIADiWyBAgMCABFbs3J7KvOylmSUCHM1BjtlkG9Ztnn2p8fO2rXt/KT78iEMa+3SsfHRNyutGxkar02N+47WvSP+w9p70o2zZTXNGR2R6RMZAlHyZy7f+x/cay2Vi2Y2lL3On4JhXvjTFn3aleanLwYc9H6SKvTuiLMn2eYlNVGNT0+mgUyRjTgAAIABJREFUSHayS6vTY45benRjCcy9f3vXjA1PY6lNvilqnAgTJfb9iLp1WfqS+0f2xpG//2vtpqNxUkte4sSW2SV+qY19PCI7JM8KiXqtTo85/DePS5uyerEUJpba5CUyPWK/kSgv/pW9Ac186Ussu2nV1ux++Dk1TmDpdArLARu2NZheNOtUntgjJMoLssBUZJLEXh17f35hOvDlvzgnY+MFRx/e2F8k3yOmOaNjcl8WSr6PTLQT+5JEqcLSl8ZAZhVBkNkifiZAoFcBAZBexdQnQIDAPAJVyvyYZ6iN2xHYiD04oswOaqzZuHcvia1ZdsCH/9V/aSyDaC4RtLjgv/7bGcGVWPqSb3gaS13elJ38EstqvvONf2g8mgc7IvARm6LuXfry/B4HM17gh7YCzRuQRqbHMa98/l9Vt6wfbTy3IVsW8+V/89/nzFvUj8yN5n07fvucUxv7jcSGpxFAib0/4ijce2/ce/pMBDtiCc7e9/6oVktf2k5C040IbKz5yk8aVxr/et+UDZJvghpZAI/8++tbnh4TmRvNzxyVnSSz+e8fbew5Em0f+S9+vRE0GfnGPY0sgQh2REDG0pduZqe3OnEs7vZ7VjUeOuh1vzzj4XwJzPbvPNzyNJgXv+kV6ZBs09I80BHZJoe87TcadSO4cUi2rCWuTa3cMv38i895TeMdsfdIzO2L37ZsTiCltxEUu7YgSLHnR+8IFF1AAKToM6R/BAiUSqCOwY9LPvj5RhZGlNgctbns3Lz3X0Ej8BHLYH7rrb+djnzRi9L6LCsgflmO52Jj07/47+dNZ4NEpskF//W9jVNdmjdfjXYbG7Be8M7GK/KlL/mGrBGI+Yfb7k5PZ8GSaP/lv3ZcY28SmSEzpqTxQ2R1/M//dGMjCyPKGf9hr+nsmvm8xd4rsfwoAiORzRHPxQaq78qOrc0DJ5EVcsaF70w//Px3G5k6ebZOtBnznh+Dmx+vmy99ib4sv/3+tPHR7ESLrP1oL/YRqcOmqM3eT//ND6aXS+R7geT3J/YtgYlfniMbIDY2jVN14nqcBBK/9MYxub/yn94+HQSJ4MbSD/5+I6gSJ7/En7zE/hR5VsjTl32vcTneGc/kJ8VENkq0H6fHRDCl271HmsdUx/+Oudj6xb0n+UQQo3mJTPNymJjLuP/CE49NsTFqnuERe4vszPb0+IXsZJcIdESJU1wi+BVLW7Zedec0a3wL+RG30XYESfYufdm7N0hci2N392TBkigHZsGY2fuIlHWOBEHKOnP6TWD4AgIgw58DPSBAoCICdQ1+xDG4UeIEltf985NmzGbsHfKd2KA02zskMjuaN0JtPj3mqv/8jfSZG/98+tlo52W/flx6+N4nGgGN2A/kxGxpTL5kJl/6EgGRqNvcVt5IBFhic9TYtDXqKXsFIuBw08e+lvJ5i8yM2UtaTnnvm9LD316SDj/+yOzkljfM2Dw1MjgiiBFBkB987rvp7CwIkpeT3vY7aelrXpZW37eysalqZHwsfU12JG4WHImSL32J02AiwNHcVt5GBFju/dufNoIp0V7VSwQcnsqCEBHIiBInsMxeJnP8uaekTbf9vBGEiGBE8+apzafHrMqCKMv+5j3TZEf87svSK7JlLrHZ6cRTGxv7gRyWLY3JM0UiOyR+8Y5skHhnc1t5I9GvqBf9sjlq568xNix9LsvSyIMbs4/APSDzj5Ncph5+NguM/MqMJTSHZU3HiTFxeku+j0fz8bVxkswhWWZHBDTiKN0Ds6NwD86yRfIgSb705bCsXlzbe3TuPTOzhbKslDhRZna/Oo+quHcFQYo7N3pGoMgCAiBFnh19I0CgNAKCH6e3PIElsjkiANGqRGbGB/7juxuZHBHAiGUuzfuMxP03Hvf69MY0M3jRaulL3kZkKvyrc9+aDj3ixemeHy5vLJG56pPfaARTOu1h0qp/Vbw2O+AQwY88M6N5vBGwmB0Uye9H4CKeuT07OjeCFRHoaF4+E/dPetuRc/haLX3JAylLX/3yFEGXg7PNUlf8r0cby2gikySCKVXOBIngxxNZ5ka+J0e7IEOc3BKnxrQqERSJ5S+RAdLIAsiCHc1LYab3HZm190gEO+Io3MgYyAMbq7/8k0YbsW/F8X9ySiPQsu3na9O6r97VOCGmOXjSqi91vjZf8CNsIjDRyMBos3FqBDh2P7y+sXwm9vdoDoDE83uzO35rDvP00pcsIPKi1y9tzGGeKZKfUrNrQ7b3y3cea7S9/aqfdn0E75yXFeyCIEjBJkR3CJRAQACkBJOkiwQIFFugbsGP2dkWsSQl9uXYn/KyVz1/eszKx9Z2FaT44qe+2XjVH7z/9MbyljidJvoUe4H85f/zp9PdyAMeEQSJDVXPueD5d+1PX8v+zOzgx0IyLCIwkZfY56M5ANLOKV/6EsGTyAyJY3Aji6Sxn0hTFkls2hpZKpEFcu+N/9g4vreKpdvgRzdjjwBJXppPj+n0bGx8GpkKx/7JqY3MkthYNX45jl+yX5EtpcmzTKLtXVmgJgIgW/7+MZuktkCNjUzHsqUp7TI/WjzS9tILfuOYlLJ5aF4u07ZydqN56UvsHRIlMkmixF4geRDlBbHcJtu4dddF32lkGx2c7VPSaRPXTu8s2j1BkKLNiP4QKLbAC4rdPb0jQIBAsQUm9+xJP5scq8xpL/Npzw5+RHZHu+BH7MkRwYlrrth73GmrtrftOzo17rU69nb2M7EnSCxtiSUt+bKW/FSZ1/3+b86u3lg2E+Xpx9fOuVenC70EPxqnvmTBiViu0q7kJ8LE/f+/vfsPlquqEwR+QEYlkzz5IT+MUYp1TGoytYuzUiPqDrMEoWqHH7NbMDCQ3VUckTj7BzpMdtWCzAiWtbVZ1FTNzkRhVbZKAQd2tyBYJa4yq7sQJWqYdQKJgICZ8EsQX15+/9r7vS/30a/TfV+/l+6Xe29/TtUr8u69fe45n9NNd3/fOd8TuSimKsXSl8gFUixrKXag6bTM5W3/bGFe5fanX5qq6lqej9kXP/33/2Ni5kfk4+i2vCQCJTGrI2Zh9Ku88r8fz3OCFEtfot49L4zl1c/7rfmTltjEsUigGqXIRZL/ouQCsdRkdNX3egp+xNKVCE7EY/pVYjZHlEiOWiROTc+M5/Z53TsnJ2CN6/IAS1b2vTienyn/pQElgiC3vPB0A3qiCwQIDFrADJBBC6ufAIHGCkTw45Es+LFz//7G9rG1Y63Bj0ho+m+yhKdluTViy9siUelJ2eyMToGSmJlRlFimUlbi/rHbTLddX4odZ8rqGMZzrcGPGLfWxKWdPF588rk8x0eU8eUsh+bhiGUqRTnpN07uVM3Esbj/+v/+cD7T43euOvuQa4std1tPtG7Pe8gDan6gPc/G/D85+5CcH61djJkZsbwlSmx5e0KWA6S9TEpwenBr2/Zrit/zpS/ZTjCRQLNT0KVTkKPYhaZbncN6PAIZxVKTCD5MlVtjewQ/sp+w/7XfPLnjTi1xPkr79rmdjOP+MZsjdo5pTW4a9Uc5sG3PIQ8rtuctcoccckGND3zxufHA0tUnj+ccqnFXNJ0AgQEKCIAMEFfVBAg0V2CYgx8xqpdkCU8jEBEzPNpLLEuJn0hYGjk5YsZGMQukCIIUO7bE8pQoMTNgqt1aIvgRQZCYddJ67T89+7fyHWZi15HH/uWTE4lS4x6RXDXK2f9iOJOgts/8eFeW82PXtp35DI/2EgGKCHjk+T+ynByR3yPyfMT1kbQ0yvjSlO/nOTqixLhNlaPj/v+0Jt9G9+yPnDfp2re9d1FKWf2Pr/1pOqMlj8h4rpDx2SenLZmcVLe9zXX7vT34ETk/IqgRMzzaSyxBieUnkc8jdm2JL7oxCySWoxSJUIsdW4rZIfElvHU5THud8XssfYllEzHrpHVnl1/P7hNfnOM+MUOkSMQ6vj3v+M4jJ5wzPjOnU73DdizybsSuK1HCLZKP7s/ybMRPe3nNW0/I83+MJzF9Mp8tEklL5344G4NsWUqU/dmx7QcToMbvrz2/3DrGMBKaxpgXS1+K+8ZuL7GMJhKqvua04ycCLa3b88bxJhZBkCaOqj4R6K/AUQey0t8q1TZdgeUrbkt33fPgxMM+uuyidO2yC6dbjesJEJglgW0H9qW/37VtaGZ+BOvH/+3nJnYNmYo5doP5V3/8vvyy9iUzcSyCF2PZ0pf4Upz/ngVSPvFfrikNgMTSl0hmGgGV1jwfeQVZuf/O/5tvmxslrjkp+yK/7rt/n9/jTb9xavqP/+1jB6+szn/uvPWbaeGV7x5og+5c9l97HrfWhKjtgZNoZARIim1zi99jK9uyAMiGb/5dHkSJQMn7Pj55i+SoI/J8xE4yUSLoctxJI3lApBi3y1f/cX5u0OXe//ngpO1KB3W/J//iGxO7vUx1j1ieUiQ+bQ+cxGPji29sjRpfpovf/9FfXFC6XW0ENrb81Xfzx7buFlO0JXZ7KYIpEXR5/cnz0q8efmpieUenx0zVj5mcf+qOhw9JADqTegb1mAgk/Ooz3+m5+jd8cslEoKPY6aV4cARPjs52h2nN+REzOuZe/a7S+sdu+X62lObJfFeZTlvbjma5PiK5box1zCaJ50mx01AkRm1PsFp6sxqe/PCppyczQWo4cJpMYBYEzACZBWS3IECgOQKj+yP4MZb2DFnseM+2XTMaxAh2fOIvr8mXrkQQI0oERYoSwYoPf/IPS4MfxdKXmOUR13Yq51/+3nznl7hPzDgZn0Se8iU6S7OlOsNatrXkWJmOQQQ1Irjxgy9/N59ZE6U1+BEBjVjOUhb8KGZydFv6EnUWM0t+fPcP8hknmw82Mo532p1mOn1o0rUxUyOCGzF7o1juMukLcxaseMu/O7s0+FEsfQmXqKtTieU1R2c78cQSmfiyXHxhPvadb0mnZTvNKIcvELNAjjntuLTjq+vzAEUEJvYdDGJFMCSCE3FNWcmXvmTBjzxI1WVHmbmfWJLPKInrdmSzRaL0Wn/ZvetyLmaCjO3bmz72prfVpcnaSYDALAmYATJL0GW3MQOkTMc5AtUReH7v7rRxd7MSx82mbixJibwgkbQ0Ep7GEpk5PSTQnG4bYzvdKG98U7Z8YAD1T7c93a6fjRkg3e49neOx7CXygkRejkh4GjM1YheXfpcXnxhfBjJyyvEDqb+svbM1A6SsDb2eiyUpkRckdnt5TTZzIJauFDu29FpHL9fFPaK89o1zB1J/WRuqPgOkrO3TORdBrH1P/zJf/hJBkaPD+mD+junUU3Zt1L3vmZez4Mdr0zFvbeayl7L+Lzn+lHT9m9+e5h3tb75lTs4RGCYB/zcYptHWVwIEZizw1J7sy3v2o8xcIIIREfQYdCm2vx30fYal/gh2RF6QdGgu1L4SxPa3ytQCEeyIvCBzpr70sK6YKpfIYVXuwblALE+Z2LllQCYRUDn6YJ6RAd2i0tV+55fPp6d3bkufPf0fp/nH9D9wW+nOaxwBAh0FbIPbkcVBAgQIvCog+OHZQIAAAQIE6inwxI6xtOzxH6cte2e2lLOevdZqAgS6CQiAdJNxnACBoRfYm+X52LB7m5kfQ/9MAECAAAECdRZ4dvdOQZA6D6C2E+ijgABIHzFVRYBAcwRim9ufZMGPX+wd32GhOT3TEwIECBAgMHwCEQT51xsfTj/c9srwdV6PCRCYEBAA8WQgQIBAm0Bsc/vIrq1pNMsgrxAgQIAAAQLNENiava8ve2J9uuMXxZ5TzeiXXhAg0LuAJKi9W7mSAIEhEIidXp7cs2PotrkdgqHVRQIECBAgkAvcvOXxtDXb1v7qk7MEzwoBAkMlYAbIUA23zhIgUCYQyU5jm9s92fIXhQABAgQIEGiuwBef+1n6Dz9/NAuEmO3Z3FHWMwKHCgiAHGriCAECQyYQyU4j8GGb2yEbeN0lQIAAgaEWiG1yl25aZ4eYoX4W6PywCQiADNuI6y8BApMEimSnsfRFIUCAAAECBIZLoNghZtPOseHquN4SGFIBAZAhHXjdJkAgpdFs/a9kp54JBAgQIEBguAUiCBIzQSRHHe7ngd4Ph4AkqMMxznpJgECbwJa9u9Lju3dwIUCAAAECBAjkApKjeiIQaL6AGSDNH2M9JECgRaDI9yH44WlBgAABAgQItAtEctQ/+qm8IO0ufifQFAEBkKaMpH4QIDClQOT7+NGurUm+jympXECAAAECBIZW4IkdY2nZ4z9O8oIM7VNAxxssIADS4MHVNQIEXhWIJS8/2jmadu7fj4UAAQIECBAgUCpQ5AW55YWnS69zkgCBegkIgNRrvLSWAIFpCsSSl6f27MzzfezJ/q0QIECAAAECBHoViCUxn9r8WNq6f2+vD3EdAQIVFhAAqfDgaBoBAocnsO3AvnzJyzNZAEQhQIAAAQIECMxEYM3Lz+W7xMRsUoUAgXoLCIDUe/y0ngCBLgLxIeXvdo5Z8tLFx2ECBAgQIECgd4FYEvMHGx6yVW7vZK4kUEkB2+BWclg0igCBmQrEkpef7N6WRveZqjpTQ48jQIAAAQIEOgvEVrkbsz+wXH3q6Wn+Ma/rfJGjBAhUVsAMkMoOjYYRIDBdgdH940teBD+mK+d6AgQIECBAoFeBWBITu8T8cNsrvT7EdQQIVERAAKQiA6EZBAjMXKBIdLp+51ZLXmbO6JEECBAgQIBAjwKxJGbZE+uTXWJ6BHMZgYoICIBUZCA0gwCBmQkUsz4kOp2Zn0cRIECAAAECMxeIXWIufmytBKkzJ/RIArMqIAAyq9xuRoBAvwTM+uiXpHoIECBAgACBwxEoEqSaDXI4ih5LYHYEBEBmx9ldCBDoo4BZH33EVBUBAgQIECDQFwGzQfrCqBICAxUQABkor8oJEOingFkf/dRUFwECBAgQINBvAbNB+i2qPgL9FRAA6a+n2ggQGJDAC/v2pB/t2prk+hgQsGoJECBAgACBvgmYDdI3ShUR6KuAAEhfOVVGgEC/BXYdOJDW7xpLj+3aZoeXfuOqjwABAgQIEBiYgNkgA6NVMYEZCwiAzJjOAwkQGLTAU3t2ph/tHE2j+/YO+lbqJ0CAAAECBAgMRKCYDbJp59hA6lcpAQK9CwiA9G7lSgIEZkkgkpz+IAt8xHKXPdkMEIUAAQIECBAgUGeBmA2ydNO69KnNj9kyt84Dqe21Fzim9j3QAQIEGiMQy10e3b3NjI/GjKiOECBAgAABAq0Ca15+Lv1w7JX04VNPTxcedwocAgRmWcAMkFkGdzsCBA4VKHZ3sdzlUBtHCBAgQIAAgWYJxGyQTz3zaLr4sbVmgzRraPWmBgICIDUYJE0k0GSBLXt3pYctd2nyEOsbAQIECBAg0EGgSJJqWUwHHIcIDEhAAGRAsKolQKBcIPJ8xO4uj+/eIc9HOZWzBAgQIECAQIMFYlnMH2x4KN3ywtMN7qWuEaiGgABINcZBKwgMjUAR+Fi/c6tcH0Mz6jpKgAABAgQITCVQ7Baz5pXnp7rUeQIEZiggADJDOA8jQGD6ArHcReBj+m4eQYAAAQIECAyHQGt+EIGQ4RhzvZxdAQGQ2fV2NwJDKfD83t35trax3EUhQIAAAQIECBAoFygCIR/52SPlFzpLgMC0BARApsXlYgIEpiNQBD427t6edu7fP52HupYAAQIECBAgMPQC67b+Mt8txmyQoX8qAOiTgABInyBVQ4DAqwICH54NBAgQIECAAIH+CFgW0x9HtRAIAQEQzwMCBPoisPfAgfTUnp3poR2/SmZ89IVUJQQIECBAgACBCQGBEE8GAocvIABy+IZqIDDUAkXg4+Esx8czWQBkTxYIUQgQIECAAAECBAYj0B4IiSTzCgECvQkc09tlriJAgMBkgdjO9tnsDTeWuygECBAgQIAAAQKzK1AEQt702tend849Ll196ulp/jGvm91GuBuBmgkIgNRswDSXwJEUiNkeL+3bk57dtzuN7tt7JJvi3gQIECBAgAABAplABELWvPxc/nPhCacKhHhWECgREAApwXGKAIFxgW0H9qUX92aBj2zGhyUunhUECBAgQIAAgWoKFIGQM+cdny44/tR04XGnVLOhWkXgCAkIgBwheLclUHWBmO3xQjbT44VsxofZHlUfLe0jQIAAAQIECLwqENvnxs8Xn/tZuuiEN6ULspkhlsd4hhBISQDEs4AAgUkCRW6Pl7PAh9kenhwECBAgQIAAgfoKxPKYCILEz5LjT0nnH39yOnfuifXtkJYTOEyBSgdA1q7blL71wPo0unVH9rM9LV70lnTJxe9OC+ZP/0U7Oro93X3v2rRh48/T5i2/yOs668xF6bxzzjhMQg8nUH+BCHpEwMMSl/qPpR4QIECAAAECBDoJfOeXz6f4KZKmXvHGBWnh6+d2utQxAo0VqGQAJIIV1/zpX6cIgLSW+7NgyOdX35uuXXZh+uiyi3oelC999dtp1eo1eRClKFF3HI9gyu23XjejoErPDXAhgQoKCHpUcFA0iQABAgQIECAwYIHWpKkRDLkyC4ScfdxJlsgM2F311RCoZADkiqtvzmZqbM6FRubNSeef8448eDE+e+OlPJixNZsVcsPyy6ZUjIBJXF/UddaZC/M6N2x8Jr/H5i0vpSs+dHO6747r08jInCnrcwGBugoUO7i8sn9vPtvD8pa6jqR2EyBAgAABAgT6IxDBkJu3PJ7/ROLU35t3omBIf2jVUlGBygVAImBRBD9ilkfM9ihKBCuWr/hKPjMkZm+clwVGIqDRrcT1RfCj00yPqOOmlV/PgyA3/ee/SStvfH+3qhwnUEuBYpZHBD0kMq3lEGo0AQIECBAgQGBWBIrEqREMeduxc9O5bzgp/d7IiZbJzIq+m8yWwNGzdaNe73P3PQ/lly5etGBS8COORRDjC5/9SD6DI8qqLFhSVorgR1zTaZnLB5eemy69+D15FXfd82CKpTcKgToLRMBjS7ZV7fpdY+mhHb9K63duTc/s2Sn4UedB1XYCBAgQIECAwCwLPLFjLE+cunTTunTxY2vTpzY/lr499lLamv1RTSFQZ4FKBUBiZkfMxohy1dL3dXSNZSqXZolQo8RMkbKgxdp1G/PrYpZIt8SpkVS1KJEkVSFQF4HxbWr3pKeyAEdrwOPx3VnS4H17LXGpy0BqJwECBAgQIECgwgJFzpCPP/n/0pKf/J/0kZ89kj737BPph9teqXCrNY1AZ4FKLYH5fkvS0/P/effdWWL3lli+EnlBNj/7clrcIXdHBEaKYMr55/x2595nR4ucIEWOka4XOkHgCArsOnAgvZLl7dhxYH/afmBfGstmeuzcv/8ItsitCRAgQIAAAQIEhlGgWCrztRd/nnc/cofEbjL/ZN5x6XfmvCHNO7pSXzGHcYj0uUSgUs/OImARS1zKEpL+ZrY8piiPZtvaxnKZ9rJh03gS1TjebfZH8ZgF80/IZpNEwOQX7dX4ncCsCUSQY2/an8b27csDHbuyn19l0wz3ZcclLJ21YXAjAgQIECBAgACBaQi0B0Qif8hpr//19NvHzktvz/69MPsRFJkGqEsHKlCpAEjR05F5x/a10/OmqK/IKdLXmx5GZfnMloNLgQ6jGg+tkMDubLnk9qPH10xuzwIcRRnLAhyvZLM5FAIEhk9g+9YsP8/zpg9XYeS3Ze+7R784VoWmaEMmsH/77rT/F9tYECBQU4Gfpm3pp1nb/1dL+0/Mtts9Y/dr08gpb0jvnXNcmpvNEpn/a6+raQ/r0eyRuceWTiqoRy/638pKBkD63c3YMrffJQIU/QpStM88ieU98aMQIECAQLMF/vZvHmx2B2vUu+du+36NWtv8pu785nget+b3VA8JDIfAy1k3IygS5UvD0eUj3sv2HVWPeIMq0oBKBUCKmR9TBRZaz7852xmmU2ld9hIzKspKcX46M0EiYevd2c4x/ShT9bcf91AHAQIECBAgQIAAAQIECBAYZoFKBUAWL3rLxFhEgCESlHYqj2a7vxSlW36POB4BjSK56SXp1d1eWuuMZKmxm0yU1vt3um/rsdiJptiNZqprpzq/fMVt+Ta8CgECBAgQIECAAAECBAgQIDAYgUptg3tey84vrTvCtHf9/gd+nB+KIEe3AEicL5Kj3nXPQ123y/3W3z4yUf27ugRc2u/vdwIECBAgQIAAAQIECBAgQKBeAkcdyEqVmnzFh25OMfsjZm/cd+f1hwQ4IjfGTSu/njd55Y0fmDQLI5aStAZEop6oL8oHl56bblh+2aSuxvVxvnjc977xmSpR1KYt4bxq9b3p9luvq02bNZRAnQR+9/c/mf//rtusuDr1RVsJVE0gPgPEa+xn679QtaZpD4FGCJz+jmtSfMYu+6NlIzqqEwSOgMCq1Wvyu1677MIjcPd63rJSS2CCMD7kX3D5p/OlKxGcuHbZRRNLU2LmRzHI8T/R1iUoReAkviAUX8Tj3/ETX9AjcDKaJUO9JFu6Eo+NGSafz760F/k34j4KAQIECBAgQIAAAQIECBAg0EyBygVAIjgRMzWWr/hKHpyI/7aXuKZ1tkFcF0GOKPHfyOsxMjIn/z0CKsUsj8iz0SnXRmTI7Vc+j/a2+p0AAQIECBAgQIAAAQIECBA48gKVygFScEQwIqbKXXrxeyYJxbKYWMpy3x2Tl8ZEQCSOR4n/FsGP+D3OxfUR5GifelfMFjFl6Mg/EbWAAAECBAgQIECAAAECBAgMUqByM0CKzkawYuWN789/imUq7QGMVpiYNdKe46M4HwGRCHLET8wOGR3bkUbmHjspUDJIZHUTIECAAAECBAgQIECAAAECR1agsgGQVpaywMd0+SIY0jpDZLqPdz0BAgQIECBAgAABAgQIECBQP4FKLoGpH6MWEyBAgAABAgQIECBAgAABAlUWEACp8uhoGwECBAgQIECAAAECBAgQINAXAQGQvjCqhAABAgQIECBAgAABAgQIEKiygABIlUdH2wguZ4QbAAASvUlEQVQQIECAAAECBAgQIECAAIG+CAiA9IVRJQQIECBAgAABAgQIECBAgECVBQRAqjw62kaAAAECBAgQIECAAAECBAj0RUAApC+MKiFAgAABAgQIECBAgAABAgSqLCAAUuXR0TYCBAgQIECAAAECBAgQIECgLwICIH1hVAkBAgQIECBAgAABAgQIECBQZQEBkCqPjrYRIECAAAECBAgQIECAAAECfREQAOkLo0oIECBAgAABAgQIECBAgACBKgsIgFR5dLSNAAECBAgQIECAAAECBAgQ6IuAAEhfGFVCgAABAgQIECBAgAABAgQIVFngqANZqXIDta36AqOj29PmZ19OixctqH5jtZBADQXWrtuUFi9ckEZG5tSw9ZpMoNoC8R62YdPmdNaZC6vdUK0jUFOBeA/z+qrp4Gl25QXiPSyKz4i9D5UASO9WriRAgAABAgQIECBAgAABAgRqKmAJTE0HTrMJECBAgAABAgQIECBAgACB3gUEQHq3ciUBAgQIECBAgAABAgQIECBQUwEBkJoOnGYTIECAAAECBAgQIECAAAECvQsIgPRu5UoCBAgQIECAAAECBAgQIECgpgICIDUdOM0mQIAAAQIECBAgQIAAAQIEehcQAOndypUECBAgQIAAAQIECBAgQIBATQUEQGo6cJpNgAABAgQIECBAgAABAgQI9C4gANK7lSsJECBAgAABAgQIECBAgACBmgoIgNR04DSbAAECBAgQIECAAAECBAgQ6F1AAKR3K1cSIECAAAECBAgQIECAAAECNRUQAKnpwGk2AQIECBAgQIAAAQIECBAg0LuAAEjvVq4kQIAAAQIECBAgQIAAAQIEaiogAFLTgdNsAgQIECBAgAABAgQIECBAoHcBAZDerVxJgAABAgQIECBAgAABAgQI1FRAAKSmA6fZBAgQIECAAAECBAgQIECAQO8Cx/R+qSsJdBfYvOWltGr1mvyCSy5+dzrrzIXdL3aGAIGeBNau25S+9cD6tHbdxjS6dUdaMP/EtHjRW9JVS8/N/60QIDBzgXh9ffmr304bNv48ryReU5dc/J50afYephAgcHgCo6Pb05e+9u30/ex1Fp8RR+Ydm71/vdVnxMNj9WgChwh864FH0v3ZZ8Uo8flw8aIFh1zjwGSBow5kBQqBwxVYvuK2dNc9D+YfIG+/9Tpfzg4X1OOHXuDzq++dCCp2wrh22YXpo8su6nTKMQIESgTii9k1f/rXWWBxU8ervI91ZHGQQM8C8YXsz1Z8JQvcb+/4mA9mX9JuWH5Zx3MOEiAwPYHf/f1P5kHGeO/63jc+M70HD+nVZoAM6cD3s9vxITKCH1Euzf565i/T/dRV1zAK3H3PQxPBj3g9Fa+reK3FbJBixtVZZy4y22oYnyD6fFgCy//8tongR8xWjNfRyLw5+Wsr/ooWr68rPnRzuu+O69PIyJzDupcHExg2gXj9FMGPeF3FjKqYuRjH47Ni/PdL2cyrBfPfmP21esmw8egvgb4KxOfFeE1FudYfxXq2NQOkZyoXdhOID4rxxSy+qPnA2E3JcQK9C7RG89tfU/FGd8Hln87/shaBkZU3vr/3il1JYMgF4sNifDmLEjOoYiZVa4kvZjet/HrX80POp/sEphQoZgRH8OO+O6+f9EexmH11wR99+uCSmDnpke99bsr6XECAQHcBsz+625SdkQS1TMe5KQXiw2QxjTgij/5aNiWZCwiUCmzYuHni/MobP3DIayoCjcX6zviLtUKAQO8CxWzFeB21Bz+ilpiaX+SwimBIfGFTCBDoXWDDxmfyi2PmR/uM4PiM+MGl78vPRxC/+Mt177W7kgCBQsDsj5k/FyyBmbmdR2YCkacgyvg0fYnjPCkIHK5ABDdiDWcEQrolsoq/rCkECExPIIIZRcA+Zk91KxHMX5vNbIwvaBs2bbbMrBuU4wQ6CNx35w3jMzzmHtvhbMqToSoECBy+gO9gMzc0A2TmdkP/SJHHoX8KABigQLfgR9yy2LUi1lUrBAj0JhDBjKK8q2SnssULX82g/2jLjKze7uIqAgTij2LdZgQXQci4pn2GCDkCBHoTiBmKxQyqmC2sTE/ADJDpebm6RaBb5DHWT8eWnfEB03aCnjIE+isQr6/iTS+2O1MIEOhN4B8OJoqLq8u+eMUXt5hllc8AObhFbm93cBUBAmUC8aWtNWl+2bXOESDQWSA+A8YW7lHGE3kvnLgwcvBE8R2ss11xVACk3GdozkZEPvZq71biw2Brtu6y2R9FFv2oSwCkm6jjwyYQ2wKWfZl6c77bS/kysgg6xgfIKJHAschVMGyW+ktg0AIxTb/bFp6Dvrf6CTRR4K4sZ1yRYLhbDp4m9lufCPRboNhNKeptn/1RBBjj3FSfKfvdrjrVJwBSp9EaYFsj+FHM6Oh0m3izag2AdJv90emxjhEgkPLtNVvfmNpNIphR9mYVHxyL4EfkL+iUwLG9Tr8TIDAzgZjFqBAg0B+BCH4sP7j7UnyevP3W6/pTsVoIDJlAzP5YtXpN3uv4LFg2m3HIaKbVXQGQaXE19+KYKhV/Ue5WWpMuRvCjmIK/Yvnl3R7iOAECLQLnn/OO0jeqmAHSrRTbCsb52KXihuWXdbvUcQIEugi0vo/Fe1i3D46RLLWY/dHtmi63cJgAgTaB+MxYfGGL3FZf+NyfdH3twSNAoFygeC3FVf4QVm5VdvaoA1kpu8A5Au0CxZ7T7ce7/R5/2Rbt76bjOIFygdbgRwQpveGVezlLoJtABDbOOPtj+ekI3rfOamx9TCwJvSLbBSbKF7Mva+edc0a3Kh0nQKBEoD34cfst13VNjlpSjVMECGQCre9hvYLELJGVN76/18uH5jq7wAzNUPevo/Zt75+lmgh0E4g3uvgSViybEfzoJuU4gd4EIrlpkTfn/gd+3PVBkeOqKO9659u7XucEAQLdBVqDH/kfwgQ/umM5Q6AHgdExSzN7YOrpEktgemJyUavAVLM5Yp1nBEniDe/a7C/WrdOOSRIgMLVAHvy4+uYsaer4tp2CH1ObuYJALwKXZH8Nixke8RNf0NqXfkaugtZdKrpt5dnLvVxDYFgFWoMf/gI9rM8C/e63wMjcY6ecUV/MXiy+g1nG2XkUBEA6uzhaItDrzhML5r/RLhUljk4R6CTQHvyIAGIEFIutzdofc8Of/aEpxe0ofifQRSASDd99z4N5ACTWUv/Dlpcn3qdil6Yi0bBdKroAOkxgCoHW4Edxabf3r0uy12OvnymnuK3TBBov0DqLcarO+g5WLiQAUu7jLAECBGZVYMOmzRMzP+LGkYyxbPeYyAnir9SzOkRuVnOB2DYw/koWgcV4bbW/viL4IVFjzQdZ84+YQGuSxmhE++urtWGCH0dsmNyYwFALCIAM9fAPpvOx20VsIRg7yygECExPIL58xZThXktMiVQIEOhdIF5j3/vGZ7IvZg/ls0GKpWYj847NX3tXXblEULF3TlcSmCQwnfevst3PsBIgMH2B4vXnO1i5nV1gyn2cJUCAAAECBAgQIECAAAECBBogYBeYBgyiLhAgQIAAAQIECBAgQIAAAQLlAgIg5T7OEiBAgAABAgQIECBAgAABAg0QEABpwCDqAgECBAgQIECAAAECBAgQIFAuIABS7uMsAQIECBAgQIAAAQIECBAg0AABAZAGDKIuECBAgAABAgQIECBAgAABAuUCAiDlPs4SIECAAAECBAgQIECAAAECDRAQAGnAIOoCAQIECBAgQIAAAQIECBAgUC4gAFLu4ywBAgQIECBAgAABAgQIECDQAAEBkAYMoi4QIECAAAECBAgQIECAAAEC5QICIOU+zhIgQIAAAQIECBAgQIAAAQINEBAAacAg6gIBAgQIECBAgAABAgQIECBQLiAAUu7jLAECBAgQIECAAAECBAgQINAAAQGQBgyiLhAgQIAAAQIECBAgQIAAAQLlAgIg5T7OEiBAgAABAgQIECBAgAABAg0QEABpwCDqAgECBAgQIECAAAECBAgQIFAuIABS7uMsAQIECBAgQIAAAQIECBAg0AABAZAGDKIuECBAgAABAgQIECBAgAABAuUCAiDlPs4SIECAAAECBAgQIECAAAECDRAQAGnAIOoCAQIECBAgQIAAAQIECBAgUC4gAFLu4ywBAgQIECBAgAABAgQIECDQAAEBkAYMoi4QIECAAAECBAgQIECAAAEC5QICIOU+zhIgQIAAAQIECBAgQIAAAQINEBAAacAg6gIBAgQIECBAgAABAgQIECBQLiAAUu7jLAECBAgQIECAAAECBAgQINAAAQGQBgyiLhAgQIAAAQIECBAgQIAAAQLlAgIg5T7OEiBAgAABAgQIECBAgAABAg0QEABpwCDqAgECBAgQIECAAAECBAgQIFAuIABS7uMsAQIECBAgQIAAAQIECBAg0AABAZAGDKIuECBAgAABAgQIECBAgAABAuUCAiDlPs4SIECAAAECBAgQIECAAAECDRAQAGnAIOoCAQIECBAgQIAAAQIECBAgUC4gAFLu4ywBAgQIECBAgAABAgQIECDQAAEBkAYMoi4QIECAAAECBAgQIECAAAEC5QICIOU+zhIgQIAAAQIECBAgQIAAAQINEBAAacAg6gIBAgQIECBAgAABAgQIECBQLnBM+WlnCRAgQIAAAQLNEbhp5dfT/Q+szzt0ycXvTh9ddlFp5zZs3Jyu+dhf5dcsmH9i+sJnP5JGRuaUPsZJAgQIECBAoJoCZoBUc1y0igABAgQIEBiAwFVLz02jW3ekzVteSqtWr0lr123qepe45ooP3ZxfG4+5Yfnlgh9dtZwgQIAAAQLVFxAAqf4YaSEBAgQIECDQJ4GYxfHBLAhSlFWr7+1YcxH8GN26PT9/+63XpcWLFnS81kECBAgQIECgHgICIPUYJ60kQIAAAQIE+iRw1ZVL0si88WUsMQOkfRZI68yPuOXKGz8g+NEne9UQIECAAIEjKSAAciT13ZsAAQIECBCYdYHI4XHtsgsn7rt8xVcm/t0e/FiRLXu5NMsVohAgQIAAAQL1FxAAqf8Y6gEBAgQIECAwTYFYBlMsaSnygYyObs8TnsbvUSJB6lVLl0yzZpcTIECAAAECVRU46kBWqto47SJAgAABAgQIDEoglr5EktMosSRmwfwTUuz6EiWCH62zRAbVBvUSIECAAAECsydgBsjsWbsTAQIECBAgUCGBs85cmOInSiQ7Ffyo0OBoCgECBAgQGICAAMgAUFVJgAABAgQI1EPg2mymR2uJgIiZH/UYO60kQIAAAQLTFRAAma6Y6wkQIECAAIFGCESuj9YEqNGpmAVS5ABpRCd1ggABAgQIEJgQEADxZCBAgAABAgSGTiASnkb+jyLYsWD+iblBLIW5aeXXh85DhwkQIECAwDAICIAMwyjrIwECBAgQIDAhkAc/rn41+BEJT++74/o8EWqU+x9YnyJBqkKAAAECBAg0S0AApFnjqTcECBAgQIDAFALL//y2QxKejozMSbE1blFWrb53ilqcJkCAAAECBOomIABStxHTXgIECBAgQGDGAstX3JbP8IgSAY/WhKdXXbkk2wp3fClMzAC5656HZnwfDyRAgAABAgSqJyAAUr0x0SICBAgQIEBgAAKfz2Z13HXPg3nNl178nnTD8ssm3SVmgaxYfvnEscgFEstlFAIECBAgQKAZAgIgzRhHvSBAgAABAgRKBCL4sWr1mvyKxYsWpJU3vr/j1eedc0aKrXCjRELUL3/tOx2vc5AAAQIECBCon4AASP3GTIsJECBAgACBaQi0Bz9uv+W60kdfmyVFLcqXvvpt2+KWajlJgAABAgTqI3DUgazUp7laSoAAAQIECBDoXSCWsGzYtHniAYsXLkix1GWq0roLTOQFKXKDTPU45wkQIECAAIHqCgiAVHdstIwAAQIECBAgQIAAAQIECBDok4AlMH2CVA0BAgQIECBAgAABAgQIECBQXQEBkOqOjZYRIECAAAECBAgQIECAAAECfRIQAOkTpGoIECBAgAABAgQIECBAgACB6goIgFR3bLSMAAECBAgQIECAAAECBAgQ6JOAAEifIFVDgAABAgQIECBAgAABAgQIVFdAAKS6Y6NlBAgQIECAAAECBAgQIECAQJ8EBED6BKkaAgQIECBAgAABAgQIECBAoLoCAiDVHRstI0CAAAECBAgQIECAAAECBPokIADSJ0jVECBAgAABAgQIECBAgAABAtUVEACp7thoGQECBAgQIECAAAECBAgQINAnAQGQPkGqhgABAgQIECBAgAABAgQIEKiugABIdcdGywgQIECAAAECBAgQIECAAIE+CQiA9AlSNQQIECBAgAABAgQIECBAgEB1BQRAqjs2WkaAAAECBAgQIECAAAECBAj0SeD/A44eR+ojkN3pAAAAAElFTkSuQmCC;clipPath=inset(1.56% 4% 18.23% 0%);" vertex="1" parent="1">
          <mxGeometry x="94.5" y="3010" width="428" height="228.86111111111111" as="geometry" />
        </mxCell>
        <mxCell id="vVD12n-NJjttuo7cWdmi-124" value="" style="endArrow=classic;startArrow=classic;html=1;rounded=0;entryX=0.65;entryY=0.996;entryDx=0;entryDy=0;entryPerimeter=0;exitX=0.459;exitY=1.001;exitDx=0;exitDy=0;exitPerimeter=0;" edge="1" parent="1" source="vVD12n-NJjttuo7cWdmi-123" target="vVD12n-NJjttuo7cWdmi-123">
          <mxGeometry width="50" height="50" relative="1" as="geometry">
            <mxPoint x="302.5" y="3350" as="sourcePoint" />
            <mxPoint x="372.5" y="3300" as="targetPoint" />
          </mxGeometry>
        </mxCell>
        <mxCell id="vVD12n-NJjttuo7cWdmi-125" value="range" style="text;html=1;strokeColor=none;fillColor=none;align=center;verticalAlign=middle;whiteSpace=wrap;rounded=0;" vertex="1" parent="1">
          <mxGeometry x="302" y="3238.86" width="60" height="30" as="geometry" />
        </mxCell>
        <mxCell id="vVD12n-NJjttuo7cWdmi-126" value="range" style="endArrow=classic;startArrow=classic;html=1;rounded=0;entryX=0.65;entryY=0.996;entryDx=0;entryDy=0;entryPerimeter=0;exitX=0.459;exitY=1.001;exitDx=0;exitDy=0;exitPerimeter=0;" edge="1" parent="1">
          <mxGeometry width="50" height="50" relative="1" as="geometry">
            <mxPoint x="372.5" y="3311" as="sourcePoint" />
            <mxPoint x="454.5" y="3310" as="targetPoint" />
          </mxGeometry>
        </mxCell>
        <mxCell id="vVD12n-NJjttuo7cWdmi-127" value="1.5xrange" style="endArrow=classic;startArrow=classic;html=1;rounded=0;exitX=0.459;exitY=1.001;exitDx=0;exitDy=0;exitPerimeter=0;" edge="1" parent="1">
          <mxGeometry width="50" height="50" relative="1" as="geometry">
            <mxPoint x="370.5" y="3250" as="sourcePoint" />
            <mxPoint x="487.5" y="3250" as="targetPoint" />
          </mxGeometry>
        </mxCell>
        <mxCell id="vVD12n-NJjttuo7cWdmi-128" value="1.5xrange" style="endArrow=classic;startArrow=classic;html=1;rounded=0;exitX=0.459;exitY=1.001;exitDx=0;exitDy=0;exitPerimeter=0;" edge="1" parent="1">
          <mxGeometry width="50" height="50" relative="1" as="geometry">
            <mxPoint x="174" y="3250" as="sourcePoint" />
            <mxPoint x="291" y="3250" as="targetPoint" />
          </mxGeometry>
        </mxCell>
        <mxCell id="vVD12n-NJjttuo7cWdmi-129" value="" style="endArrow=none;html=1;rounded=0;" edge="1" parent="1">
          <mxGeometry width="50" height="50" relative="1" as="geometry">
            <mxPoint x="174.76" y="3198.86" as="sourcePoint" />
            <mxPoint x="174.76" y="3268.86" as="targetPoint" />
          </mxGeometry>
        </mxCell>
        <mxCell id="vVD12n-NJjttuo7cWdmi-130" value="" style="endArrow=none;html=1;rounded=0;" edge="1" parent="1">
          <mxGeometry width="50" height="50" relative="1" as="geometry">
            <mxPoint x="489.76" y="3198.86" as="sourcePoint" />
            <mxPoint x="489.76" y="3268.86" as="targetPoint" />
          </mxGeometry>
        </mxCell>
        <mxCell id="vVD12n-NJjttuo7cWdmi-131" value="" style="endArrow=classic;html=1;rounded=0;" edge="1" parent="1">
          <mxGeometry width="50" height="50" relative="1" as="geometry">
            <mxPoint x="170" y="3270" as="sourcePoint" />
            <mxPoint x="100" y="3270" as="targetPoint" />
          </mxGeometry>
        </mxCell>
        <mxCell id="vVD12n-NJjttuo7cWdmi-132" value="" style="endArrow=classic;html=1;rounded=0;" edge="1" parent="1">
          <mxGeometry width="50" height="50" relative="1" as="geometry">
            <mxPoint x="490" y="3270" as="sourcePoint" />
            <mxPoint x="600" y="3270" as="targetPoint" />
          </mxGeometry>
        </mxCell>
        <mxCell id="vVD12n-NJjttuo7cWdmi-133" value="outlier" style="text;html=1;strokeColor=none;fillColor=none;align=center;verticalAlign=middle;whiteSpace=wrap;rounded=0;" vertex="1" parent="1">
          <mxGeometry x="94.5" y="3280" width="60" height="30" as="geometry" />
        </mxCell>
        <mxCell id="vVD12n-NJjttuo7cWdmi-134" value="outlier" style="text;html=1;strokeColor=none;fillColor=none;align=center;verticalAlign=middle;whiteSpace=wrap;rounded=0;" vertex="1" parent="1">
          <mxGeometry x="530" y="3280" width="60" height="30" as="geometry" />
        </mxCell>
        <mxCell id="vVD12n-NJjttuo7cWdmi-135" value="outlier = anomaly = NOT NORMAL, ABNORMAL = kapsam disi = out of scope" style="text;html=1;strokeColor=none;fillColor=none;align=center;verticalAlign=middle;whiteSpace=wrap;rounded=0;" vertex="1" parent="1">
          <mxGeometry x="75" y="3340" width="205" height="60" as="geometry" />
        </mxCell>
        <mxCell id="vVD12n-NJjttuo7cWdmi-136" value="shape = sekil" style="text;html=1;strokeColor=none;fillColor=none;align=center;verticalAlign=middle;whiteSpace=wrap;rounded=0;" vertex="1" parent="1">
          <mxGeometry x="550" y="3080" width="60" height="30" as="geometry" />
        </mxCell>
        <mxCell id="vVD12n-NJjttuo7cWdmi-137" value="" style="rounded=0;whiteSpace=wrap;html=1;" vertex="1" parent="1">
          <mxGeometry x="140" y="3228.86" width="10" height="10" as="geometry" />
        </mxCell>
        <mxCell id="vVD12n-NJjttuo7cWdmi-138" value="" style="endArrow=classic;startArrow=classic;html=1;rounded=0;" edge="1" parent="1">
          <mxGeometry width="50" height="50" relative="1" as="geometry">
            <mxPoint x="110" y="3570" as="sourcePoint" />
            <mxPoint x="530" y="3570" as="targetPoint" />
          </mxGeometry>
        </mxCell>
        <mxCell id="vVD12n-NJjttuo7cWdmi-139" value="std = 0" style="text;html=1;strokeColor=none;fillColor=none;align=center;verticalAlign=middle;whiteSpace=wrap;rounded=0;" vertex="1" parent="1">
          <mxGeometry x="90" y="3530" width="60" height="30" as="geometry" />
        </mxCell>
        <mxCell id="vVD12n-NJjttuo7cWdmi-140" value="std = 1000" style="text;html=1;strokeColor=none;fillColor=none;align=center;verticalAlign=middle;whiteSpace=wrap;rounded=0;" vertex="1" parent="1">
          <mxGeometry x="497.5" y="3520" width="60" height="30" as="geometry" />
        </mxCell>
        <mxCell id="vVD12n-NJjttuo7cWdmi-141" value="" style="endArrow=none;html=1;rounded=0;" edge="1" parent="1">
          <mxGeometry width="50" height="50" relative="1" as="geometry">
            <mxPoint x="129.52" y="3640" as="sourcePoint" />
            <mxPoint x="129.52" y="3480" as="targetPoint" />
          </mxGeometry>
        </mxCell>
        <mxCell id="vVD12n-NJjttuo7cWdmi-142" value="" style="endArrow=none;html=1;rounded=0;" edge="1" parent="1">
          <mxGeometry width="50" height="50" relative="1" as="geometry">
            <mxPoint x="469.52" y="3630" as="sourcePoint" />
            <mxPoint x="469.52" y="3470" as="targetPoint" />
          </mxGeometry>
        </mxCell>
        <mxCell id="vVD12n-NJjttuo7cWdmi-143" value="not important" style="text;html=1;strokeColor=none;fillColor=none;align=center;verticalAlign=middle;whiteSpace=wrap;rounded=0;" vertex="1" parent="1">
          <mxGeometry x="40" y="3480" width="60" height="30" as="geometry" />
        </mxCell>
        <mxCell id="vVD12n-NJjttuo7cWdmi-144" value="too complex, not useful" style="text;html=1;strokeColor=none;fillColor=none;align=center;verticalAlign=middle;whiteSpace=wrap;rounded=0;" vertex="1" parent="1">
          <mxGeometry x="480" y="3460" width="60" height="30" as="geometry" />
        </mxCell>
        <mxCell id="vVD12n-NJjttuo7cWdmi-145" value="useful" style="text;html=1;strokeColor=none;fillColor=none;align=center;verticalAlign=middle;whiteSpace=wrap;rounded=0;" vertex="1" parent="1">
          <mxGeometry x="154.5" y="3490" width="60" height="30" as="geometry" />
        </mxCell>
        <mxCell id="vVD12n-NJjttuo7cWdmi-146" value="can be divided into sub segments" style="text;html=1;strokeColor=none;fillColor=none;align=center;verticalAlign=middle;whiteSpace=wrap;rounded=0;" vertex="1" parent="1">
          <mxGeometry x="319" y="3490" width="60" height="30" as="geometry" />
        </mxCell>
        <mxCell id="vVD12n-NJjttuo7cWdmi-147" value="upper&lt;br&gt;bound" style="text;html=1;strokeColor=none;fillColor=none;align=center;verticalAlign=middle;whiteSpace=wrap;rounded=0;" vertex="1" parent="1">
          <mxGeometry x="460" y="3160" width="60" height="30" as="geometry" />
        </mxCell>
        <mxCell id="vVD12n-NJjttuo7cWdmi-148" value="lower&lt;br&gt;bound" style="text;html=1;strokeColor=none;fillColor=none;align=center;verticalAlign=middle;whiteSpace=wrap;rounded=0;" vertex="1" parent="1">
          <mxGeometry x="140" y="3170" width="60" height="30" as="geometry" />
        </mxCell>
        <mxCell id="vVD12n-NJjttuo7cWdmi-149" value="" style="shape=image;verticalLabelPosition=bottom;labelBackgroundColor=default;verticalAlign=top;aspect=fixed;imageAspect=0;image=data:image/png,iVBORw0KGgoAAAANSUhEUgAABEAAAAK3CAYAAACFuDrUAAAABHNCSVQICAgIfAhkiAAAIABJREFUeF7s3QuUpVV9IPqNoMirQwSCkEYTTexAHr7IFTI6GVTwXkXWZGQ0CbPG4NXAeGddfJFJMsJEcJyZhUpYd6IijI97BUQhsng4S5QYNaNgQCBg82we3U13F/2kqqu7qru6+37/0/0Vp6rOOXVO1zl1vsdvr9VL6vv2t7+9f/vrrNS//3vvA/ZkJSkECBAgQIAAAQIECBAgQIAAgQoLvKDCYzM0AgQIECBAgAABAgQIECBAgEBDQADEh0CAAAECBAgQIECAAAECBAhUXkAApPJTbIAECBAgQIAAAQIECBAgQICAAIhvgAABAgQIECBAgAABAgQIEKi8gABI5afYAAkQIECAAAECBAgQIECAAAEBEN8AAQIECBAgQIAAAQIECBAgUHkBAZDKT7EBEiBAgAABAgQIECBAgAABAgIgvgECBAgQIECAAAECBAgQIECg8gICIJWfYgMkQIAAAQIECBAgQIAAAQIEBEB8AwQIECBAgAABAgQIECBAgEDlBQRAKj/FBkiAAAECBAgQIECAAAECBAgIgPgGCBAgQIAAAQIECBAgQIAAgcoLCIBUfooNkAABAgQIECBAgAABAgQIEBAA8Q0QIECAAAECBAgQIECAAAEClRcQAKn8FBsgAQIECBAgQIAAAQIECBAgIADiGyBAgAABAgQIECBAgAABAgQqLyAAUvkpNkACBAgQIECAAAECBAgQIEBAAMQ3QIAAAQIECBAgQIAAAQIECFReQACk8lNsgAQIECBAgAABAgQIECBAgIAAiG+AAAECBAgQIECAAAECBAgQqLyAAEjlp9gACRAgQIAAAQIECBAgQIAAAQEQ3wABAgQIECBAgAABAgQIECBQeQEBkMpPsQESIECAAAECBAgQIECAAAECAiC+AQIECBAgQIAAAQIECBAgQKDyAgIglZ9iAyRAgAABAgQIECBAgAABAgQEQHwDBAgQIECAAAECBAgQIECAQOUFBEAqP8UGSIAAAQIECBAgQIAAAQIECAiA+AYIECBAgAABAgQIECBAgACBygsIgFR+ig2QAAECBAgQIECAAAECBAgQEADxDRAgQIAAAQIECBAgQIAAAQKVFxAAqfwUGyABAgQIECBAgAABAgQIECAgAOIbIECAAAECBAgQIECAAAECBCovIABS+Sk2QAIECBAgQIAAAQIECBAgQEAAxDdAgAABAgQIECBAgAABAgQIVF5AAKTyU2yABAgQIECAAAECBAgQIECAgACIb4AAAQIECBAgQIAAAQIECBCovIAASOWn2AAJECBAgAABAgQIECBAgAABARDfAAECBAgQIECAAAECBAgQIFB5AQGQyk+xARIgQIAAAQIECBAgQIAAAQICIL4BAgQIECBAgAABAgQIECBAoPICAiCVn2IDJECAAAECBAgQIECAAAECBARAfAMECBAgQIAAAQIECBAgQIBA5QUEQCo/xQZIgAABAgQIECBAgAABAgQICID4BggQIECAAAECBAgQIECAAIHKCwiAVH6KDZAAAQIECBAgQIAAAQIECBAQAPENECBAgAABAgQIECBAgAABApUXEACp/BQbIAECBAgQIECAAAECBAgQICAA4hsgQIAAAQIECBAgQIAAAQIEKi8gAFL5KTZAAgQIECBAgAABAgQIECBAQADEN0CAAAECBAgQIECAAAECBAhUXkAApPJTbIAECBAgQIAAAQIECBAgQICAAIhvgAABAgQIECBAgAABAgQIEKi8gABI5afYAAkQIECAAAECBAgQIECAAAEBEN8AAQIECBAgQIAAAQIECBAgUHkBAZDKT7EBEiBAgAABAgQIECBAgAABAgIgvgECBAgQIECAAAECBAgQIECg8gICIJWfYgMkQIAAAQIECBAgQIAAAQIEBEB8AwQIECBAgAABAgQIECBAgEDlBQRAKj/FBkiAAAECBAgQIECAAAECBAgIgPgGCBAgQIAAAQIECBAgQIAAgcoLCIBUfooNkAABAgQIECBAgAABAgQIEBAA8Q0QIECAAAECBAgQIECAAAEClRcQAKn8FBsgAQIECBAgQIAAAQIECBAgIADiGyBAgAABAgQIECBAgAABAgQqLyAAUvkpNkACBAgQIECAAAECBAgQIEBAAMQ3QIAAAQIECBAgQIAAAQIECFReQACk8lNsgAQIECBAgAABAgQIECBAgIAAiG+AAAECBAgQIECAAAECBAgQqLyAAEjlp9gACRAgQIAAAQIECBAgQIAAAQEQ3wABAgQIECBAgAABAgQIECBQeQEBkMpPsQESIECAAAECBAgQIECAAAECAiC+AQIECBAgQIAAAQIECBAgQKDyAgIglZ9iAyRAgAABAgQIECBAgAABAgQEQHwDBAgQIECAAAECBAgQIECAQOUFBEAqP8UGSIAAAQIECBAgQIAAAQIECAiA+AYIECBAgAABAgQIECBAgACBygscVPkRGiABAgQIEBiSwOjotnTXPY+l1Ws2ptGxbWnJEYemE5ctTaec/Kque7T8kdXTz56UPat0L9AP/zvvfjQ91DQHp5/26rT0+KO674SaMwSaPePGSctOaPyd6GSa/x3ohrKXv1vdtKcOAQIECFRL4IA9WanWkIyGAAECBAgMVyB+8b70099Mt3//vkbwYnaJX/YuOP+d6eyzTp19a/rnCJpc8YVb0w03/7hxLX6xu+7qj7at78bzAuF/xZVh95P99o9f1C+8+CuN4NXscvZZv5fN35kdf2mf/Uzdf/7SNXc0vudWfx/CppPpm97+ly3noZXpk/dd2eqyawQIECBAoCEgAOJDIECAAAECfRSIf63+o/d/ZsYvehHwiD+z/yU7MjquvPyDM36Rnh34yLsmANLdJIXxeR/+3IxfmHvxj7dE8CPmMC8xT5G90zx/0eZtX/94WrLk0O46VtNaEYw67yOfb5jmJSyXHv+Sxo9hmpcwvfjC96TIsmku3QZA4vkffftTM571AwECBAgQaBYQAPE9ECBAgACBPglE8OId7/nk9JKV953zlnTuH795xi/JswMc8cv1dVd9tFEnfhl8x3sune5N/KIYJf7VXABk/klaqH/+hvwX7viF+rJL/mTGkqXIYvjrL9zSqBq/rJ97zpvn71iNa8T3nAc5zjjtNZnXW2Z4RoDk9r+/P8sOuWU6aHXb9RdlS2O6W+513oc/38i0ir8rt13/cVk5Nf7WDJ0AAQLdCNgEtRsldQgQIECAQBcCeeZHIzsg+2UslknMzhDY+0v1e9OHsiUwUeKXwy9f+3eN/84zDeKXubj/o9v+c/aL3SFdvFmVEGj2j+VCvfpHG5GpkC97iWVKs/eUaLS5LzB1592PgO8gEIGiPPgR3/OVl/+7OZ7x9yOWgsV8xd+NKJHBE4GR+Uq0H8GPKNF2/vx8z7lPgAABAvUVEACp79wbOQECBAj0UeDGbL+J5l+c5/tlLH6Rjn0PosT+CPkvfPGL3P0/urzlL+997G7lmprtP18GQTv/PNMmsnfa7dGSt91uP4vK4e7HgOJ7jjmJku/v0amZPNsm6sTfoxtvubNT9cbfmcjGiRKZOLMDVR0fdpMAAQIEaisgAFLbqTdwAgQIEOinQL5Zafwi1+4X59nvi+UAUeIX6fwXPr/IzVbq7ud++cfbYg4uuvDdbV+cB7ryTJC2FWt8Iz/9KAjy73w+jnDPv//bv39v2+r5MrKoEJklliG1pXKDAAECBGYJCID4JAgQIECAQB8Emvc56La5yCTIM0WWP7Kq28fUayGwWP6x7CIPgJye7WmhtBbIlwdFkGi+bJzmFs447bWNH5s3TW2+H/bNmwxHoOTCi7/a9SkxrXvrKgECBAjURUAApC4zbZwECBAgMFCBfDnESctO6Ok9eQBk9ZoNPT2n8kyB3H/p8Uf3RNOLfxyrmy+7iEyFbjN9eupQRSqPjm1vjKSX4EfUb97zJg80zSaJ6xFYiT8R+Irsn9i49rvfv392VT8TIECAAIEZAgfxIECAAAECBPonkP/i19xi7IcwunXvL4RLDj9kzsao/Xu7lloJ9MM/gh8XXvyVRvPN+1W0ep9rzwu02yelObgx3345zZ5Rt/mUmMgUiXmJ9j6W/W9j42BHE/sECRAgQKCNgAyQNjAuEyBAgACBXgTy/SBaZXLEL2TxS1r8K/Wb3vEfZ6Tr50s3es0c6aVvdajbKZOjk3/+i3gn/1j2kgc/GscWN51YUgfb/Rljnsmxes2mlo/H6S2Nvw/Zny9fs/cUpKiYLwWLv0/tAiPNWSWRiRNHFUdp3kun5UtdJECAAIHaCwiA1P4TAECAAAEC/RA4Y99+EJEp0Kpc+dm9x3TGL2mNPQyyrJD41+v8X8hPOXlZq8dc61Ig9wv/VkeotvPPAyAntlm6FMGPfNlLI/hx1fPHtXbZtVpWy/dHie+71X4eccpOfhT0JZddP10nP9a2l6UzEQTpFACr5QQYNAECBAi0FBAAacniIgECBAgQ6E3gXWed2nggfuFr/hftvJXIQsgzB+KX7vM+8vl0afaLX5T45e30017d2wvVniEww//a5zMKuvVvtZ9Hc/AjfsmO4IflFd19eM1Bifw7n/1k81HE533486l5g9l37TsiOv6uxCankSnSKrCVt9lq6dns9/mZAAECBAgIgPgGCBAgQIBAHwSaj/CMf9FuFQSJQMeVl3+wsXlj/Kt4vvzlguwoT2VhAs3+8Yv0Qv2bgx9nZ7+MR/BK8KO3Ocq/6/jOI4jRqlx2yXsbG6VG4DDPtIm/J80BqdjkNAIhV1x5a6smZmRStcvkafmgiwQIECBQO4ED/yortRu1ARMgQIAAgQEIxDKM72Z7G8S/Rv/gxz9Pz2T7HzROq8g2Pj344Bc2/gX7rnseTfc+8ESjTpRYOvMfLviDtr358jV3NOru/aXw99rWcyOlbv1XPLU2rd842tZ/9rKX89/3vzd+AW/1p90+FeYjToA5IY1l3+69DzzZ2Nvjxmx5Un56S/xv/H2Iexs2js3Y++Nv/78/b9SLEv97VxYsDPuoGyVO+snv55ug5n9HPr1vPxD+BAgQIECglcABe7LS6oZrBAgQIECAQO8C8Yta7PGR7y3RTQuRXRAZDK1KpP5HW40lGFk9pbPAQv3jKNU//fDnOr+k6e6T913Zdd26VozMjggqdVtif5CLLnz3dPUIlLzjDz854+9UBJ4i6JHvoRMBkfj70cveId32Rz0CBAgQqI6AJTDVmUsjIUCAAIECCMQvZj/69qcaJ1O0yw7Igxn5JpCx/0EvAZMCDLOwXViof7tjWws74BJ0LPb6iKNr842CZ3c55iz+LkSdCGR8Kct6al7ClO+fE0uR8hJ/X57fQHhvcFDwY7asnwkQIEBgtoAMkNkifiZAgAABAn0UyJdNPJP9whb7Eyw97iX2kuij73xN8Z9PaHHvRzbH8kdXN5bGRDkx2/+jXaCwVc/y5+PvU5Q3NJ0A06q+awQIECBAoFlAAMT3QIAAAQIECBAgQIAAAQIECFRewBKYyk+xARIgQIAAAQIECBAgQIAAAQICIL4BAgQIECBAgAABAgQIECBAoPICAiCVn2IDJECAAAECBAgQIECAAAECBARAfAMECBAgQIAAAQIECBAgQIBA5QUEQCo/xQZIgAABAgQIECBAgAABAgQICID4BggQIECAAAECBAgQIECAAIHKCwiAVH6KDZAAAQIECBAgQIAAAQIECBAQAPENECBAgAABAgQIECBAgAABApUXEACp/BQbIAECBAgQIECAAAECBAgQICAA4hsgQIAAAQIECBAgQIAAAQIEKi8gAFL5KTZAAgQIECBAgAABAgQIECBAQADEN0CAAAECBAgQIECAAAECBAhUXkAApPJTbIAECBAgQIAAAQIECBAgQICAAIhvgAABAgQIECBAgAABAgQIEKi8gABI5afYAAkQIECAAAECBAgQIECAAAEBEN8AAQIECBAgQIAAAQIECBAgUHkBAZDKT7EBEiBAgAABAgQIECBAgAABAgIgvgECBAgQIECAAAECBAgQIECg8gICIJWfYgMkQIAAAQIECBAgQIAAAQIEBEB8AwQIECBAgAABAgQIECBAgEDlBQRAKj/FBkiAAAECBAgQIECAAAECBAgIgPgGCBAgQIAAAQIECBAgQIAAgcoLCIBUfooNkAABAgQIECBAgAABAgQIEBAA8Q0QIECAAAECBAgQIECAAAEClRcQAKn8FBsgAQIECBAgQIAAAQIECBAgIADiGyBAgAABAgQIECBAgAABAgQqL3BQ5UdYggGuXrMxxZ+8LD3+qBR/FAIECBCorsAVX7g1XXD+mdUdoJERIECAAAECBAomIABSgAmJ/yf4hpt/PN2TD53/Tv9PcQHmRRcIECBAoB4Cyx9ZnU5atrQegy3BKO+8+9F0ysmvKkFPdZEAAQIEyiZgCUzZZkx/CRAgQIAAgb4KPPTIqr62p7GFCdyVBUAUAgQIECAwCAEBkEGoapMAAQIECBAgQIAAAQIECBAolIAASKGmQ2cIECBAgAABAgQIECBAgACBQQgIgAxCVZsECBAgQIAAAQIECBAgQIBAoQQEQAo1HTpDgAABAgQIECBAgAABAgQIDEJAAGQQqtokQIAAAQIECBAgQIAAAQIECiUgAFKo6dAZAgQIECBAgAABAgQIECBAYBACAiCDUNUmAQIECBAgQIAAAQIECBAgUCgBAZBCTYfOECBAgAABAgQIECBAgAABAoMQEAAZhKo2CRAgQIAAAQIECBAgQIAAgUIJCIAUajp0hgABAgQIECBAgAABAgQIEBiEgADIIFS1SYAAAQIECBAgQIAAAQIECBRKQACkUNOhMwQIECBAgAABAgQIECBAgMAgBARABqGqTQIECBAgQIAAAQIECBAgQKBQAgIghZoOnSFAgAABAgQIECBAgAABAgQGISAAMghVbRIgQIAAAQIECBAgQIAAAQKFEjioUL3Z15nR0W3pu39/f1q9ZmPjyknLTkgnLlualh5/1IK6e+fdjzaeX3LEoVmbSxfUlocJECBAgAABAgQIECBAgACB8ggULgDypWvuSFd84dY0OrZtjuIF55+ZPnT+O+dc7+bCjTf/JH3s4q80ql52yZ8IgHSDpg4BAgQIECBAgAABAgQIEKiIQKGWwPz1F25Jl172jengR2R8nHLyq6apIzBy4cVf3S/6aDtKtHn2WafuVxseIkCAAAECBAgQIECAAAECBMopUJgMkFjuEgGOKBGkuO7qj04veYl7ERi5/fv3pRtu/nE647TXpNNPe3XX4pFVki+niewPhQABAgQIECBAgAABAgQIEKiXQGEyQPLgR/A3Bz/i5wiIXPaJ904HRL50zfe6nqUIfHw5C4BEiWyS5oySrhtRkQABAgQIECBAgAABAgQIECi1QGECIJHZEeXss36v5WanS5Ycmt53zlsbdWIz0+WPrO4KPtqV/dEVlUoECBAgQIAAAQIECBAgQKCyAoUIgOSns4RyLG9pV5qXvTz0yKp21aavNy+raRdYmbcRFQgQIECAAAECBAgQIECAAIHSCxRiD5Bn9h13G5q/3OGo2+ZjcJdnAZB3pc6bmTYvq4kTZPIS2SNxysz+HId7Q3aazI37slX6NfvdZrP0633aIUCAAAECBAgQIECAAAECdRMoRABkdGz7tPuSIw7pOAcRBInMjuZnWj0Qddotq7n0susby2hiP5DYb6SXEs80B2J6ebZd3dijJDZ4VQgQIECAAAECBAgQIECAAIHBCBQiANLL0OYLfORttcv+6OVdrepG8KPfAZAbs6wShQABAgQIECBAgAABAgQIEBicQCH2AJkv66N5+LF0JUqnIESn7I/BUWqZAAECBAgQIECAAAECBAgQKKpAITJATlx2wrTPXdnSlKVntd7bo3mvjJOanpmN25z9sXrNhnThxV+dUSU/FSbai3sRgLnownfPbsbPBAgQIECAQEUExnZPpY27ptKW+N+dk2l0KvvvPbsao7vm2afTlx55QTr2hQengw84IC056EXp1w4+NB39ohenX3vRIemXsv89NrumECBAgAABAuUWKEQA5KRlSxsbkkZ2R+zb8a42AZDmzUdPzJ5pV+68+5HpW3tPmHm0ZdX8fZFNIgDSkshFAgQIECBQSoFnd+1Ma6Ym0+rt42l19t+Te3bPO46RLDDSKDsm0oPbRmfUj+DIy7NAyBuPPCb91ouPEBCZV1MFAgQIECBQPIFCBECC5X3nvCX99RduaWxOmm9Q2swVWRv5RqHzbUQaR+l22isk2ongRwQ+Tjl5WSMDRCFAgAABAgTKLRABj8d3bE8rJrel0Szbo58lgiPx56fjzzWafVkWDHndYUems15ynGBIP6G1RYAAAQIEBihQmADIuX/85vSl7DSUCExcePFX0gXnvzOdvS8TJAIicS1funLZJX8yTRLPxJKXCIpc9on3piVLDp03m2P1+zc0giwRALnskvcOkFfTBAgQIECAwCAFJvfsST+bGE1PbBtPG/b0N+jRqd8rsyyRlTvWpZs2r2sEQ84+Zml6y+FHdXrEPQIECBAgQGDIAoUJgETg4tNZYONPP/y5RqAjAh7xZ3b5UBYYad4ANZbFRNAksjrOzbJIIhCiECBAgAABAtUWGN29K903MZaWb9/a1fKWQWpEMOSzzzyernnhqvTbhxyR/viYE2SFDBJc2wQIECBAYD8FCnEKTN730097dfrRtz+VYk+Q2SWCHl+8/INZZsiZM26dcdprGz8P4nja2X3wMwECBAgQIDBcgQh83LF1Y/rypmfSvdk+Hd3s7bFYPY4lMt8b3ZDet+LedPnaFWlkasdivdp7CBAgQIAAgS4ECpMBkvc1Ahm3XX9RIwsk/oyNbU+/nF1rFRSJZyIgEpumLjn8kMbyl27KdVd/tJtq6hAgQIAAAQIFEciXuuR7cBSkW227EYGQu7ZuTu98yfHpnKOOb1vPDQIECBAgQGDxBAoXAMmH3ktGR/OSmMWj8yYCBAgQIEBgMQTum9ya7ty6pVDZHt2MeyzLVrl2w6p0x3PPpnN+6QR7hHSDpg4BAgQIEBigQGEDIAMcs6YJECBAgACBEgg0lrtkmRQrs9NdylxiaUzsEfJPS7bYH6TME6nvBAgQIFB6AQGQ0k+hARAgQIAAgeoJlDXro9NMxLKYB7aPyQbphOQeAQIECBAYoIAAyABxNU2AAAECBAj0JlCVrI92o5YN0k7GdQIECBAgMHiBQp0CM/jhegMBAgQIECBQVIE12VKXG58bKf2Sl258IxvkL1Yud1JMN1jqECBAgACBPgkIgPQJUjMECBAgQIDA/gvEkpdvbhlJo7um9r+Rkj0Z2SAXPPlP6VvZuBUCBAgQIEBg8AKWwAze2BsIECBAgACBDgI/3LYl3btttEON6t6Kk2KuHnkqbdu1y3G51Z1mIyNAgACBgggIgBRkInSDAAECBAjUTWByz550w6a1acOe+mR9tJvjOC732R3b04ePe2W7Kq4TIECAAAECCxSwBGaBgB4nQIAAAQIEeheIzU6v3SL40SwX+4L8uyfvT+N7dvUO6gkCBAgQIEBgXgEBkHmJVCBAgAABAgT6KRDBj9jstE77fXTrt3LHRPrYUw/aHLVbMPUIECBAgEAPAgIgPWCpSoAAAQIECCxMQPBjfr8IgjghZn4nNQgQIECAQK8CAiC9iqlPgAABAgQI7JeA4Ef3bHFCjCBI915qEiBAgACBbgQEQLpRUocAAQIECBBYkIDgR+98EQT5q1UP2ROkdzpPECBAgACBlgICIC1ZXCRAgAABAgT6JSD4sf+S+Z4g+9+CJwkQIECAAIFcQADEt0CAAAECBAgMVOCWzTY8XQhwBEEuX7tiIU14lgABAgQIEMgEBEB8BgQIECBAgMDABH64bUvasGdqYO3XpeE4IveajWvqMlzjJECAAAECAxEQABkIq0YJECBAgACBn2x/Lt27bRREnwSu3bAqfWvLSJ9a0wwBAgQIEKifgABI/ebciAkQIECAwMAFlu8YTz8df27g76nbC64eeSo9tXOibsM2XgIECBAg0BcBAZC+MGqEAAECBAgQyAVi09Mfjm0GMiCBS1Y9nEamdgyodc0SIECAAIHqCgiAVHdujYwAAQIECCy6wOSePenG50bS5J7di/7uurwwjsf9rE1R6zLdxkmAAAECfRQQAOkjpqYIECBAgEDdBf5hfFMa3WXT00F/Bw9me6tc9ezTg36N9gkQIECAQKUEBEAqNZ0GQ4AAAQIEhidw3+TW9ODE+PA6ULM337R5XXrAJrM1m3XDJUCAAIGFCAiALETPswQIECBAgEBDIPb9uHPrFhqLLHD5uifS+J5di/xWryNAgAABAuUUEAAp57zpNQECBAgQKJSAfT+GMx2xH8inn3lsOC/3VgIECBAgUDIBAZCSTZjuEiBAgACBogn8ZPtz9v0Y4qTEccPf2jIyxB54NQECBAgQKIeAAEg55kkvCRAgQIBAIQVi6Uv8Aq4MV+D69ascjTvcKfB2AgQIECiBgABICSZJFwkQIECAQFEFYumLMnyBsSwQ5Wjc4c+DHhAgQIBAsQUEQIo9P3pHgAABAgQKK2DpS7GmJo7GjTlRCBAgQIAAgdYCAiCtXVwlQIAAAQIEOghY+tIBZ4i3rlj9mFNhhujv1QQIECBQbAEBkGLPj94RIECAAIFCCtwxuqGQ/ap7p2IpzLXrV9edwfgJECBAgEBLAQGQliwuEiBAgAABAu0Elu8YTyunJtvddn3IAjdtXpceyJbDKAQIECBAgMBMAQEQXwQBAgQIECDQtUAsfbnLqS9dew2r4uXrnrAUZlj43kuAAAEChRUQACns1OgYAQIECBAonsA/btuSRndNFa9jejRDYGTnZLppkxN6fBYECBAgQKBZQADE90CAAAECBAh0JbAmW/by4MR4V3VVGr7AtRtWpZFqxDC0AAAgAElEQVSpHcPviB4QIECAAIGCCAiAFGQidIMAAQIECBRd4DtjG4veRf2bJfDZtSuYECBAgAABAvsEBEB8CgQIECBAgMC8Aj/Z/pylL/MqFa/Cg9lmqHdsFbgq3szoEQECBAgMQ0AAZBjq3kmAAAECBEokEBuf/tTGpyWasZldvWrtkzZELe3s6TgBAgQI9FNAAKSfmtoiQIAAAQIVFIiNT5XyCoxlAaxr168u7wD0nAABAgQI9ElAAKRPkJohQIAAAQJVFFi+Y9zGpxWY2Js2r0sPZMthFAIECBAgUGcBAZA6z76xEyBAgACBeQTusvRlHqHy3P7axmfK01k9JUCAAAECAxAQABkAqiYJECBAgEAVBGx8WoVZfH4MsSHqt7aMVGtQRkOAAAECBHoQEADpAUtVAgQIECBQFwEbn1Zzpq9fv8qGqNWcWqMiQIAAgS4EBEC6QFKFAAECBAjUTcDGp9WccRuiVnNejYoAAQIEuhMQAOnOSS0CBAgQIFAbARufVnuqbYha7fk1OgIECBBoLyAA0t7GHQIECBAgUEsBG59Wf9ptiFr9OTZCAgQIEJgrIAAy18QVAgQIECBQWwEbn9Zj6mND1Du2bqzHYI2SAAECBAjsExAA8SkQIECAAAECDQEbn9brQ7hq7ZM2RK3XlBstAQIEai8gAFL7TwAAAQIECBDYK2Dj03p9CbEh6k2bHItbr1k3WgIECNRbQACk3vNv9AQIECBAoCGwZmoyPTgxTqNmAtduWJVGpnbUbNSGS4AAAQJ1FRAAqevMGzcBAgQIEGgS+M6Y/SDq+kF8du2Kug7duAkQIECgZgICIDWbcMMlQIAAAQKzBeLY29FdU7Mv+7kmArEh6gPZH4UAAQIECFRdQACk6jNsfAQIECBAoINAbHzq2NsOQDW5dfm6J2oyUsMkQIAAgToLCIDUefaNnQABAgRqLxAbn8r+qP1nkEZ2TqZrNq4BQYAAAQIEKi0gAFLp6TU4AgQIECDQXiCyP2x82t6nbndu2bTGsbh1m3TjJUCAQM0EBEBqNuGGS4AAAQIEcoEfjm6AQWBaII7FvXb9aiIECBAgQKCyAgIglZ1aAyNAgAABAu0FYuPTFdnRtwqBZoGbNq+zIapPggABAgQqKyAAUtmpNTACBAgQINBewMan7W3qfudrG5+pO4HxEyBAgEBFBQRAKjqxhkWAAAECBNoJ3De51can7XBcT47F9REQIECAQFUFBECqOrPGRYAAAQIEWgjExqf3bhttccclAs8LxLG443t2ISFAgAABApUSEACp1HQaDAECBAgQ6Czg2NvOPu7uFYhjcW/aNIKDAAECBAhUSkAApFLTaTAECBAgQKC9gGNv29u4M1fAsbhzTVwhQIAAgXILCICUe/70ngABAgQIdC0Q2R8KgW4FHIvbrZR6BAgQIFAWAQGQssyUfhIgQIAAgQUIxLG3D06ML6AFj9ZRII7FfWrnRB2HbswECBAgUEEBAZAKTqohESBAgACB2QKOvZ0t4uduBT6/7sluq6pHgAABAgQKLSAAUujp0TkCBAgQILBwgcj+GN01tfCGtFBLAcfi1nLaDZoAAQKVFBAAqeS0GhQBAgQIENgrEBufyv7wNSxU4HMjskAWauh5AgQIEBi+gADI8OdADwgQIECAwMAEfj65VfbHwHTr0/DKHRPpW1sci1ufGTdSAgQIVFNAAKSa82pUBAgQIEAgRfbHT8efI0GgLwLXr1+Vxvfs6ktbGiFAgAABAsMQEAAZhrp3EiBAgACBRRBw7O0iINfoFXEs7k2bZIHUaMoNlQABApUTEACp3JQaEAECBAgQSI3sD8fe+hL6LXDLpjVpZGpHv5vVHgECBAgQWBQBAZBFYfYSAgQIECCwuAJ3jG5Y3Bd6Wy0EIgvk2mwpjEKAAAECBMooIABSxlnTZwIECBAg0EEgjr1dOTXZoYZbBPZf4HtZcO2BbaP734AnCRAgQIDAkAQEQIYE77UECBAgQGBQAo69HZSsdnOBr218BgYBAgQIECidgABI6aZMhwkQIECAQHuByP4Y3TXVvoI7BPog8GCWASILpA+QmiBAgACBRRUQAFlUbi8jQIAAAQKDE4iNT2V/DM5XyzMFLl/3BBICBAgQIFAqAQGQUk2XzhIgQIAAgfYCP5/cKvujPY87fRYY2TmZvrXFsbh9ZtUcAQIECAxQQABkgLiaJkCAAAECiyUQ2R8/HX9usV7nPQQaAtdnJ8KM79lFgwABAgQIlEJAAKQU06STBAgQIECgs8A/btvSuYK7BAYgEMfi3rRJFsgAaDVJgAABAgMQEAAZAKomCRAgQIDAYgpE9seDE+OL+UrvIjAtcMumNbJAfA8ECBAgUAoBAZBSTJNOEiBAgACB9gKyP9rbuDN4gcgCuXb96sG/yBsIECBAgMACBQRAFgjocQIECBAgMEyBNVOTsj+GOQHe3RC4afO6NDK1gwYBAgQIECi0gABIoadH5wgQIECAQGeB74xt7FzBXQKLJPDZtSsW6U1eQ4AAAQIE9k9AAGT/3DxFgAABAgSGLrB8x7hjb4c+CzqQCzy4bTQ9kP1RCBAgQIBAUQUEQIo6M/pFgAABAgTmEbjLsbfzCLm92AJf2/jMYr/S+wgQIECAQNcCAiBdU6lIgAABAgSKIyD7ozhzoSfPC8gC8TUQIECAQJEFBECKPDv6RoAAAQIEWgjEsbeyP1rAuFQIgcvXPVGIfugEAQIECBCYLSAAMlvEzwQIECBAoOACP5/cau+Pgs9Rnbs3snMyfWvLSJ0JjJ0AAQIECiogAFLQidEtAgQIECDQSiCyP35q749WNK4VSOD69avS+J5dBeqRrhAgQIAAgZQEQHwFBAgQIECgRAL/uG1LiXqrq3UVGMsCdTdtkgVS1/k3bgIECBRV4KAiduzOux9NX77mjrT8kVWN7i09/qj0hpNflc4+6/ca/z1fGR3dli799Dfnq9a4f9KyE9K557y5q7oqESBAgACBYQpE9seDE+PD7IJ3E+ha4JZNa9K/fMmx6bADDuz6GRUJECBAgMAgBQoVAInAxYX/6avp9u/fN2PMq9dsTBEUufHmn6QrL/9gFrRY2tFkdOv2dMPNP+5YJ795ShZYEQDpikolAgQIEBiygOyPIU+A1/ckkGeBnHPU8T09pzIBAgQIEBiUQKECIJG1kQc/IjBxxmmvTUuOOKQR/IiARgRC/uj9n0m3Xf/xjpkgSw4/pJEt0q7EO0bHtjVun3LysnbVXCdAgAABAoURkP1RmKnQkR4EIgvkrb9wdDr2oBf18JSqBAgQIEBgMAKFCYDkQY4Y5vvOeUu66MJ3T4/4XWedmmVpvCW94z2XNgIXF178lXTd1R9tK7JkyaHpskve2/L+d79//3R2yIfOf2e64PwzW9ZzkQABAgQIFEngjtENReqOvhDoSiCyQK7NNkT98HGv7Kq+SgQIECBAYJAChdkENfb8iBJ7fFxw3tygRCx7iYBFlAiWxHKZXktkkHwsC55EiSCL4EevguoTIECAwDAElu8YTyunJofxau8ksGCB72XBuwe2jS64HQ0QIECAAIGFChQmAPL80pdlKTI4WpXYCDUv3/37+1tVaXstXz4TGSRnnPaaGRkmbR9ygwABAgQIFEDgLsfeFmAWdGEhAl/b+MxCHvcsAQIECBDoi0AhlsAsf2T19GAiONGuxL4gS444tLEMJk6IeVc6tV3VOdfP+/DnGnuIROm0P8icB2ddiMyT2GS1nyXfj6SfbWqLAAECBKohENkfo7umqjEYo6itwINZBkhkgfz2oUtqa2DgBAgQIDB8gUIEQJoDAEdkm552KrEpatTPgxmd6ub34vSY5iDLn2bBkMZSm2xJzdnZ/iK9lBtvuTN96Zrv9fLIvHVHx/obUJn3hSoQIECAQGkEZH+UZqp0dB6ByAL5bwIg8yi5TYAAAQKDFChEAOSZfZkZ3Qw0AiBResma+OUs2BHZI3HiSzwXy20igBKbqY5lwYdejsGNur3U72ZMF1781a6P7e2mPXUIECBAoBoCsj+qMY9GsVdAFogvgQABAgSGLVCIPUBiWUu3Jc+W6OWZCH7EqTGx6WmcLhP/HZuqRvnrL9zS7avVI0CAAAECiyYQx97K/lg0bi9aJAF7gSwStNcQIECAQEuBQgRAIkMjL/Nlg+QBkFjCsr8lnr3owvc0Ht+7n8jze5Dsb5ueI0CAAAEC/RT4+eRWe3/0E1RbhRCILJA7tu7dk60QHdIJAgQIEKiVQCECIEuPe0ljc9MosblpuxL7eORLX05cdkK7ao3rscQljsttV5oDKA91eGe7510nQIAAAQKDEojsj4cnxgfVvHYJDFXgmmfb//96Q+2YlxMgQIBA5QUKEQCJY2/zJSk3ZBuWxkkrrcqXr7lj+nIsa2lXrvjCrelNb//LdN6HP9+2reZNVJszUNq16ToBAgQIEFgsgX/ctkX2x2Jhe8+iC4zsnEzXbFyz6O/1QgIECBAgUIgASExDnMgSJTI8rrjy1jkzE9kfN9z848b1OMa2OYMjMj2aAxpv2BccaddWtHHFvr0/op1OwZQ5HXGBAAECBAgMUCCyPx6U/TFAYU0XQeCWTWvS+J5dReiKPhAgQIBAjQQKcQpMeEcQIgIbEeT4UpbpESe1vO+ct2ZLYw5pLIuJa1H2Hl975vQUXXrZN6bvxeame097mdnWnXc/kp3c8tbGsw81Ain/a/pY3HinQoAAAQIEiiIQ2R8KgaoLjGWBvps2jaRzjjq+6kM1PgIECBAokEBhAiBhctHH/nWDJoIgkdFxyWXXz6CKAMaVl39wRvZHc+ZHHGmbl+a2InskjrydXT6UZZ3EyTAKAQIECBAogoDsjyLMgj4slkBkgfzLlxybDjvgwMV6pfcQIECAQM0FChUAib1ALrvkvSmWsHw3ywDJN0SNLJAzTnttOveP35yiTnOJpTOx1OWkbFPU00979fStVm1FsCSCKFH33HPeYulLzT9+wydAgEDRBGR/FG1G9GeQArJABqmrbQIECBBoJVCoAEjewbPPOjVbDnNqq/7OuRabp8bSl3all7bateE6AQIECBAYtIDsj0ELa7+IArJAijgr+kSAAIHqChRmE9TqEhsZAQIECBCYX+CO0Q3zV1KDQMUEIgvk2vWrKzYqwyFAgACBogoIgBR1ZvSLAAECBGojsGZqMq3M/igE6ihw0+Z1aWRqRx2HbswECBAgsMgCAiCLDO51BAgQIEBgtsB3xjbOvuRnArUSuHb9qlqN12AJECBAYDgCAiDDcfdWAgQIECDQEFi+YzyN7pqiQaDWAt/LloA9sG201gYGT4AAAQKDFxAAGbyxNxAgQIAAgbYCd40/1/aeGwTqJPC1jc/UabjGSoAAAQJDEBAAGQK6VxIgQIAAgRCQ/eE7IPC8wINZBogsEF8EAQIECAxSQABkkLraJkCAAAECHQRkf3TAcauWArJAajntBk2AAIFFEzho0d7kRQQIECBAgMC0wHOx74e9P3wRBGYIRBbIYf5e+CoIECBAYEACMkAGBKtZAgQIECBAgACB3gVuzY7FHdttY+De5TxBgAABAvMJCIDMJ+Q+AQIECBDos8Dknj1pZNdkn1vVHIFqCIxnGSBf32BD1GrMplEQIECgWAICIMWaD70hQIAAgRoIPJQdfasQINBe4Lr1q2SBtOdxhwABAgT2U0AAZD/hPEaAAAECBPZHYHT3rjRqj4P9ofNMjQTGZIHUaLYNlQABAosnIACyeNbeRIAAAQIE0hM7t1MgQKALAVkgXSCpQoAAAQI9CQiA9MSlMgECBAgQ2H8B2R/7b+fJ+gnIAqnfnBsxAQIEBi0gADJoYe0TIECAAIF9ArI/fAoEehOQBdKbl9oECBAg0FlAAKSzj7sECBAgQKAvAiNTO+z90RdJjdRJQBZInWbbWAkQIDB4AQGQwRt7AwECBAgQSE9PTVAgQGA/BGSB7AeaRwgQIECgpYAASEsWFwkQIECAQP8EIvtjYvfu/jWoJQI1EpAFUqPJNlQCBAgMWEAAZMDAmidAgAABArI/fAMEFiYgC2Rhfp4mQIAAgb0CAiC+BAIECBAgMEAB2R8DxNV0bQRkgdRmqg2UAAECAxUQABkor8YJECBAoO4Csj/q/gUYf78EZIH0S1I7BAgQqK+AAEh9597ICRAgQGDAArI/Bgys+VoJyAKp1XQbLAECBAYiIAAyEFaNEiBAgACB5OQXHwGBPgt8cd2Tac3UZJ9b1RwBAgQI1EVAAKQuM22cBAgQILCoArI/FpXby2okcFUWBFEIECBAgMD+CAiA7I+aZwgQIECAwDwC9v6YB8htAvspcOumdbJA9tPOYwQIEKi7gABI3b8A4ydAgACBvgvI/ug7qQYJzBCQBeKDIECAAIH9ERAA2R81zxAgQIAAgQ4Csj864LhFoA8CskD6gKgJAgQI1FBAAKSGk27IBAgQIDA4Adkfg7PVMoFmAVkgvgcCBAgQ6FVAAKRXMfUJECBAgEAHAdkfHXDcItBHAVkgfcTUFAECBGoiIABSk4k2TAIECBAYvIDsj8EbewOBZgFZIL4HAgQIEOhFQACkFy11CRAgQIBABwHZHx1w3CIwAAFZIANA1SQBAgQqLCAAUuHJNTQCBAgQWDwB2R+LZ+1NBJoFZIH4HggQIECgWwEBkG6l1CNAgAABAh0EZH90wHGLwAAFZIEMEFfTBAgQqJiAAEjFJtRwCBAgQGDxBWR/LL65NxJoFpAF4nsgQIAAgW4EBEC6UVKHAAECBAh0EJD90QHHLQKLICALZBGQvYIAAQIVEBAAqcAkGgIBAgQIDE9A9sfw7L2ZQLOALBDfAwECBAjMJyAAMp+Q+wQIECBAoIOA7I8OOG4RWEQBWSCLiO1VBAgQKKmAAEhJJ063CRAgQGD4ArI/hj8HekCgWUAWiO+BAAECBDoJCIB00nGPAAECBAh0EJD90QHHLQJDEJAFMgR0ryRAgECJBARASjRZukqAAAECxRGQ/VGcudATAs0CskB8DwQIECDQTkAApJ2M6wQIECBAoIOA7I8OOG4RGKKALJAh4ns1AQIECi4gAFLwCdI9AgQIECiegOyP4s2JHhFoFpAF4nsgQIAAgVYCAiCtVFwjQIAAAQIdBGR/dMBxi0ABBGSBFGASdIEAAQIFFBAAKeCk6BIBAgQIFFdA9kdx50bPCDQLyALxPRAgQIDAbAEBkNkifiZAgAABAh0EZH90wHGLQIEEZIEUaDJ0hQABAgUREAApyEToBgECBAgUX0D2R/HnSA8JNAvctmkdEAIECBAgMC0gAOJjIECAAAECXQrI/ugSSjUCBRG4bv2qNLZ7qiC90Q0CBAgQGLaAAMiwZ8D7CRAgQKAUArI/SjFNOklghsDYrqn09Q3PUCFAgAABAg0BARAfAgECBAgQ6EJA9kcXSKoQKKCALJACToouESBAYEgCAiBDgvdaAgQIECiPgOyP8syVnhKYLSALZLaInwkQIFBfAQGQ+s69kRMgQIBAlwKyP7qEUo1AQQVkgRR0YnSLAAECiywgALLI4F5HgAABAuUSkP1RrvnSWwKtBGSBtFJxjQABAvUTEACp35wbMQECBAj0ICD7owcsVQkUWEAWSIEnR9cIECCwSAICIIsE7TUECBAgUD6B0d270sTu3eXruB4TIDBHQBbIHBIXCBAgUDsBAZDaTbkBEyBAgEC3Ak/s3N5tVfUIECiBgCyQEkySLhIgQGCAAgIgA8TVNAECBAiUVyCyP0Z3TZV3AHpOgMAcAVkgc0hcIECAQK0EBEBqNd0GS4AAAQLdCsj+6FZKPQLlEpAFUq750lsCBAj0U0AApJ+a2iJAgACBSgjI/qjENBoEgZYCskBasrhIgACBWggIgNRimg2SAAECBHoRkP3Ri5a6BMonIAukfHOmxwQIEOiHgABIPxS1QYAAAQKVEZD9UZmpNBACbQVkgbSlcYMAAQKVFhAAqfT0GhwBAgQI9Cqwemqi10fUJ0CghAKyQEo4abpMgACBBQoIgCwQ0OMECBAgUB2ByT170oapndUZkJEQINBWQBZIWxo3CBAgUFkBAZDKTq2BESBAgECvAk/t3N7rI+oTIFBiAVkgJZ48XSdAgMB+CAiA7AeaRwgQIECgegKR/TEytaN6AzMiAgTaCsgCaUvjBgECBCopIABSyWk1KAIECBDoVUD2R69i6hOohoAskGrMo1EQIECgGwEBkG6U1CFAgACBSgvI/qj09BocgY4CskA68rhJgACBSgkIgFRqOg2GAAECBPZHQPbH/qh5hkB1BGSBVGcujYQAAQKdBARAOum4R4AAAQKVF5D9UfkpNkAC8wrIApmXSAUCBAhUQkAApBLTaBAECBAgsL8Csj/2V85zBKolIAukWvNpNAQIEGglIADSSsU1AgQIEKiFgOyPWkyzQRLoSiCyQH4wurGruioRIECAQDkFBEDKOW96TYAAAQJ9EJD90QdETRCokMAX1z1ZodEYCgECBAjMFhAAmS3iZwIECBCohYDsj1pMs0ES6Elg7Y6JdOuWkZ6eUZkAAQIEyiMgAFKeudJTAgQIEOijgOyPPmJqikCFBGSBVGgyDYUAAQKzBARAfBIECBAgUDsB2R+1m3IDJtC1gCyQrqlUJECAQOkEBEBKN2U6TIAAAQILFZD9sVBBzxOotsBtm9dVe4BGR4AAgZoKCIDUdOINmwABAnUVkP1R15k3bgLdC9w9tjndM76l+wfUJECAAIFSCAiAlGKadJIAAQIE+iWwdmqyX01phwCBCgtc/ezTFR6doREgQKCeAgIg9Zx3oyZAgEAtBSL749ldO2o5doMmQKA3AVkgvXmpTYAAgTIICICUYZb0kQABAgT6IhDZHxO7d/elLY0QIFB9AVkg1Z9jIyRAoF4CAiD1mm+jJUCAQK0FZH/UevoNnkDPArJAeibzAAECBAotIABS6OnROQIECBDol8DI1A7ZH/3C1A6BGgnIAqnRZBsqAQKVFxAAqfwUGyABAgQIhMDTUxMgCBAg0LOALJCeyTxAgACBwgoIgBR2anSMAAECBPolIPujX5LaIVBPAVkg9Zx3oyZAoHoCAiDVm1MjIkCAAIFZArI/fBIECCxEQBbIQvQ8S4AAgeIICIAUZy70hAABAgQGICD7YwComiRQQwFZIDWcdEMmQKByAgIglZtSAyJAgACBZgHZH74HAgT6ISALpB+K2iBAgMBwBQRAhuvv7QQIECAwQAHZHwPE1TSBGgrcunldDUdtyAQIEKiOwEFFHMqNN/8k3XDzj9PqNRsb3Vt6/FHpXWf9Xjrl5Fc1/ruXsvyR1enGrK3bv39f47ElRxySTlr2sqy9UxvtKQQIECBQXQHZH9WdWyMjMAyBWzetSx946a+m4w86eBiv904CBAgQWKBAoQIgo6Pb0nkf+Xy68+5HZwwrAiFxLYIf11390a6DIF+65o506WXfmEMUQZEIsFxw/pnpQ+e/c859FwgQIECg/AKyP8o/h0ZAoIgC169fnT583CuL2DV9IkCAAIF5BAoVAGkOfkR2xhmnvbaRsRHBjzwj5I/e/5l029c/npYsObTj0CKLJA9+LDni0PS+c97SCJyMjm1PX7rme43skiu+cGt27eh0dpYNohAgQIBAtQTW7tpRrQEZDQEChRC4ZdPa9P5jX56OeEGh/t/oQtjoBAECBIouUJj/yx0BizzzI7IyIjsjL7Fc5Q1ZQOTCi7/SCFx8+dq/m3G/FfJff+GWxuVWWSOnn/bq9I73fDILhmxrLI8RAGkl6BoBAgTKKzC6e1ca3TVV3gHoOQEChRUYy/5vy9c3PJM+8EsvL2wfdYwAAQIEWgsUZhPUyPCIEgGL5uBH3u0IUpyd7QMSJZa2xHKZTiUyR6JckAVTZu8bEj/nQY/Zy206tekeAQIECJRD4Imd28vRUb0kQKCUAtetX5XGdguylnLydJoAgVoLFCIAEsGMPBDxvnPe2nZCIhMkSmRu3HXPY23rxY3brr8o/ejbn2qb3RHLYhQCBAgQqJ6A7I/qzakRESiaQJ4FUrR+6Q8BAgQIdBYoxBKY5Y+unu7licuWtu3xSa96/t7yR1alWMrSqczO/Gium2ecnNThfa3ajmBNLMHpZ1m9ZkM/m9MWAQIEai2wdmqy1uM3eAIEFkcgskD+8OhfthfI4nB7CwECBPoiUIgMkGf2HXcbI+qUmREbn+ZBjfyI3P1RiP1B8ufP7ZBxsj9te4YAAQIEhicwuWdPitNfFAIECAxaQBbIoIW1T4AAgf4LFCIDpHlY+d4d/R/q3hYj+BGnv0SJk2F63QA1gjCt9ihZSH9XX7wxe3zm0b8Lac+zBAgQqKvAU/b+qOvUGzeBoQjIAhkKu5cSIEBgvwUKkQHSS+/jGNv9Lc3Bjzhm96IL372/TXmOAAECBAomIPujYBOiOwRqICALpAaTbIgECFRKoBABkOZlLw898vx+ILOlY/+N2AA1Sqf9PWY/Fz83Bz/iNJnrrv5oq2quESBAgEBJBWR/lHTidJtAyQWcCFPyCdR9AgRqJVCIAMgbXv/r0+ixuWm70rxZ6knLTmhXbc71Cy/+6vSylwh+XHbJe+fUcYEAAQIEyisg+6O8c6fnBMouEFkgPxiN5cwKAQIECBRdoBABkNhXI5akRPnSNXe0Nbvx5p9M32sOmrR9ILsRwY/8xJcPnf9OwY9OWO4RIECgpAKyP0o6cbpNoCICX1z3ZEVGYhgECBCotkAhAiBB/K4sMyNKLHG59LJvzFG/IQt+5IGMyOKIoEmjfrYsJgIjs0+Fieuzgx/93rx0TiddIECAAIFFF5D9sejkXkiAwCyBtTsm0q1bRrgQIECAQMEFCnMKTJzGcuPNP0533v1oIwvkzrsfyU5o+WfZsbiHpNu/f1/jT5TY+6M5kHHpp785HRj50bc/Nb03yB994DNp+b79RKTG1kcAACAASURBVGKPkWjvzvc/0nI6LrrwPemkZUtb3nORAAECBIotsHZqstgd1DsCBGohcNvmdenMI4+txVgNkgABAmUVKEwAJACv/Oy/S+d95PONIEgELy657PoZrhH8iM1LmzdAXf7Iyuk6sYFq3ItskDz4ETcjqyTabFfyjVXb3XedAAECBIopENkfz+7aUczO6RUBArUSuHtsc7pnfEt6/WFH1mrcBkuAAIEyCRQqABLLWiLAEctdIhskX9YSQY1TTl6Wzv3jN08vfcmRL7vk3GzJzPWN+6ef9urG5SWHH5Jlj+xdUtPNZDSfQtNNfXUIECBAoBgCG7Pgx8Tu3cXojF4QIFB7gauffTq9/lcFQGr/IQAgQKCwAoUKgORKsRwm/nRTYunK7CNtI5DipJdu9NQhQIBAuQVWW/5S7gnUewIVE5AFUrEJNRwCBConUJhNUCsna0AECBAgMFCBkSnZHwMF1jgBAvslEFkgCgECBAgUU0AApJjzolcECBAgMI/A01MT89RwmwABAosvkGeBLP6bvZEAAQIE5hMQAJlPyH0CBAgQKJyA7I/CTYkOESDQJCALxOdAgACBYgoIgBRzXvSKAAECBDoIyP7ogOMWAQJDF4gskEcntg69HzpAgAABAjMFBEB8EQQIECBQKgHZH6WaLp0lUFuB6zasru3YDZwAAQJFFRAAKerM6BcBAgQItBSQ/dGSxUUCBAomcOumdWls91TBeqU7BAgQqLeAAEi959/oCRAgUCqB0d270sTu3aXqs84SIFBfga9veKa+gzdyAgQIFFBAAKSAk6JLBAgQINBa4Imd21vfcJUAAQIFFLhu/SpZIAWcF10iQKC+AgIg9Z17IydAgECpBCL7Y3SXdPJSTZrOEqi5wFj2f7NkgdT8IzB8AgQKJSAAUqjp0BkCBAgQaCewdmqy3S3XCRAgUFgBWSCFnRodI0CghgICIDWcdEMmQIBA2QQm9+xJcfqLQoAAgbIJyAIp24zpLwECVRYQAKny7BobAQIEKiLwlL0/KjKThkGgngKyQOo570ZNgEDxBARAijcnekSAAAECTQKyP3wOBAiUXUAWSNlnUP8JEKiKgABIVWbSOAgQIFBRAdkfFZ1YwyJQM4FbNq2t2YgNlwABAsUTEAAp3pzoEQECBAjsE5D94VMgQKAqAmt3TKRbt4xUZTjGQYAAgVIKCICUctp0mgABAvUQkP1Rj3k2SgJ1Efja+lV1GapxEiBAoJACAiCFnBadIkCAAAHZH74BAgSqJrBi+9Z0z/iWqg3LeAgQIFAaAQGQ0kyVjhIgQKBeArI/6jXfRkugLgJXP/t0XYZqnAQIECicgABI4aZEhwgQIEAgsj+e2z0FggABApUTuHtssyyQys2qAREgUBYBAZCyzJR+EiBAoEYCa6cm08Tu3TUasaESIFAnAVkgdZptYyVAoEgCAiBFmg19IUCAAIEU2R/P7tpBggABApUVkAVS2ak1MAIECi4gAFLwCdI9AgQI1E1A9kfdZtx4CdRTQBZIPefdqAkQGK6AAMhw/b2dAAECBJoEZH/4HAgQqIuALJC6zLRxEiBQJAEBkCLNhr4QIECg5gKyP2r+ARg+gZoJyAKp2YQbLgECQxcQABn6FOgAAQIECISA7A/fAQECdROQBVK3GTdeAgSGLSAAMuwZ8H4CBAgQaAjI/vAhECBQRwFZIHWcdWMmQGBYAgIgw5L3XgIECBCYFpD94WMgQKCuArJA6jrzxk2AwDAEBECGoe6dBAgQIDBDQPaHD4IAgToLyAKp8+wbOwECiykgALKY2t5FgAABAnMEIvtj5c6JOdddIECAQF0EZIHUZaaNkwCBYQsIgAx7BryfAAECNRd4auf2mgsYPgECBFKSBeIrIECAwOAFBEAGb+wNBAgQINBGILI/RqZ2tLnrMgECBOojIAukPnNtpAQIDE9AAGR49t5MgACB2gvI/qj9JwCAAIEmAVkgPgcCBAgMVkAAZLC+WidAgACBNgKyP9rAuEyAQG0FIgvkjq0bazt+AydAgMCgBQRABi2sfQIECBBoKSD7oyWLiwQI1FzgitWP1VzA8AkQIDA4AQGQwdlqmQABAgTaCMj+aAPjMgECtRdYu2Mi3bplpPYOAAgQIDAIAQGQQahqkwABAgQ6Csj+6MjjJgECNRf44ron09juqZorGD4BAgT6LyAA0n9TLRIgQIBAB4HR3buc/NLBxy0CBAhEFsjXNzwDggABAgT6LCAA0mdQzREgQIBAZ4GHd4x3ruAuAQIECKTr1q+SBeI7IECAQJ8FBED6DKo5AgQIEGgvMDK1I03s3t2+gjsECBAg0BAY2zUlC8S3QIAAgT4LCID0GVRzBAgQINBe4OmpifY33SFAgACBGQKyQHwQBAgQ6K+AAEh/PbVGgAABAm0EZH+0gXGZAAECbQQiC+Tqkafb3HWZAAECBHoVEADpVUx9AgQIEOhZYGrPniT7o2c2DxAgQCBdm+0FsmZqkgQBAgQI9EFAAKQPiJogQIAAgc4Cq7P/593eH52N3CVAgEA7gUtXPdzulusECBAg0IOAAEgPWKoSIECAQO8Ck1n2x1r/etk7nCcIECCwT+Dusc3pnvEtPAgQIEBggQICIAsE9DgBAgQIdBZ4auf2tDMLgigECBAgsP8CVz9rL5D91/MkAQIE9goIgPgSCBAgQGBgApH9EZufKgQIECCwMIHIArlj68aFNeJpAgQI1FxAAKTmH4DhEyBAYJACK3ZuG2Tz2iZAgECtBK5Y/Vga2z1VqzEbLAECBPopIADST01tESBAgMC0QGR+bJjaSYQAAQIE+iSwdsdE+vqGZ/rUmmYIECBQPwEBkPrNuRETIEBgUQQce7sozF5CgEDNBK7LjsWVBVKzSTdcAgT6JiAA0jdKDREgQIBALhDZH4699T0QIECg/wJju6bS1SM2RO2/rBYJEKiDgABIHWbZGAkQILCIArHxqeyPRQT3KgIEaidwbZYF8ujE1tqN24AJECCwUAEBkIUKep4AAQIEZgjEsbeyP3wUBAgQGKzA5WtXDPYFWidAgEAFBQRAKjiphkSAAIFhCTj2dljy3kuAQN0E4ljce8a31G3YxkuAAIEFCQiALIjPwwQIECDQLODYW98DAQIEFk/gE6seXryXeRMBAgQqICAAUoFJNAQCBAgUQcCxt0WYBX0gQKBOAnEs7lXP2hC1TnNurAQILExAAGRhfp4mQIAAgX0CNj71KRAgQGDxBRyLu/jm3kiAQHkFBEDKO3d6ToAAgcIIPLVzwsanhZkNHSFAoE4CcSzuZ9c8XqchGysBAgT2W0AAZL/pPEiAAAECIRAbn67MAiAKAQIECAxH4NZN62yIOhx6byVAoGQCAiAlmzDdJUCAQNEE4thbhQABAgSGK3C1vUCGOwHeToBAKQQEQEoxTTpJgACBYgrExqfxRyFAgACB4QrEsbhf37B6uJ3wdgIECBRcQACk4BOkewQIECiygI1Pizw7+kaAQN0EvjjyVBrbPVW3YRsvAQIEuhYQAOmaSkUCBAgQaBaw8anvgQABAsUSiA1Rrx5xLG6xZkVvCBAokoAASJFmQ18IECBQEgEbn5ZkonSTAIHaCVy7fpUNUWs36wZMgEC3AgIg3UqpR4AAAQLTAit2bqNBgAABAgUVuMyxuAWdGd0iQGDYAgIgw54B7ydAgEDJBGLT0w1TO0vWa90lQIBAfQRWbN9qQ9T6TLeREiDQg4AASA9YqhIgQKDuArH0xcandf8KjJ8AgTIIxIaoa6Ymy9BVfSRAgMCiCQiALBq1FxEgQKD8Ak/t3J4mdu8u/0CMgAABAhUXiA1Rr1j7RMVHaXgECBDoTUAApDcvtQkQIFBbgcj+iOUvCgECBAiUQ+DvNo/YELUcU6WXBAgskoAAyCJBew0BAgTKLnD/5FjZh6D/BAgQqJ3AJ1Y9nMZ2T9Vu3AZMgACBVgICIK1UXCNAgACBGQJP7Zyw9MU3QYAAgRIKrN0xka4eebqEPddlAgQI9F9AAKT/plokQIBApQRi6cvKLACiECBAgEA5Ba5dv8pSmHJOnV4TINBnAQGQPoNqjgABAlUTeGjHeNWGZDwECBConcDVz8oCqd2kGzABAnMEBEDmkLhAgAABArlAbHo6mp0koBAgQIBAuQXuHtucvr5hdbkHofcECBBYoIAAyAIBPU6AAIGqCsTSl6enLH2p6vwaFwEC9RP44shTac3UZP0GbsQECBDYJyAA4lMgQIAAgZYCT+3cbuPTljIuEiBAoJwCY1lG36XZqTAKAQIE6iogAFLXmTduAgQIdBCIpS/xRyFAgACBaglYClOt+TQaAgR6ExAA6c1LbQIECFRewNKXyk+xARIgUHMBS2Fq/gEYPoEaCwiA1HjyDZ0AAQKtBCx9aaXiGgECBKojYClMdebSSAgQ6E1AAKQ3L7UJECBQaQFLXyo9vQZHgACBaQFLYXwMBAjUUUAApI6zbswECBBoIWDpSwsUlwgQIFBhAUthKjy5hkaAQEsBAZCWLC4SIECgfgKWvtRvzo2YAIF6C1gKU+/5N3oCdRQQAKnjrBszAQIEZglY+uKTIECAQD0FLIWp57wbNYG6CgiA1HXmjZsAAQL7BCx98SkQIECg3gKWwtR7/o2eQJ0EBEDqNNvGSoAAgRYCK3ZuSxO7d7e44xIBAgQI1EHAUpg6zLIxEiAQAgIgvgMCBAjUWGDN1GTaMLWzxgKGToAAAQIhYCmM74AAgToICIDUYZaNkQABAi0EGktfdk60uOMSAQIECNRRwFKYOs66MROol4AASL3m22gJECAwLXD/5FjamQVBFAIECBAgEAKWwvgOCBCousBBZR3gjTf/JN1w84/T6jUb0+jY9rT0+JekU05els495y3Zfx/V9bC++/370+3fv69R/4Lzz+zp2a5foiIBAgQKJvBUlvlh34+CTYruECBAoAAC+VKYPzx6aQF6owsECBDor0DpAiCjo9vSeR/5fLrz7kdnSCx/ZFta/sjqRjDjyss/mE5a1vn/aMfzV3zhlhntvOusUwVA+vt9aY0AgQIKxJG3Ky19KeDM6BIBAgSKIfCZNY+n1x1+ZHrViw8vRof0ggABAn0SKF0A5NJPf3M6aHHKya9KZ5z22rTkiEMa1/KMkD96/2fSbdd/vGUwo1Xgo0+WmiFAgEDhBRx5W/gp0kECBAgUQuBjTz2YrnnVyemIF5Tu14VC+OkEAQLFFCjVHiB5kCMo35ctdbnu6o9mS17enCJz47JL3psFPS7KgiGHZktitqULL/5KS/FYOpNnj0QAJdpRCBAgUBcBR97WZaaNkwABAgsTWLtjIn3ymccW1oinCRAgUDCBUgVAvnzNHQ2+2OPjgvPOnEMZy17ygEYEOWK5zOwSQY/4E8GT+HPSshNmV/EzAQIEKikQ+3448raSU2tQBAgQGIjA320eSV/fsHogbWuUAAECwxAoVQAk36w0NjtdsuTQll6RDZKXG2+5c06duB+BjwiCKAQIEKiLQCx9se9HXWbbOAkQINA/AUfj9s9SSwQIDF+gNAGQ2OA0L2ec9pq2cpEdEstgoix/ZFXbem4QIECgLgJTWfAjjrxVCBAgQIBArwJxNO5Hnnyg18fUJ0CAQCEFSrOrUezrkZcjsk1PO5XYFDXqNz/TqX4v9/JTaHp5Zr66g+jnfO90nwCB+gisnpp05G19pttICRAg0HeBFdu3psvXrkgfPu6VfW9bgwQIEFhMgdIEQJ5Zs7Frl8gCWZ3VH1Rg4YLz39l1X7qpGHubNGe4dPOMOgQIEOhGwJG33SipQ4AAAQLzCVy7flX650uOSq8/7Mj5qrpPgACBwgqUJgCSL2vpRnJQgY94d+w90u/9Q+JkGoUAAQL9Foh9P57Yub3fzWqPAAECBGoqcGF2NO7Xlv1uOv6gg2sqYNgECJRdoDR7gJyYnfCSl/myQVav2dSo6oSXsn+e+k+AwEIEYt+PnVkQRCFAgAABAv0QiP1ALl31cD+a0gYBAgSGIlCaAEi3m5vGUpI8A+RER9wO5aPyUgIEhi8QR95O7N49/I7oAQECBAhUSuDusc3pqmefrtSYDIYAgfoIlCYAElNy0r4skBuyJSOxGWmrEvtp5KXfS1Vavc81AgQIFE3Avh9FmxH9IUCAQLUEvrjuyXTP+JZqDcpoCBCohUCpAiD55qOR4XHpp785Z4LuvPvRdMPNP25cP/us30uRNZKX2GfDRqNzyFwgQKBiAvb9qNiEGg4BAgQKKvCJbCnMmuyUMYUAAQJlEijNJqiBGhkd7zvnLelLWZZHBDruvPuR6UBHc/AjAh8XnH/m9Dxcetk3Gs9Eue7qj/Z9E9MyTbi+EiBQXYGpbL8P+35Ud36NjAABAkUSWLtjorEfyOd/9dVF6pa+ECBAoKNAqQIgMZKLLnx3Y0AR0Iijbv/6C7fMGGAEP668/IMzsj+iXl7GxpyIMAPMDwQIVEZgRXbii30/KjOdBkKAAIHCC8R+IJevXZE+fNwrC99XHSRAgEAIlC4AEp2OIEhscPrd79+XBUE2ZJuebm8EPE45eVk694/f3DiqtrlE/Vg2E/dPP21mlPqXs+diuUyUXo7anfECPxAgQGDIArHpaez9oRAgQIAAgcUUuHb9qvQ7RxyZ3nL480vPF/P93kWAAIFeBEoZAIkBnn3WqY0/3ZQIjsTSl1YlltXYLLWVjGsECJRFYHzPrrQyC4AoBAgQIEBgGAL/+emHsn+c/N10/EEHD+P13kmAAIGuBUq1CWrXo1KRAAECNRGITU9/Pjlek9EaJgECBAgUUWBs11T6yJMPpLHdU0Xsnj4RIEBgWkAAxMdAgACBEgs8tGPcvh8lnj9dJ0CAQFUEVmzfmj675vGqDMc4CBCoqIAASEUn1rAIEKi+QOz7MZr9q5tCgAABAgSKIHDrpnXp6xtWF6Er+kCAAIGWAgIgLVlcJECAQLEF1kxN2vej2FOkdwQIEKilwGeyLJB7xrfUcuwGTYBA8QUEQIo/R3pIgACBGQKx6enjOxzp7bMgQIAAgWIKfGLVwykC9QoBAgSKJiAAUrQZ0R8CBAh0ELDpaQcctwgQIECgEAJrd0zYFLUQM6ETBAjMFhAAmS3iZwIECBRUYCo78eX+yTGbnhZ0fnSLAAECBJ4XsCmqr4EAgSIKCIAUcVb0iQABAi0EHt25TfCjhYtLBAgQIFBMgdgU9apnny5m5/SKAIFaCgiA1HLaDZoAgbIJxIkvG6Z2lq3b+kuAAAECNRf44ron061bRmquYPgECBRFQACkKDOhHwQIEGgj4MSXNjAuEyBAgEApBD77zGPp0YmtpeirThIgUG0BAZBqz6/RESBQcgEnvpR8AnWfAAECBNLYrqn0sacedDKMb4EAgaELCIAMfQp0gAABAq0FnPjS2sVVAgQIECifgJNhyjdnekygigICIFWcVWMiQKD0AhH8cOJL6afRAAgQIECgScDJMD4HAgSGLSAAMuwZ8H4CBAjMEojjbh/aMe7EF18GAQIECFROwMkwlZtSAyJQKgEBkFJNl84SIFAHgRU7t6fRbL20QoAAAQIEqigQJ8N8fcPqKg7NmAgQKLiAAEjBJ0j3CBCol0AcdzsytaNegzZaAgQIEKidwGfWPO543NrNugETGL6AAMjw50APCBAg0BCI4MfK7I9CgAABAgTqIOB43DrMsjESKJaAAEix5kNvCBCoqcCaqUnBj5rOvWETIECgrgKOx63rzBs3geEJCIAMz96bCRAg0BB4dtfO9PiO7TQIECBAgEDtBOJ43PMfvzfFPwQoBAgQGLSAAMighbVPgACBDgLje3alFTu2dajhFgECBAgQqLZABEE+8uQDaWy3DcCrPdNGR2D4AgIgw58DPSBAoKYCk9lxtz+fHE87s/9VCBAgQIBAnQVWbN+a/uzpn9eZwNgJEFgEAQGQRUD2CgIECMwWiODH/ZNjaWL37tm3/EyAAAECBGopcPfY5vSJ1Q/XcuwGTYDA4ggIgCyOs7cQIEBgWkDww8dAgAABAgRaC9y6aV26fO2K1jddJUCAwAIFDlrg8x4nQIAAgR4EqhD82LZ1Iv3shz9P69duTocd/uL0sl8/Pv3G617RVuHhnz3R9l5+49Aj9rYzu+LKx9aklY+tTUe/9BfTy151fDo0e1+nEvW3jU10VbdTO1W8N7l1Mq34X4+k0ZEt6eDM8ZhfOzYt/Z2Xtx3q6n96uu29/MaSY38hLTn2yDn11q8YSesfH0lLjvuFdMwrXpq97+A5dZovRP3J8Ymu6nZsqEQ3d4/vSKN3r0w7nx1LBx72ovTiXzkqHXrSS9uOYNvydW3v5TdeEO28/CVz6k08vSlNPLUpveiYwxv3o16nEvWjf93U7dROXe7tfHgkTT29Je3ZtjMdcOgL0wtP/KV00Mt+seXwd20YT7s3bG15r/nigS/L5ilrq7nsztrftXJT2rV+WzrwmEPTC3/j2I7t5PUPOPRFbfvTsYEh3rx2/ap0+IEHpQ/8Uvv/GzXE7nk1AQIlFhAAKfHk6ToBAuUSmKrAspdrrrgl3X79P8yBP/q4X0x/8H+ent749tfPuBcBif/y76+cU3/2hXjuAx9/9/TlDVlw5Yuf+mZ65J7n/xUw3vHGt5+cveetsx9v/PyzHy5PV/z5VxvBks/87Z+3rFPHixH4uPP//WG6929/Omf4EcA45d/+83TS235nxr0Iftzwka/NqT/7win/9k2N5/OyfsW69IPPfS+tvv/54Em8I9pvrtfczvLv/FO6/bJb0tJXvzyd/Zl/M/sVlfx5/TfvTRu+/WDjF+bmcuDRh6Vj3vFb6SVv/80Z13eu35qe+sS357U48vd/PR3/wTdN14vnVv3ND9PEQzODJ8ec/dp0zL9+bcv24pkn/uymFH1Z9jfvaVnHxb0CEczYftVP5/jG3fBb8pdvafxvc5n80ZNp27cemJfwF/7yzekFTQGO7d95pPFc8zfT7h1549uu+Vma+NET6dA/+O3SBUBiDF9c92RjKIIg834uKhAg0IOAAEgPWKoSIEBgfwUi+PHgjvFS7/lx1Se/kf7h2/c0CF6cZRD84kv3/sv/2sfXpQhYxP1tY9vTGe954zRTZGP0WqKtCJrE/y57/SvTia95Rfbfmxrvvul/fLeRddL8jmg/slKuueLmxqv+4m/O6/WVla7/d5d+azqQNHveRkeeawQfIiPklf/sVQtyiMySWy6+Icswea4RzFj66pelrWu2pAe/90AWgPlR4x2v/Vf/24x3xDMRnIlyxp+duaD3l+XhdV+9K2369t6NHhvZAscc0ej6jizrIn6hjvtRmoMgEZTotTQCGX91W6PNF5/40nTorx7VyOrY8oPH0vob7m1kncwOtMQ74pkor/ird/T6ylrVD9fRT93R8I0Sc3nwy49KO9ePNa7l92cHQXbvq98L1kQWNBnPghlRDnn9CemAlx2Zdj+8vhF42fLx/5mO/OT/MSfQsuOe1Y3gRwRJDv2D3+rldYWqKwhSqOnQGQKVEBAAqcQ0GgQBAkUWyIMfo7vKe7xfBB/y4Edka5zzobOml6M0ByxuzAIUMwIgWWAiL5+//RPzLmGJut/K2og2Z2eFvC0LrFz03itSvOON7zh5Rlv5M/8yy0KJTBFlr0BkV+RZNBF8iCyMfDlKBB+uPe9/pIlsjr6bBUFe+c8+Os02uva56f/+0Pf+Y1ecP/3yDxvBj3jP73/w9OlnfuPtr25kk9yVBUFmB0DyZyKTpNVSmq5eXKJKW37w+HTwI7I1XvreN0wvR2kOWIx882cp7rdaqvLr//3dWdDk8HlHvTELssQv4fEL86/+2fPz8ZJ3/GYjw6PVOyIzJZ6JDJFu3jFvJypcYfu3HpwOfhz+gVPSi9/0q9Oj3Zbdi2yNsIzMjcPPed30vQP2Zf1EUOrwvzitK6Ht+zJGZr8nRYZH1n705fAPvGG6rVj6kgdMIgBT9hJBkCNecGD6w6OXln0o+k+AQAEEbIJagEnQBQIEqitQheBHzM4P/+fezI9YXhJLVZr34oiAw9vevTfrI36ZjmUveYnMjbzMt39HXm/Fo880/jMCHs0l9hqJjJB4R3O7ESyJZTnRt3bLY2Y0VKMflt/+T43RxjKUCEo078URAYc3ZIGHKGEa+3DkJfbj6LVsfGp945HXvut3Zzwa+4wc92svnfOOWGYT2SH5Mpxe31fG+pvv2pvSH/8qH0tVmgMcEXA49t17l5DFMofYhyMvO5oyQLoNTGx7cmPj8ePeM3NZWuzrEb98xzvGm/YViQBMIzMkluG0WR5TRvNB9DkCDJFdESWWlzQHP/Ze+62GcZSdWSZGc5lewnL0oTOut/thauXm6Syeue/57b3veOj5v7txIQ++RN9mL8Fp956iX//MmsfTrVtmjrPofdY/AgSKKSADpJjzolcECFRAoCrBj5iKf/N/n5liM9Ojj5u7wWLcj+BEXpqXvYzvywCJpRfdlp3jk42qhx5+yJxHXviLe39paH5HvseIpS9zuLKgx1uz/ThWts2uiI1Q89Ic9JjcN28RnOi2jGfLn6IcfNjceTvwsL2boDa/4/b/dkuj/tmfrce+HzHWpeeemsbf8HymQAOgqRzWtAlqBD3yX5Fjo9Rey+5tOxqPHJhtgDm7xHKN2SVf+nLC//X7s2/5eZZAbE4ae3RM3vNMOrgp82NGtZdlf3eyJSr5Epn8Xj4vqcUcdIKefq5TpexevC+yQsq+9KXVMD+x8qHG5TOP7Lz5a6tnXSNAgEAuIADiWyBAgMCABFbs3J7KvOylmSUCHM1BjtlkG9Ztnn2p8fO2rXt/KT78iEMa+3SsfHRNyutGxkar02N+47WvSP+w9p70o2zZTXNGR2R6RMZAlHyZy7f+x/cay2Vi2Y2lL3On4JhXvjTFn3aleanLwYc9H6SKvTuiLMn2eYlNVGNT0+mgUyRjTgAAIABJREFUSHayS6vTY45benRjCcy9f3vXjA1PY6lNvilqnAgTJfb9iLp1WfqS+0f2xpG//2vtpqNxUkte4sSW2SV+qY19PCI7JM8KiXqtTo85/DePS5uyerEUJpba5CUyPWK/kSgv/pW9Ac186Ussu2nV1ux++Dk1TmDpdArLARu2NZheNOtUntgjJMoLssBUZJLEXh17f35hOvDlvzgnY+MFRx/e2F8k3yOmOaNjcl8WSr6PTLQT+5JEqcLSl8ZAZhVBkNkifiZAoFcBAZBexdQnQIDAPAJVyvyYZ6iN2xHYiD04oswOaqzZuHcvia1ZdsCH/9V/aSyDaC4RtLjgv/7bGcGVWPqSb3gaS13elJ38EstqvvONf2g8mgc7IvARm6LuXfry/B4HM17gh7YCzRuQRqbHMa98/l9Vt6wfbTy3IVsW8+V/89/nzFvUj8yN5n07fvucUxv7jcSGpxFAib0/4ijce2/ce/pMBDtiCc7e9/6oVktf2k5C040IbKz5yk8aVxr/et+UDZJvghpZAI/8++tbnh4TmRvNzxyVnSSz+e8fbew5Em0f+S9+vRE0GfnGPY0sgQh2REDG0pduZqe3OnEs7vZ7VjUeOuh1vzzj4XwJzPbvPNzyNJgXv+kV6ZBs09I80BHZJoe87TcadSO4cUi2rCWuTa3cMv38i895TeMdsfdIzO2L37ZsTiCltxEUu7YgSLHnR+8IFF1AAKToM6R/BAiUSqCOwY9LPvj5RhZGlNgctbns3Lz3X0Ej8BHLYH7rrb+djnzRi9L6LCsgflmO52Jj07/47+dNZ4NEpskF//W9jVNdmjdfjXYbG7Be8M7GK/KlL/mGrBGI+Yfb7k5PZ8GSaP/lv3ZcY28SmSEzpqTxQ2R1/M//dGMjCyPKGf9hr+nsmvm8xd4rsfwoAiORzRHPxQaq78qOrc0DJ5EVcsaF70w//Px3G5k6ebZOtBnznh+Dmx+vmy99ib4sv/3+tPHR7ESLrP1oL/YRqcOmqM3eT//ND6aXS+R7geT3J/YtgYlfniMbIDY2jVN14nqcBBK/9MYxub/yn94+HQSJ4MbSD/5+I6gSJ7/En7zE/hR5VsjTl32vcTneGc/kJ8VENkq0H6fHRDCl271HmsdUx/+Oudj6xb0n+UQQo3mJTPNymJjLuP/CE49NsTFqnuERe4vszPb0+IXsZJcIdESJU1wi+BVLW7Zedec0a3wL+RG30XYESfYufdm7N0hci2N392TBkigHZsGY2fuIlHWOBEHKOnP6TWD4AgIgw58DPSBAoCICdQ1+xDG4UeIEltf985NmzGbsHfKd2KA02zskMjuaN0JtPj3mqv/8jfSZG/98+tlo52W/flx6+N4nGgGN2A/kxGxpTL5kJl/6EgGRqNvcVt5IBFhic9TYtDXqKXsFIuBw08e+lvJ5i8yM2UtaTnnvm9LD316SDj/+yOzkljfM2Dw1MjgiiBFBkB987rvp7CwIkpeT3vY7aelrXpZW37eysalqZHwsfU12JG4WHImSL32J02AiwNHcVt5GBFju/dufNoIp0V7VSwQcnsqCEBHIiBInsMxeJnP8uaekTbf9vBGEiGBE8+apzafHrMqCKMv+5j3TZEf87svSK7JlLrHZ6cRTGxv7gRyWLY3JM0UiOyR+8Y5skHhnc1t5I9GvqBf9sjlq568xNix9LsvSyIMbs4/APSDzj5Ncph5+NguM/MqMJTSHZU3HiTFxeku+j0fz8bVxkswhWWZHBDTiKN0Ds6NwD86yRfIgSb705bCsXlzbe3TuPTOzhbKslDhRZna/Oo+quHcFQYo7N3pGoMgCAiBFnh19I0CgNAKCH6e3PIElsjkiANGqRGbGB/7juxuZHBHAiGUuzfuMxP03Hvf69MY0M3jRaulL3kZkKvyrc9+aDj3ixemeHy5vLJG56pPfaARTOu1h0qp/Vbw2O+AQwY88M6N5vBGwmB0Uye9H4CKeuT07OjeCFRHoaF4+E/dPetuRc/haLX3JAylLX/3yFEGXg7PNUlf8r0cby2gikySCKVXOBIngxxNZ5ka+J0e7IEOc3BKnxrQqERSJ5S+RAdLIAsiCHc1LYab3HZm190gEO+Io3MgYyAMbq7/8k0YbsW/F8X9ySiPQsu3na9O6r97VOCGmOXjSqi91vjZf8CNsIjDRyMBos3FqBDh2P7y+sXwm9vdoDoDE83uzO35rDvP00pcsIPKi1y9tzGGeKZKfUrNrQ7b3y3cea7S9/aqfdn0E75yXFeyCIEjBJkR3CJRAQACkBJOkiwQIFFugbsGP2dkWsSQl9uXYn/KyVz1/eszKx9Z2FaT44qe+2XjVH7z/9MbyljidJvoUe4H85f/zp9PdyAMeEQSJDVXPueD5d+1PX8v+zOzgx0IyLCIwkZfY56M5ANLOKV/6EsGTyAyJY3Aji6Sxn0hTFkls2hpZKpEFcu+N/9g4vreKpdvgRzdjjwBJXppPj+n0bGx8GpkKx/7JqY3MkthYNX45jl+yX5EtpcmzTKLtXVmgJgIgW/7+MZuktkCNjUzHsqUp7TI/WjzS9tILfuOYlLJ5aF4u07ZydqN56UvsHRIlMkmixF4geRDlBbHcJtu4dddF32lkGx2c7VPSaRPXTu8s2j1BkKLNiP4QKLbAC4rdPb0jQIBAsQUm9+xJP5scq8xpL/Npzw5+RHZHu+BH7MkRwYlrrth73GmrtrftOzo17rU69nb2M7EnSCxtiSUt+bKW/FSZ1/3+b86u3lg2E+Xpx9fOuVenC70EPxqnvmTBiViu0q7kJ8LE/f+/vfsPlquqEwR+QEYlkzz5IT+MUYp1TGoytYuzUiPqDrMEoWqHH7NbMDCQ3VUckTj7BzpMdtWCzAiWtbVZ1FTNzkRhVbZKAQd2tyBYJa4yq7sQJWqYdQKJgICZ8EsQX15+/9r7vS/30a/TfV+/l+6Xe29/TtUr8u69fe45n9NNd3/fOd8TuSimKsXSl8gFUixrKXag6bTM5W3/bGFe5fanX5qq6lqej9kXP/33/2Ni5kfk4+i2vCQCJTGrI2Zh9Ku88r8fz3OCFEtfot49L4zl1c/7rfmTltjEsUigGqXIRZL/ouQCsdRkdNX3egp+xNKVCE7EY/pVYjZHlEiOWiROTc+M5/Z53TsnJ2CN6/IAS1b2vTienyn/pQElgiC3vPB0A3qiCwQIDFrADJBBC6ufAIHGCkTw45Es+LFz//7G9rG1Y63Bj0ho+m+yhKdluTViy9siUelJ2eyMToGSmJlRlFimUlbi/rHbTLddX4odZ8rqGMZzrcGPGLfWxKWdPF588rk8x0eU8eUsh+bhiGUqRTnpN07uVM3Esbj/+v/+cD7T43euOvuQa4std1tPtG7Pe8gDan6gPc/G/D85+5CcH61djJkZsbwlSmx5e0KWA6S9TEpwenBr2/Zrit/zpS/ZTjCRQLNT0KVTkKPYhaZbncN6PAIZxVKTCD5MlVtjewQ/sp+w/7XfPLnjTi1xPkr79rmdjOP+MZsjdo5pTW4a9Uc5sG3PIQ8rtuctcoccckGND3zxufHA0tUnj+ccqnFXNJ0AgQEKCIAMEFfVBAg0V2CYgx8xqpdkCU8jEBEzPNpLLEuJn0hYGjk5YsZGMQukCIIUO7bE8pQoMTNgqt1aIvgRQZCYddJ67T89+7fyHWZi15HH/uWTE4lS4x6RXDXK2f9iOJOgts/8eFeW82PXtp35DI/2EgGKCHjk+T+ynByR3yPyfMT1kbQ0yvjSlO/nOTqixLhNlaPj/v+0Jt9G9+yPnDfp2re9d1FKWf2Pr/1pOqMlj8h4rpDx2SenLZmcVLe9zXX7vT34ETk/IqgRMzzaSyxBieUnkc8jdm2JL7oxCySWoxSJUIsdW4rZIfElvHU5THud8XssfYllEzHrpHVnl1/P7hNfnOM+MUOkSMQ6vj3v+M4jJ5wzPjOnU73DdizybsSuK1HCLZKP7s/ybMRPe3nNW0/I83+MJzF9Mp8tEklL5344G4NsWUqU/dmx7QcToMbvrz2/3DrGMBKaxpgXS1+K+8ZuL7GMJhKqvua04ycCLa3b88bxJhZBkCaOqj4R6K/AUQey0t8q1TZdgeUrbkt33fPgxMM+uuyidO2yC6dbjesJEJglgW0H9qW/37VtaGZ+BOvH/+3nJnYNmYo5doP5V3/8vvyy9iUzcSyCF2PZ0pf4Upz/ngVSPvFfrikNgMTSl0hmGgGV1jwfeQVZuf/O/5tvmxslrjkp+yK/7rt/n9/jTb9xavqP/+1jB6+szn/uvPWbaeGV7x5og+5c9l97HrfWhKjtgZNoZARIim1zi99jK9uyAMiGb/5dHkSJQMn7Pj55i+SoI/J8xE4yUSLoctxJI3lApBi3y1f/cX5u0OXe//ngpO1KB3W/J//iGxO7vUx1j1ieUiQ+bQ+cxGPji29sjRpfpovf/9FfXFC6XW0ENrb81Xfzx7buFlO0JXZ7KYIpEXR5/cnz0q8efmpieUenx0zVj5mcf+qOhw9JADqTegb1mAgk/Ooz3+m5+jd8cslEoKPY6aV4cARPjs52h2nN+REzOuZe/a7S+sdu+X62lObJfFeZTlvbjma5PiK5box1zCaJ50mx01AkRm1PsFp6sxqe/PCppyczQWo4cJpMYBYEzACZBWS3IECgOQKj+yP4MZb2DFnseM+2XTMaxAh2fOIvr8mXrkQQI0oERYoSwYoPf/IPS4MfxdKXmOUR13Yq51/+3nznl7hPzDgZn0Se8iU6S7OlOsNatrXkWJmOQQQ1Irjxgy9/N59ZE6U1+BEBjVjOUhb8KGZydFv6EnUWM0t+fPcP8hknmw82Mo532p1mOn1o0rUxUyOCGzF7o1juMukLcxaseMu/O7s0+FEsfQmXqKtTieU1R2c78cQSmfiyXHxhPvadb0mnZTvNKIcvELNAjjntuLTjq+vzAEUEJvYdDGJFMCSCE3FNWcmXvmTBjzxI1WVHmbmfWJLPKInrdmSzRaL0Wn/ZvetyLmaCjO3bmz72prfVpcnaSYDALAmYATJL0GW3MQOkTMc5AtUReH7v7rRxd7MSx82mbixJibwgkbQ0Ep7GEpk5PSTQnG4bYzvdKG98U7Z8YAD1T7c93a6fjRkg3e49neOx7CXygkRejkh4GjM1YheXfpcXnxhfBjJyyvEDqb+svbM1A6SsDb2eiyUpkRckdnt5TTZzIJauFDu29FpHL9fFPaK89o1zB1J/WRuqPgOkrO3TORdBrH1P/zJf/hJBkaPD+mD+junUU3Zt1L3vmZez4Mdr0zFvbeayl7L+Lzn+lHT9m9+e5h3tb75lTs4RGCYB/zcYptHWVwIEZizw1J7sy3v2o8xcIIIREfQYdCm2vx30fYal/gh2RF6QdGgu1L4SxPa3ytQCEeyIvCBzpr70sK6YKpfIYVXuwblALE+Z2LllQCYRUDn6YJ6RAd2i0tV+55fPp6d3bkufPf0fp/nH9D9wW+nOaxwBAh0FbIPbkcVBAgQIvCog+OHZQIAAAQIE6inwxI6xtOzxH6cte2e2lLOevdZqAgS6CQiAdJNxnACBoRfYm+X52LB7m5kfQ/9MAECAAAECdRZ4dvdOQZA6D6C2E+ijgABIHzFVRYBAcwRim9ufZMGPX+wd32GhOT3TEwIECBAgMHwCEQT51xsfTj/c9srwdV6PCRCYEBAA8WQgQIBAm0Bsc/vIrq1pNMsgrxAgQIAAAQLNENiava8ve2J9uuMXxZ5TzeiXXhAg0LuAJKi9W7mSAIEhEIidXp7cs2PotrkdgqHVRQIECBAgkAvcvOXxtDXb1v7qk7MEzwoBAkMlYAbIUA23zhIgUCYQyU5jm9s92fIXhQABAgQIEGiuwBef+1n6Dz9/NAuEmO3Z3FHWMwKHCgiAHGriCAECQyYQyU4j8GGb2yEbeN0lQIAAgaEWiG1yl25aZ4eYoX4W6PywCQiADNuI6y8BApMEimSnsfRFIUCAAAECBIZLoNghZtPOseHquN4SGFIBAZAhHXjdJkAgpdFs/a9kp54JBAgQIEBguAUiCBIzQSRHHe7ngd4Ph4AkqMMxznpJgECbwJa9u9Lju3dwIUCAAAECBAjkApKjeiIQaL6AGSDNH2M9JECgRaDI9yH44WlBgAABAgQItAtEctQ/+qm8IO0ufifQFAEBkKaMpH4QIDClQOT7+NGurUm+jympXECAAAECBIZW4IkdY2nZ4z9O8oIM7VNAxxssIADS4MHVNQIEXhWIJS8/2jmadu7fj4UAAQIECBAgUCpQ5AW55YWnS69zkgCBegkIgNRrvLSWAIFpCsSSl6f27MzzfezJ/q0QIECAAAECBHoViCUxn9r8WNq6f2+vD3EdAQIVFhAAqfDgaBoBAocnsO3AvnzJyzNZAEQhQIAAAQIECMxEYM3Lz+W7xMRsUoUAgXoLCIDUe/y0ngCBLgLxIeXvdo5Z8tLFx2ECBAgQIECgd4FYEvMHGx6yVW7vZK4kUEkB2+BWclg0igCBmQrEkpef7N6WRveZqjpTQ48jQIAAAQIEOgvEVrkbsz+wXH3q6Wn+Ma/rfJGjBAhUVsAMkMoOjYYRIDBdgdH940teBD+mK+d6AgQIECBAoFeBWBITu8T8cNsrvT7EdQQIVERAAKQiA6EZBAjMXKBIdLp+51ZLXmbO6JEECBAgQIBAjwKxJGbZE+uTXWJ6BHMZgYoICIBUZCA0gwCBmQkUsz4kOp2Zn0cRIECAAAECMxeIXWIufmytBKkzJ/RIArMqIAAyq9xuRoBAvwTM+uiXpHoIECBAgACBwxEoEqSaDXI4ih5LYHYEBEBmx9ldCBDoo4BZH33EVBUBAgQIECDQFwGzQfrCqBICAxUQABkor8oJEOingFkf/dRUFwECBAgQINBvAbNB+i2qPgL9FRAA6a+n2ggQGJDAC/v2pB/t2prk+hgQsGoJECBAgACBvgmYDdI3ShUR6KuAAEhfOVVGgEC/BXYdOJDW7xpLj+3aZoeXfuOqjwABAgQIEBiYgNkgA6NVMYEZCwiAzJjOAwkQGLTAU3t2ph/tHE2j+/YO+lbqJ0CAAAECBAgMRKCYDbJp59hA6lcpAQK9CwiA9G7lSgIEZkkgkpz+IAt8xHKXPdkMEIUAAQIECBAgUGeBmA2ydNO69KnNj9kyt84Dqe21Fzim9j3QAQIEGiMQy10e3b3NjI/GjKiOECBAgAABAq0Ca15+Lv1w7JX04VNPTxcedwocAgRmWcAMkFkGdzsCBA4VKHZ3sdzlUBtHCBAgQIAAgWYJxGyQTz3zaLr4sbVmgzRraPWmBgICIDUYJE0k0GSBLXt3pYctd2nyEOsbAQIECBAg0EGgSJJqWUwHHIcIDEhAAGRAsKolQKBcIPJ8xO4uj+/eIc9HOZWzBAgQIECAQIMFYlnMH2x4KN3ywtMN7qWuEaiGgABINcZBKwgMjUAR+Fi/c6tcH0Mz6jpKgAABAgQITCVQ7Baz5pXnp7rUeQIEZiggADJDOA8jQGD6ArHcReBj+m4eQYAAAQIECAyHQGt+EIGQ4RhzvZxdAQGQ2fV2NwJDKfD83t35trax3EUhQIAAAQIECBAoFygCIR/52SPlFzpLgMC0BARApsXlYgIEpiNQBD427t6edu7fP52HupYAAQIECBAgMPQC67b+Mt8txmyQoX8qAOiTgABInyBVQ4DAqwICH54NBAgQIECAAIH+CFgW0x9HtRAIAQEQzwMCBPoisPfAgfTUnp3poR2/SmZ89IVUJQQIECBAgACBCQGBEE8GAocvIABy+IZqIDDUAkXg4+Esx8czWQBkTxYIUQgQIECAAAECBAYj0B4IiSTzCgECvQkc09tlriJAgMBkgdjO9tnsDTeWuygECBAgQIAAAQKzK1AEQt702tend849Ll196ulp/jGvm91GuBuBmgkIgNRswDSXwJEUiNkeL+3bk57dtzuN7tt7JJvi3gQIECBAgAABAplABELWvPxc/nPhCacKhHhWECgREAApwXGKAIFxgW0H9qUX92aBj2zGhyUunhUECBAgQIAAgWoKFIGQM+cdny44/tR04XGnVLOhWkXgCAkIgBwheLclUHWBmO3xQjbT44VsxofZHlUfLe0jQIAAAQIECLwqENvnxs8Xn/tZuuiEN6ULspkhlsd4hhBISQDEs4AAgUkCRW6Pl7PAh9kenhwECBAgQIAAgfoKxPKYCILEz5LjT0nnH39yOnfuifXtkJYTOEyBSgdA1q7blL71wPo0unVH9rM9LV70lnTJxe9OC+ZP/0U7Oro93X3v2rRh48/T5i2/yOs668xF6bxzzjhMQg8nUH+BCHpEwMMSl/qPpR4QIECAAAECBDoJfOeXz6f4KZKmXvHGBWnh6+d2utQxAo0VqGQAJIIV1/zpX6cIgLSW+7NgyOdX35uuXXZh+uiyi3oelC999dtp1eo1eRClKFF3HI9gyu23XjejoErPDXAhgQoKCHpUcFA0iQABAgQIECAwYIHWpKkRDLkyC4ScfdxJlsgM2F311RCoZADkiqtvzmZqbM6FRubNSeef8448eDE+e+OlPJixNZsVcsPyy6ZUjIBJXF/UddaZC/M6N2x8Jr/H5i0vpSs+dHO6747r08jInCnrcwGBugoUO7i8sn9vPtvD8pa6jqR2EyBAgAABAgT6IxDBkJu3PJ7/ROLU35t3omBIf2jVUlGBygVAImBRBD9ilkfM9ihKBCuWr/hKPjMkZm+clwVGIqDRrcT1RfCj00yPqOOmlV/PgyA3/ee/SStvfH+3qhwnUEuBYpZHBD0kMq3lEGo0AQIECBAgQGBWBIrEqREMeduxc9O5bzgp/d7IiZbJzIq+m8yWwNGzdaNe73P3PQ/lly5etGBS8COORRDjC5/9SD6DI8qqLFhSVorgR1zTaZnLB5eemy69+D15FXfd82CKpTcKgToLRMBjS7ZV7fpdY+mhHb9K63duTc/s2Sn4UedB1XYCBAgQIECAwCwLPLFjLE+cunTTunTxY2vTpzY/lr499lLamv1RTSFQZ4FKBUBiZkfMxohy1dL3dXSNZSqXZolQo8RMkbKgxdp1G/PrYpZIt8SpkVS1KJEkVSFQF4HxbWr3pKeyAEdrwOPx3VnS4H17LXGpy0BqJwECBAgQIECgwgJFzpCPP/n/0pKf/J/0kZ89kj737BPph9teqXCrNY1AZ4FKLYH5fkvS0/P/effdWWL3lli+EnlBNj/7clrcIXdHBEaKYMr55/x2595nR4ucIEWOka4XOkHgCArsOnAgvZLl7dhxYH/afmBfGstmeuzcv/8ItsitCRAgQIAAAQIEhlGgWCrztRd/nnc/cofEbjL/ZN5x6XfmvCHNO7pSXzGHcYj0uUSgUs/OImARS1zKEpL+ZrY8piiPZtvaxnKZ9rJh03gS1TjebfZH8ZgF80/IZpNEwOQX7dX4ncCsCUSQY2/an8b27csDHbuyn19l0wz3ZcclLJ21YXAjAgQIECBAgACBaQi0B0Qif8hpr//19NvHzktvz/69MPsRFJkGqEsHKlCpAEjR05F5x/a10/OmqK/IKdLXmx5GZfnMloNLgQ6jGg+tkMDubLnk9qPH10xuzwIcRRnLAhyvZLM5FAIEhk9g+9YsP8/zpg9XYeS3Ze+7R784VoWmaEMmsH/77rT/F9tYECBQU4Gfpm3pp1nb/1dL+0/Mtts9Y/dr08gpb0jvnXNcmpvNEpn/a6+raQ/r0eyRuceWTiqoRy/638pKBkD63c3YMrffJQIU/QpStM88ieU98aMQIECAQLMF/vZvHmx2B2vUu+du+36NWtv8pu785nget+b3VA8JDIfAy1k3IygS5UvD0eUj3sv2HVWPeIMq0oBKBUCKmR9TBRZaz7852xmmU2ld9hIzKspKcX46M0EiYevd2c4x/ShT9bcf91AHAQIECBAgQIAAAQIECBAYZoFKBUAWL3rLxFhEgCESlHYqj2a7vxSlW36POB4BjSK56SXp1d1eWuuMZKmxm0yU1vt3um/rsdiJptiNZqprpzq/fMVt+Ta8CgECBAgQIECAAAECBAgQIDAYgUptg3tey84vrTvCtHf9/gd+nB+KIEe3AEicL5Kj3nXPQ123y/3W3z4yUf27ugRc2u/vdwIECBAgQIAAAQIECBAgQKBeAkcdyEqVmnzFh25OMfsjZm/cd+f1hwQ4IjfGTSu/njd55Y0fmDQLI5aStAZEop6oL8oHl56bblh+2aSuxvVxvnjc977xmSpR1KYt4bxq9b3p9luvq02bNZRAnQR+9/c/mf//rtusuDr1RVsJVE0gPgPEa+xn679QtaZpD4FGCJz+jmtSfMYu+6NlIzqqEwSOgMCq1Wvyu1677MIjcPd63rJSS2CCMD7kX3D5p/OlKxGcuHbZRRNLU2LmRzHI8T/R1iUoReAkviAUX8Tj3/ETX9AjcDKaJUO9JFu6Eo+NGSafz760F/k34j4KAQIECBAgQIAAAQIECBAg0EyBygVAIjgRMzWWr/hKHpyI/7aXuKZ1tkFcF0GOKPHfyOsxMjIn/z0CKsUsj8iz0SnXRmTI7Vc+j/a2+p0AAQIECBAgQIAAAQIECBA48gKVygFScEQwIqbKXXrxeyYJxbKYWMpy3x2Tl8ZEQCSOR4n/FsGP+D3OxfUR5GifelfMFjFl6Mg/EbWAAAECBAgQIECAAAECBAgMUqByM0CKzkawYuWN789/imUq7QGMVpiYNdKe46M4HwGRCHLET8wOGR3bkUbmHjspUDJIZHUTIECAAAECBAgQIECAAAECR1agsgGQVpaywMd0+SIY0jpDZLqPdz0BAgQIECBAgAABAgQIECBQP4FKLoGpH6MWEyBAgAABAgQIECBAgAABAlUWEACp8uhoGwECBAgQIECAAAECBAgQINAXAQGQvjCqhAABAgQIECBAgAABAgQIEKiygABIlUdH2wguZ4QbAAASvUlEQVQQIECAAAECBAgQIECAAIG+CAiA9IVRJQQIECBAgAABAgQIECBAgECVBQRAqjw62kaAAAECBAgQIECAAAECBAj0RUAApC+MKiFAgAABAgQIECBAgAABAgSqLCAAUuXR0TYCBAgQIECAAAECBAgQIECgLwICIH1hVAkBAgQIECBAgAABAgQIECBQZQEBkCqPjrYRIECAAAECBAgQIECAAAECfREQAOkLo0oIECBAgAABAgQIECBAgACBKgsIgFR5dLSNAAECBAgQIECAAAECBAgQ6IuAAEhfGFVCgAABAgQIECBAgAABAgQIVFngqANZqXIDta36AqOj29PmZ19OixctqH5jtZBADQXWrtuUFi9ckEZG5tSw9ZpMoNoC8R62YdPmdNaZC6vdUK0jUFOBeA/z+qrp4Gl25QXiPSyKz4i9D5UASO9WriRAgAABAgQIECBAgAABAgRqKmAJTE0HTrMJECBAgAABAgQIECBAgACB3gUEQHq3ciUBAgQIECBAgAABAgQIECBQUwEBkJoOnGYTIECAAAECBAgQIECAAAECvQsIgPRu5UoCBAgQIECAAAECBAgQIECgpgICIDUdOM0mQIAAAQIECBAgQIAAAQIEehcQAOndypUECBAgQIAAAQIECBAgQIBATQUEQGo6cJpNgAABAgQIECBAgAABAgQI9C4gANK7lSsJECBAgAABAgQIECBAgACBmgoIgNR04DSbAAECBAgQIECAAAECBAgQ6F1AAKR3K1cSIECAAAECBAgQIECAAAECNRUQAKnpwGk2AQIECBAgQIAAAQIECBAg0LuAAEjvVq4kQIAAAQIECBAgQIAAAQIEaiogAFLTgdNsAgQIECBAgAABAgQIECBAoHcBAZDerVxJgAABAgQIECBAgAABAgQI1FRAAKSmA6fZBAgQIECAAAECBAgQIECAQO8Cx/R+qSsJdBfYvOWltGr1mvyCSy5+dzrrzIXdL3aGAIGeBNau25S+9cD6tHbdxjS6dUdaMP/EtHjRW9JVS8/N/60QIDBzgXh9ffmr304bNv48ryReU5dc/J50afYephAgcHgCo6Pb05e+9u30/ex1Fp8RR+Ydm71/vdVnxMNj9WgChwh864FH0v3ZZ8Uo8flw8aIFh1zjwGSBow5kBQqBwxVYvuK2dNc9D+YfIG+/9Tpfzg4X1OOHXuDzq++dCCp2wrh22YXpo8su6nTKMQIESgTii9k1f/rXWWBxU8ervI91ZHGQQM8C8YXsz1Z8JQvcb+/4mA9mX9JuWH5Zx3MOEiAwPYHf/f1P5kHGeO/63jc+M70HD+nVZoAM6cD3s9vxITKCH1Euzf565i/T/dRV1zAK3H3PQxPBj3g9Fa+reK3FbJBixtVZZy4y22oYnyD6fFgCy//8tongR8xWjNfRyLw5+Wsr/ooWr68rPnRzuu+O69PIyJzDupcHExg2gXj9FMGPeF3FjKqYuRjH47Ni/PdL2cyrBfPfmP21esmw8egvgb4KxOfFeE1FudYfxXq2NQOkZyoXdhOID4rxxSy+qPnA2E3JcQK9C7RG89tfU/FGd8Hln87/shaBkZU3vr/3il1JYMgF4sNifDmLEjOoYiZVa4kvZjet/HrX80POp/sEphQoZgRH8OO+O6+f9EexmH11wR99+uCSmDnpke99bsr6XECAQHcBsz+625SdkQS1TMe5KQXiw2QxjTgij/5aNiWZCwiUCmzYuHni/MobP3DIayoCjcX6zviLtUKAQO8CxWzFeB21Bz+ilpiaX+SwimBIfGFTCBDoXWDDxmfyi2PmR/uM4PiM+MGl78vPRxC/+Mt177W7kgCBQsDsj5k/FyyBmbmdR2YCkacgyvg0fYnjPCkIHK5ABDdiDWcEQrolsoq/rCkECExPIIIZRcA+Zk91KxHMX5vNbIwvaBs2bbbMrBuU4wQ6CNx35w3jMzzmHtvhbMqToSoECBy+gO9gMzc0A2TmdkP/SJHHoX8KABigQLfgR9yy2LUi1lUrBAj0JhDBjKK8q2SnssULX82g/2jLjKze7uIqAgTij2LdZgQXQci4pn2GCDkCBHoTiBmKxQyqmC2sTE/ADJDpebm6RaBb5DHWT8eWnfEB03aCnjIE+isQr6/iTS+2O1MIEOhN4B8OJoqLq8u+eMUXt5hllc8AObhFbm93cBUBAmUC8aWtNWl+2bXOESDQWSA+A8YW7lHGE3kvnLgwcvBE8R2ss11xVACk3GdozkZEPvZq71biw2Brtu6y2R9FFv2oSwCkm6jjwyYQ2wKWfZl6c77bS/kysgg6xgfIKJHAschVMGyW+ktg0AIxTb/bFp6Dvrf6CTRR4K4sZ1yRYLhbDp4m9lufCPRboNhNKeptn/1RBBjj3FSfKfvdrjrVJwBSp9EaYFsj+FHM6Oh0m3izag2AdJv90emxjhEgkPLtNVvfmNpNIphR9mYVHxyL4EfkL+iUwLG9Tr8TIDAzgZjFqBAg0B+BCH4sP7j7UnyevP3W6/pTsVoIDJlAzP5YtXpN3uv4LFg2m3HIaKbVXQGQaXE19+KYKhV/Ue5WWpMuRvCjmIK/Yvnl3R7iOAECLQLnn/OO0jeqmAHSrRTbCsb52KXihuWXdbvUcQIEugi0vo/Fe1i3D46RLLWY/dHtmi63cJgAgTaB+MxYfGGL3FZf+NyfdH3twSNAoFygeC3FVf4QVm5VdvaoA1kpu8A5Au0CxZ7T7ce7/R5/2Rbt76bjOIFygdbgRwQpveGVezlLoJtABDbOOPtj+ekI3rfOamx9TCwJvSLbBSbKF7Mva+edc0a3Kh0nQKBEoD34cfst13VNjlpSjVMECGQCre9hvYLELJGVN76/18uH5jq7wAzNUPevo/Zt75+lmgh0E4g3uvgSViybEfzoJuU4gd4EIrlpkTfn/gd+3PVBkeOqKO9659u7XucEAQLdBVqDH/kfwgQ/umM5Q6AHgdExSzN7YOrpEktgemJyUavAVLM5Yp1nBEniDe/a7C/WrdOOSRIgMLVAHvy4+uYsaer4tp2CH1ObuYJALwKXZH8Nixke8RNf0NqXfkaugtZdKrpt5dnLvVxDYFgFWoMf/gI9rM8C/e63wMjcY6ecUV/MXiy+g1nG2XkUBEA6uzhaItDrzhML5r/RLhUljk4R6CTQHvyIAGIEFIutzdofc8Of/aEpxe0ofifQRSASDd99z4N5ACTWUv/Dlpcn3qdil6Yi0bBdKroAOkxgCoHW4Edxabf3r0uy12OvnymnuK3TBBov0DqLcarO+g5WLiQAUu7jLAECBGZVYMOmzRMzP+LGkYyxbPeYyAnir9SzOkRuVnOB2DYw/koWgcV4bbW/viL4IVFjzQdZ84+YQGuSxmhE++urtWGCH0dsmNyYwFALCIAM9fAPpvOx20VsIRg7yygECExPIL58xZThXktMiVQIEOhdIF5j3/vGZ7IvZg/ls0GKpWYj847NX3tXXblEULF3TlcSmCQwnfevst3PsBIgMH2B4vXnO1i5nV1gyn2cJUCAAAECBAgQIECAAAECBBogYBeYBgyiLhAgQIAAAQIECBAgQIAAAQLlAgIg5T7OEiBAgAABAgQIECBAgAABAg0QEABpwCDqAgECBAgQIECAAAECBAgQIFAuIABS7uMsAQIECBAgQIAAAQIECBAg0AABAZAGDKIuECBAgAABAgQIECBAgAABAuUCAiDlPs4SIECAAAECBAgQIECAAAECDRAQAGnAIOoCAQIECBAgQIAAAQIECBAgUC4gAFLu4ywBAgQIECBAgAABAgQIECDQAAEBkAYMoi4QIECAAAECBAgQIECAAAEC5QICIOU+zhIgQIAAAQIECBAgQIAAAQINEBAAacAg6gIBAgQIECBAgAABAgQIECBQLiAAUu7jLAECBAgQIECAAAECBAgQINAAAQGQBgyiLhAgQIAAAQIECBAgQIAAAQLlAgIg5T7OEiBAgAABAgQIECBAgAABAg0QEABpwCDqAgECBAgQIECAAAECBAgQIFAuIABS7uMsAQIECBAgQIAAAQIECBAg0AABAZAGDKIuECBAgAABAgQIECBAgAABAuUCAiDlPs4SIECAAAECBAgQIECAAAECDRAQAGnAIOoCAQIECBAgQIAAAQIECBAgUC4gAFLu4ywBAgQIECBAgAABAgQIECDQAAEBkAYMoi4QIECAAAECBAgQIECAAAEC5QICIOU+zhIgQIAAAQIECBAgQIAAAQINEBAAacAg6gIBAgQIECBAgAABAgQIECBQLiAAUu7jLAECBAgQIECAAAECBAgQINAAAQGQBgyiLhAgQIAAAQIECBAgQIAAAQLlAgIg5T7OEiBAgAABAgQIECBAgAABAg0QEABpwCDqAgECBAgQIECAAAECBAgQIFAuIABS7uMsAQIECBAgQIAAAQIECBAg0AABAZAGDKIuECBAgAABAgQIECBAgAABAuUCAiDlPs4SIECAAAECBAgQIECAAAECDRAQAGnAIOoCAQIECBAgQIAAAQIECBAgUC4gAFLu4ywBAgQIECBAgAABAgQIECDQAAEBkAYMoi4QIECAAAECBAgQIECAAAEC5QICIOU+zhIgQIAAAQIECBAgQIAAAQINEBAAacAg6gIBAgQIECBAgAABAgQIECBQLnBM+WlnCRAgQIAAAQLNEbhp5dfT/Q+szzt0ycXvTh9ddlFp5zZs3Jyu+dhf5dcsmH9i+sJnP5JGRuaUPsZJAgQIECBAoJoCZoBUc1y0igABAgQIEBiAwFVLz02jW3ekzVteSqtWr0lr123qepe45ooP3ZxfG4+5Yfnlgh9dtZwgQIAAAQLVFxAAqf4YaSEBAgQIECDQJ4GYxfHBLAhSlFWr7+1YcxH8GN26PT9/+63XpcWLFnS81kECBAgQIECgHgICIPUYJ60kQIAAAQIE+iRw1ZVL0si88WUsMQOkfRZI68yPuOXKGz8g+NEne9UQIECAAIEjKSAAciT13ZsAAQIECBCYdYHI4XHtsgsn7rt8xVcm/t0e/FiRLXu5NMsVohAgQIAAAQL1FxAAqf8Y6gEBAgQIECAwTYFYBlMsaSnygYyObs8TnsbvUSJB6lVLl0yzZpcTIECAAAECVRU46kBWqto47SJAgAABAgQIDEoglr5EktMosSRmwfwTUuz6EiWCH62zRAbVBvUSIECAAAECsydgBsjsWbsTAQIECBAgUCGBs85cmOInSiQ7Ffyo0OBoCgECBAgQGICAAMgAUFVJgAABAgQI1EPg2mymR2uJgIiZH/UYO60kQIAAAQLTFRAAma6Y6wkQIECAAIFGCESuj9YEqNGpmAVS5ABpRCd1ggABAgQIEJgQEADxZCBAgAABAgSGTiASnkb+jyLYsWD+iblBLIW5aeXXh85DhwkQIECAwDAICIAMwyjrIwECBAgQIDAhkAc/rn41+BEJT++74/o8EWqU+x9YnyJBqkKAAAECBAg0S0AApFnjqTcECBAgQIDAFALL//y2QxKejozMSbE1blFWrb53ilqcJkCAAAECBOomIABStxHTXgIECBAgQGDGAstX3JbP8IgSAY/WhKdXXbkk2wp3fClMzAC5656HZnwfDyRAgAABAgSqJyAAUr0x0SICBAgQIEBgAAKfz2Z13HXPg3nNl178nnTD8ssm3SVmgaxYfvnEscgFEstlFAIECBAgQKAZAgIgzRhHvSBAgAABAgRKBCL4sWr1mvyKxYsWpJU3vr/j1eedc0aKrXCjRELUL3/tOx2vc5AAAQIECBCon4AASP3GTIsJECBAgACBaQi0Bz9uv+W60kdfmyVFLcqXvvpt2+KWajlJgAABAgTqI3DUgazUp7laSoAAAQIECBDoXSCWsGzYtHniAYsXLkix1GWq0roLTOQFKXKDTPU45wkQIECAAIHqCgiAVHdstIwAAQIECBAgQIAAAQIECBDok4AlMH2CVA0BAgQIECBAgAABAgQIECBQXQEBkOqOjZYRIECAAAECBAgQIECAAAECfRIQAOkTpGoIECBAgAABAgQIECBAgACB6goIgFR3bLSMAAECBAgQIECAAAECBAgQ6JOAAEifIFVDgAABAgQIECBAgAABAgQIVFdAAKS6Y6NlBAgQIECAAAECBAgQIECAQJ8EBED6BKkaAgQIECBAgAABAgQIECBAoLoCAiDVHRstI0CAAAECBAgQIECAAAECBPokIADSJ0jVECBAgAABAgQIECBAgAABAtUVEACp7thoGQECBAgQIECAAAECBAgQINAnAQGQPkGqhgABAgQIECBAgAABAgQIEKiugABIdcdGywgQIECAAAECBAgQIECAAIE+CQiA9AlSNQQIECBAgAABAgQIECBAgEB1BQRAqjs2WkaAAAECBAgQIECAAAECBAj0SeD/A44eR+ojkN3pAAAAAElFTkSuQmCC;clipPath=inset(1.56% 4% 18.23% 0%);" vertex="1" parent="1">
          <mxGeometry x="100" y="3840" width="428" height="228.86111111111111" as="geometry" />
        </mxCell>
        <mxCell id="vVD12n-NJjttuo7cWdmi-150" value="" style="endArrow=classic;startArrow=classic;html=1;rounded=0;" edge="1" parent="1">
          <mxGeometry width="50" height="50" relative="1" as="geometry">
            <mxPoint x="334.76" y="4180" as="sourcePoint" />
            <mxPoint x="334.76" y="4080" as="targetPoint" />
          </mxGeometry>
        </mxCell>
        <mxCell id="vVD12n-NJjttuo7cWdmi-151" value="alternative&lt;br&gt;outlier&lt;br&gt;detection" style="text;html=1;strokeColor=none;fillColor=none;align=center;verticalAlign=middle;whiteSpace=wrap;rounded=0;" vertex="1" parent="1">
          <mxGeometry x="38" y="3920" width="60" height="30" as="geometry" />
        </mxCell>
        <mxCell id="vVD12n-NJjttuo7cWdmi-152" value="std" style="endArrow=classic;startArrow=classic;html=1;rounded=0;" edge="1" parent="1">
          <mxGeometry width="50" height="50" relative="1" as="geometry">
            <mxPoint x="564" y="4030" as="sourcePoint" />
            <mxPoint x="604" y="4030" as="targetPoint" />
          </mxGeometry>
        </mxCell>
        <mxCell id="vVD12n-NJjttuo7cWdmi-153" value="3 x std" style="endArrow=classic;startArrow=classic;html=1;rounded=0;" edge="1" parent="1">
          <mxGeometry width="50" height="50" relative="1" as="geometry">
            <mxPoint x="339" y="4100" as="sourcePoint" />
            <mxPoint x="459" y="4100" as="targetPoint" />
          </mxGeometry>
        </mxCell>
        <mxCell id="vVD12n-NJjttuo7cWdmi-154" value="3 x std" style="endArrow=classic;startArrow=classic;html=1;rounded=0;" edge="1" parent="1">
          <mxGeometry width="50" height="50" relative="1" as="geometry">
            <mxPoint x="215" y="4100" as="sourcePoint" />
            <mxPoint x="335" y="4100" as="targetPoint" />
          </mxGeometry>
        </mxCell>
        <mxCell id="vVD12n-NJjttuo7cWdmi-156" value="" style="endArrow=classic;startArrow=classic;html=1;rounded=0;" edge="1" parent="1">
          <mxGeometry width="50" height="50" relative="1" as="geometry">
            <mxPoint x="460" y="4180" as="sourcePoint" />
            <mxPoint x="460" y="4080" as="targetPoint" />
          </mxGeometry>
        </mxCell>
        <mxCell id="vVD12n-NJjttuo7cWdmi-157" value="" style="endArrow=classic;startArrow=classic;html=1;rounded=0;" edge="1" parent="1">
          <mxGeometry width="50" height="50" relative="1" as="geometry">
            <mxPoint x="214.5" y="4180" as="sourcePoint" />
            <mxPoint x="214.5" y="4080" as="targetPoint" />
          </mxGeometry>
        </mxCell>
        <mxCell id="vVD12n-NJjttuo7cWdmi-158" value="outlier" style="text;html=1;strokeColor=none;fillColor=none;align=center;verticalAlign=middle;whiteSpace=wrap;rounded=0;" vertex="1" parent="1">
          <mxGeometry x="112.5" y="4100" width="60" height="30" as="geometry" />
        </mxCell>
        <mxCell id="vVD12n-NJjttuo7cWdmi-159" value="outlier" style="text;html=1;strokeColor=none;fillColor=none;align=center;verticalAlign=middle;whiteSpace=wrap;rounded=0;" vertex="1" parent="1">
          <mxGeometry x="500" y="4092" width="60" height="30" as="geometry" />
        </mxCell>
        <mxCell id="vVD12n-NJjttuo7cWdmi-160" value="" style="shape=image;verticalLabelPosition=bottom;labelBackgroundColor=default;verticalAlign=top;aspect=fixed;imageAspect=0;image=https://cdn.corporatefinanceinstitute.com/assets/skewness2.png;" vertex="1" parent="1">
          <mxGeometry x="49" y="4260" width="583.5" height="369.73" as="geometry" />
        </mxCell>
        <mxCell id="vVD12n-NJjttuo7cWdmi-162" value="" style="shape=image;verticalLabelPosition=bottom;labelBackgroundColor=default;verticalAlign=top;aspect=fixed;imageAspect=0;image=https://study.com/cimages/multimages/16/img_91a4bcaa0b9b-15331990616072639890.jpeg;" vertex="1" parent="1">
          <mxGeometry x="79" y="4720" width="330" height="450" as="geometry" />
        </mxCell>
        <mxCell id="vVD12n-NJjttuo7cWdmi-163" value="çarpıklık = skewness =&amp;nbsp;əyrilik" style="text;html=1;strokeColor=none;fillColor=none;align=center;verticalAlign=middle;whiteSpace=wrap;rounded=0;" vertex="1" parent="1">
          <mxGeometry x="414" y="5030" width="210" height="40" as="geometry" />
        </mxCell>
        <mxCell id="vVD12n-NJjttuo7cWdmi-164" value="" style="shape=image;verticalLabelPosition=bottom;labelBackgroundColor=default;verticalAlign=top;aspect=fixed;imageAspect=0;image=https://www.researchgate.net/profile/Attila-Bonyar/publication/298415862/figure/fig1/AS:340236723867648@1458130164255/Illustration-of-the-skewness-and-kurtosis-values-and-how-they-correlate-with-the-shape-of.png;" vertex="1" parent="1">
          <mxGeometry x="140" y="5200" width="531.56" height="270" as="geometry" />
        </mxCell>
        <mxCell id="vVD12n-NJjttuo7cWdmi-165" value="" style="shape=image;verticalLabelPosition=bottom;labelBackgroundColor=default;verticalAlign=top;aspect=fixed;imageAspect=0;image=https://www.researchgate.net/profile/Attila-Bonyar/publication/298415862/figure/fig1/AS:340236723867648@1458130164255/Illustration-of-the-skewness-and-kurtosis-values-and-how-they-correlate-with-the-shape-of.png;clipPath=inset(0% 59.33% 48.68% 0%);" vertex="1" parent="1">
          <mxGeometry x="153.22000000000003" y="5520" width="240.78" height="153.94" as="geometry" />
        </mxCell>
        <mxCell id="vVD12n-NJjttuo7cWdmi-166" value="" style="endArrow=none;html=1;rounded=0;" edge="1" parent="1">
          <mxGeometry width="50" height="50" relative="1" as="geometry">
            <mxPoint x="280" y="5730" as="sourcePoint" />
            <mxPoint x="280" y="5490" as="targetPoint" />
          </mxGeometry>
        </mxCell>
        <mxCell id="vVD12n-NJjttuo7cWdmi-167" value="" style="shape=image;verticalLabelPosition=bottom;labelBackgroundColor=default;verticalAlign=top;aspect=fixed;imageAspect=0;image=https://www.researchgate.net/profile/Attila-Bonyar/publication/298415862/figure/fig1/AS:340236723867648@1458130164255/Illustration-of-the-skewness-and-kurtosis-values-and-how-they-correlate-with-the-shape-of.png;clipPath=inset(0% 0% 0% 38.67%);" vertex="1" parent="1">
          <mxGeometry x="22.14" y="5880" width="204.72" height="169.11" as="geometry" />
        </mxCell>
        <mxCell id="vVD12n-NJjttuo7cWdmi-168" value="" style="endArrow=none;html=1;rounded=0;fillColor=#dae8fc;strokeColor=#6c8ebf;" edge="1" parent="1">
          <mxGeometry width="50" height="50" relative="1" as="geometry">
            <mxPoint x="100" y="6120" as="sourcePoint" />
            <mxPoint x="100" y="5850" as="targetPoint" />
          </mxGeometry>
        </mxCell>
        <mxCell id="vVD12n-NJjttuo7cWdmi-169" value="" style="endArrow=none;html=1;rounded=0;fillColor=#dae8fc;strokeColor=#6c8ebf;" edge="1" parent="1">
          <mxGeometry width="50" height="50" relative="1" as="geometry">
            <mxPoint x="154.02" y="6115" as="sourcePoint" />
            <mxPoint x="154.02" y="5845" as="targetPoint" />
          </mxGeometry>
        </mxCell>
        <mxCell id="vVD12n-NJjttuo7cWdmi-171" value="" style="shape=image;verticalLabelPosition=bottom;labelBackgroundColor=default;verticalAlign=top;aspect=fixed;imageAspect=0;image=https://upload.wikimedia.org/wikipedia/commons/c/cc/Relationship_between_mean_and_median_under_different_skewness.png;" vertex="1" parent="1">
          <mxGeometry x="17.680000000000007" y="6160" width="479.82" height="181.14" as="geometry" />
        </mxCell>
        <mxCell id="vVD12n-NJjttuo7cWdmi-172" value="" style="shape=image;verticalLabelPosition=bottom;labelBackgroundColor=default;verticalAlign=top;aspect=fixed;imageAspect=0;image=https://upload.wikimedia.org/wikipedia/commons/c/cc/Relationship_between_mean_and_median_under_different_skewness.png;clipPath=inset(5.75% 36.67% 5.74% 33.33%);" vertex="1" parent="1">
          <mxGeometry x="95.99000000000001" y="6420" width="163.0278112188781" height="181.14" as="geometry" />
        </mxCell>
        <mxCell id="vVD12n-NJjttuo7cWdmi-173" value="" style="shape=image;verticalLabelPosition=bottom;labelBackgroundColor=default;verticalAlign=top;aspect=fixed;imageAspect=0;image=https://upload.wikimedia.org/wikipedia/commons/c/cc/Relationship_between_mean_and_median_under_different_skewness.png;clipPath=inset(1.33% 66% 10.18% 0.67%);" vertex="1" parent="1">
          <mxGeometry x="305" y="6400" width="181.14" height="181.14" as="geometry" />
        </mxCell>
      </root>
    </mxGraphModel>
  </diagram>
</mxfile>
